/* XPM */
static char *bottom_active[] = {
/* columns rows colors chars-per-pixel */
"36 4 2 1 ",
"  c #27F827F827F8",
". c #2B402B402B40",
/* pixels */
"                                    ",
"....................................",
"....................................",
"...................................."
};
