/* XPM */
static char *bottom_left_active[] = {
/* columns rows colors chars-per-pixel */
"32 32 2 1 ",
"  c black",
". c None",
/* pixels */
"    ............................",
"    ............................",
"    ............................",
"    ............................",
"    ............................",
"    ............................",
"    ............................",
"    ............................",
"    ............................",
"    ............................",
"    ............................",
"    ............................",
"    ............................",
"    ............................",
"    ............................",
"    ............................",
"    ............................",
"    ............................",
"    ............................",
"    ............................",
"    ............................",
"    ............................",
"    ............................",
"    ............................",
"    ............................",
"    ............................",
"    ............................",
"    ............................",
"                                ",
"                                ",
"                                ",
"                                "
};
