/* XPM */
static char *bottom_right_inactive[] = {
/* columns rows colors chars-per-pixel */
"36 36 3 1 ",
"  c #5BE05BE05BE0",
". c #5D205D205D20",
"X c None",
/* pixels */
"XXXXXXXXXXXXXXXXXXXXXXXXXXXXXXXX ...",
"XXXXXXXXXXXXXXXXXXXXXXXXXXXXXXXX ...",
"XXXXXXXXXXXXXXXXXXXXXXXXXXXXXXXX ...",
"XXXXXXXXXXXXXXXXXXXXXXXXXXXXXXXX ...",
"XXXXXXXXXXXXXXXXXXXXXXXXXXXXXXXX ...",
"XXXXXXXXXXXXXXXXXXXXXXXXXXXXXXXX ...",
"XXXXXXXXXXXXXXXXXXXXXXXXXXXXXXXX ...",
"XXXXXXXXXXXXXXXXXXXXXXXXXXXXXXXX ...",
"XXXXXXXXXXXXXXXXXXXXXXXXXXXXXXXX ...",
"XXXXXXXXXXXXXXXXXXXXXXXXXXXXXXXX ...",
"XXXXXXXXXXXXXXXXXXXXXXXXXXXXXXXX ...",
"XXXXXXXXXXXXXXXXXXXXXXXXXXXXXXXX ...",
"XXXXXXXXXXXXXXXXXXXXXXXXXXXXXXXX ...",
"XXXXXXXXXXXXXXXXXXXXXXXXXXXXXXXX ...",
"XXXXXXXXXXXXXXXXXXXXXXXXXXXXXXXX ...",
"XXXXXXXXXXXXXXXXXXXXXXXXXXXXXXXX ...",
"XXXXXXXXXXXXXXXXXXXXXXXXXXXXXXXX ...",
"XXXXXXXXXXXXXXXXXXXXXXXXXXXXXXXX ...",
"XXXXXXXXXXXXXXXXXXXXXXXXXXXXXXXX ...",
"XXXXXXXXXXXXXXXXXXXXXXXXXXXXXXXX ...",
"XXXXXXXXXXXXXXXXXXXXXXXXXXXXXXXX ...",
"XXXXXXXXXXXXXXXXXXXXXXXXXXXXXXXX ...",
"XXXXXXXXXXXXXXXXXXXXXXXXXXXXXXXX ...",
"XXXXXXXXXXXXXXXXXXXXXXXXXXXXXXXX ...",
"XXXXXXXXXXXXXXXXXXXXXXXXXXXXXXXX ...",
"XXXXXXXXXXXXXXXXXXXXXXXXXXXXXXXX ...",
"XXXXXXXXXXXXXXXXXXXXXXXXXXXXXXXX ...",
"XXXXXXXXXXXXXXXXXXXXXXXXXXXXXXXX ...",
"XXXXXXXXXXXXXXXXXXXXXXXXXXXXXXXX ...",
"XXXXXXXXXXXXXXXXXXXXXXXXXXXXXXXX ...",
"XXXXXXXXXXXXXXXXXXXXXXXXXXXXXXXX ...",
"XXXXXXXXXXXXXXXXXXXXXXXXXXXXXXXX ...",
"                                ....",
"....................................",
"....................................",
"...................................."
};
