/* XPM */
static char *bottom_right_active[] = {
/* columns rows colors chars-per-pixel */
"32 32 2 1 ",
"  c black",
". c None",
/* pixels */
"............................    ",
"............................    ",
"............................    ",
"............................    ",
"............................    ",
"............................    ",
"............................    ",
"............................    ",
"............................    ",
"............................    ",
"............................    ",
"............................    ",
"............................    ",
"............................    ",
"............................    ",
"............................    ",
"............................    ",
"............................    ",
"............................    ",
"............................    ",
"............................    ",
"............................    ",
"............................    ",
"............................    ",
"............................    ",
"............................    ",
"............................    ",
"............................    ",
"                                ",
"                                ",
"                                ",
"                                "
};
