/* XPM */
static char *close_prelight[] = {
/* columns rows colors chars-per-pixel */
"36 36 74 1 ",
"  c black",
". c #071107110711",
"X c #0B7C0B7C0B7C",
"o c #0F3F0F3F0F3F",
"O c #10F410F410F4",
"+ c #123812381238",
"@ c #14F014F014F0",
"# c #192E192E192E",
"$ c #1A841A841A84",
"% c #1AA61AA61AA6",
"& c #1BFB1BFB1BFB",
"* c #1E241E241E24",
"= c #1FDC1FDC1FDC",
"- c #20E020E020E0",
"; c #224822482248",
": c #230023002300",
"> c #248824882488",
", c #281B281B281B",
"< c #299829982998",
"1 c #29C029C029C0",
"2 c #2B382B382B38",
"3 c #2C782C782C78",
"4 c #2D002D002D00",
"5 c #2E542E542E54",
"6 c #315031503150",
"7 c #32B032B032B0",
"8 c #347834783478",
"9 c #354435443544",
"0 c #36A036A036A0",
"q c #43B043B043B0",
"w c #45F045F045F0",
"e c #493049304930",
"r c #4A904A904A90",
"t c #4E3B4E3B4E3B",
"y c #538053805380",
"u c #559055905590",
"i c #5A005A005A00",
"p c #5AE05AE05AE0",
"a c #5E005E005E00",
"s c #60E060E060E0",
"d c #614061406140",
"f c #65A065A065A0",
"g c #757075707570",
"h c #781078107810",
"j c #790079007900",
"k c #7CB87CB87CB8",
"l c #7F807F807F80",
"z c #802080208020",
"x c #B8DFB8DFB8DF",
"c c #BA1FBA1FBA1F",
"v c #C09FC09FC09F",
"b c #C1BFC1BFC1BF",
"n c #D19FD19FD19F",
"m c #D4FFD4FFD4FF",
"M c #D57FD57FD57F",
"N c #D71FD71FD71F",
"B c #D9BFD9BFD9BF",
"V c #DBFFDBFFDBFF",
"C c #DDDFDDDFDDDF",
"Z c #E19FE19FE19F",
"A c #E2FFE2FFE2FF",
"S c #E50AE50AE50A",
"D c #E63FE63FE63F",
"F c #E71FE71FE71F",
"G c #E7AFE7AFE7AF",
"H c #EB5FEB5FEB5F",
"J c #EC1FEC1FEC1F",
"K c #EE2FEE2FEE2F",
"L c #EFEAEFEAEFEA",
"P c #F5DFF5DFF5DF",
"I c #F82FF82FF82F",
"U c #FA0AFA0AFA0A",
"Y c white",
"T c None",
/* pixels */
"TTTTTTTTTTTTTTTTTTTTTTTTTTTTTTTTTTTT",
"TTTTTTTTTTTTTTTTTTTTTTTTTTTTTTTTTTTT",
"TTTTTTTTTTTTTTTTTTTTTTTTTTTTTTTTTTTT",
"TTTTTTTTTTTTTTTTTTTTTTTTTTTTTTTTTTTT",
"000000000000000000000000000000000000",
"000000000000000000000000000000000000",
"000000000000000000000000000000000000",
"000000000000000000000000000000000000",
"000000000000000000000000000000000000",
"000000000000000000000000000000000000",
"000000000000000000000000000000000000",
"0000000000000>.&0000; =0000000000000",
"000000000000#uAl 00odDg 000000000000",
"000000000005iJYUk  sLYUg-00000000000",
"00000000000@bYYYIhpKYYYC 00000000000",
"0000000000083NYYYPLYYYFt,00000000000",
"000000000000,1mYYYYYYSt&000000000000",
"0000000000000;+BYYYYGwO0000000000000",
"0000000000000XaHYYYYPj 0000000000000",
"000000000000osKYYYYYYIk 000000000000",
"000000000002fLYYYZNYYYUz*00000000000",
"00000000000@vYYYSr$MYYYV 00000000000",
"0000000000082nYGt#:<NYSq200000000000",
"00000000000024xy&00,5ce=000000000000",
"00000000000009%600009%70000000000000",
"000000000000000000000000000000000000",
"000000000000000000000000000000000000",
"000000000000000000000000000000000000",
"000000000000000000000000000000000000",
"000000000000000000000000000000000000",
"000000000000000000000000000000000000",
"000000000000000000000000000000000000",
"000000000000000000000000000000000000",
"000000000000000000000000000000000000",
"000000000000000000000000000000000000",
"000000000000000000000000000000000000"
};
