/* XPM */
static char *close_toggled_active[] = {
/* columns rows colors chars-per-pixel */
"32 32 64 1 ",
"  c #7C654B609607",
". c #7EE050A097BF",
"X c #7F2E513797F1",
"o c #7F6051B0981F",
"O c #7F905200983F",
"+ c #8040534398B2",
"@ c #80BF545098FF",
"# c #817F55C0999F",
"$ c #81FF56B099FF",
"% c #823F57009A3F",
"& c #82EF58709A9F",
"* c #837F59409AFF",
"= c #841F5A609B7F",
"- c #865F5EB09D3F",
"; c #873F60309DBF",
": c #8A7F65F0A01F",
"> c #8B5F6740A0BF",
", c #8CBF69A0A1DF",
"< c #8E9F6C60A31F",
"1 c #8F9F6E50A3FF",
"2 c #903F6F30A47F",
"3 c #967F78C0A8FF",
"4 c #96BF7940A93F",
"5 c #A65F8FDFB55F",
"6 c #ACDF98DFBA7F",
"7 c #B11F9E9FBDDF",
"8 c #B2FFA11FBF5F",
"9 c #B39FA1FFBFFF",
"0 c #B41FA27FC03F",
"q c #B4BFA35FC0BF",
"w c #B55FA41FC13F",
"e c #B73FA6BFC2DF",
"r c #B8F4A8EAC42A",
"t c #B9DFA9FFC4DF",
"y c #C43FB77FCD5F",
"u c #C90FBD8FD13F",
"i c #C97FBE1FD19F",
"p c #CA1FBEDFD21F",
"a c #CEFFC4DFD63F",
"s c #D61FCDBFDC1F",
"d c #D67FCE27DC87",
"f c #D69FCE5FDC9F",
"g c #D99FD1FFDF1F",
"h c #DA3FD2DFDFBF",
"j c #E55FE05FE93F",
"k c #E5F7E117E9AF",
"l c #E65FE17FE9FF",
"z c #F49FF29FF61F",
"x c #F59FF3BFF6FF",
"c c #F61FF45FF77F",
"v c #FA14F90AFADF",
"b c #FABFF9BFFB5F",
"n c #FB94FAD4FC34",
"m c #FC3FFB9FFCBF",
"M c #FCFFFC7FFD5F",
"N c #FD3FFCAFFD8F",
"B c #FD9FFD3FFDFF",
"V c #FE1FFDCFFE5F",
"C c #FE5FFE1FFE9F",
"Z c #FE9FFE5FFEBF",
"A c #FEFFFEDFFF27",
"S c #FF5FFF5FFF7F",
"D c white",
"F c None",
/* pixels */
"FFFFFFFFFFFFFFFFFFFFFFFFFFFFFFFF",
"FFFFFFFFFFFFFFFFFFFFFFFFFFFFFFFF",
"FFFFFFFFFFFFFFFFFFFFFFFFFFFFFFFF",
"                                ",
"................................",
"................................",
"................................",
"................................",
"..........+w:......%t*..........",
".........$yVk1....-dAg;.........",
"........+yMDDj,..=sADSg*........",
"........3bDDDDk>&fSDDDZ7........",
"........X0vDDDDlhSDDDBi+........",
".........OqnDDDDDDDDCi&.........",
"..........X8mDDDDDDZu#..........",
"...........XrCDDDDDa@...........",
"...........&dADDDDDk>...........",
"..........=dSDDDDDDDl,..........",
".........-sSDDDVNDDDDj1.........",
"........%dADDDZpemDDDDk:........",
"........4cDDDCu@X9nDDDN6........",
".........5zDBi#..XqvDnro........",
"..........5xi&....O0vr+.........",
"...........2+......X<o..........",
"................................",
"................................",
"................................",
"................................",
"................................",
"................................",
"................................",
"................................"
};
