/* XPM */
static char *close_toggled_pressed[] = {
/* columns rows colors chars-per-pixel */
"36 36 52 1 ",
"  c #633063306330",
". c #699069906990",
"X c #6A806A806A80",
"o c #6D406D406D40",
"O c #72D072D072D0",
"+ c #73E073E073E0",
"@ c #749074907490",
"# c #75C875C875C8",
"$ c #767576757675",
"% c #77C077C077C0",
"& c #788678867886",
"* c #797D797D797D",
"= c #7A007A007A00",
"- c #7B847B847B84",
"; c #7DB07DB07DB0",
": c #7E307E307E30",
"> c #7FB07FB07FB0",
", c #805080508050",
"< c #819F819F819F",
"1 c #869F869F869F",
"2 c #879F879F879F",
"3 c #8CCF8CCF8CCF",
"4 c #8DBF8DBF8DBF",
"5 c #8FFF8FFF8FFF",
"6 c #906F906F906F",
"7 c #929492949294",
"8 c #937F937F937F",
"9 c #948A948A948A",
"0 c #959F959F959F",
"q c #973F973F973F",
"w c #991F991F991F",
"e c #A77FA77FA77F",
"r c #A83FA83FA83F",
"t c #AC7FAC7FAC7F",
"y c #B1FFB1FFB1FF",
"u c #B33FB33FB33F",
"i c #B4FFB4FFB4FF",
"p c #B77FB77FB77F",
"a c #B9BFB9BFB9BF",
"s c #BBFFBBFFBBFF",
"d c #BCEFBCEFBCEF",
"f c #BF1FBF1FBF1F",
"g c gray75",
"h c #C094C094C094",
"j c #C17FC17FC17F",
"k c #C5DFC5DFC5DF",
"l c #C81FC81FC81F",
"z c #C97FC97FC97F",
"x c #D6DFD6DFD6DF",
"c c #E8DFE8DFE8DF",
"v c white",
"b c None",
/* pixels */
"bbbbbbbbbbbbbbbbbbbbbbbbbbbbbbbbbbbb",
"bbbbbbbbbbbbbbbbbbbbbbbbbbbbbbbbbbbb",
"bbbbbbbbbbbbbbbbbbbbbbbbbbbbbbbbbbbb",
"bbbbbbbbbbbbbbbbbbbbbbbbbbbbbbbbbbbb",
"<<<<<<<<<<<<<<<<<<<<<<<<<<<<<<<<<<<<",
"<<<<<<<<<<<<<<<<<<<<<<<<<<<<<<<<<<<<",
"<<<<<<<<<<<<<<<<<<<<<<<<<<<<<<<<<<<<",
"<<<<<<<<<<<<<<<<<<<<<<<<<<<<<<<<<<<<",
"<<<<<<<<<<<<<<<<<<<<<<<<<<<<<<<<<<<<",
"<<<<<<<<<<<<<<<<<<<<<<<<<<<<<<<<<<<<",
"<<<<<<<<<<<<<<<<<<<<<<<<<<<<<<<<<<<<",
"<<<<<<<<<<<<<<<<<<<<<<<<<<<<<<<<<<<<",
"<<<<<<<<<<<<<<<<<<<<<<<<<<<<<<<<<<<<",
"<<<<<<<<<<<<<<<<<<<<<<<<<<<<<<<<<<<<",
"<<<<<<<<<<<<<<<<<,:<<<<<,;<<<<<<<<<<",
"<<<<<<<<<<<<<<<<*qy*<<<&wu$<<<<<<<<<",
"<<<<<<<<<<<<<<<=9vvz#>%7vvh#<<<<<<<<",
"<<<<<<<<<<<<<<<6vvvvlX9vvvvd-<<<<<<<",
"<<<<<<<<<<<<<<<3vvvvvxvvvvva-<<<<<<<",
"<<<<<<<<<<<<<<<=9vvvvvvvvvf$<<<<<<<<",
"<<<<<<<<<<<<<<<<&7vvvvvvvs@<<<<<<<<<",
"<<<<<<<<<<<<<<<<<otvvvvvc ;<<<<<<<<<",
"<<<<<<<<<<<<<<<<%0vvvvvvvhO<<<<<<<<<",
"<<<<<<<<<<<<<<<&8vvvvvvvvvh+<<<<<<<<",
"<<<<<<<<<<<<<<<7vvvvvkvvvvvj-<<<<<<<",
"<<<<<<<<<<<<<<<4vvvvd.1vvvvp-<<<<<<<",
"<<<<<<<<<<<<<<<=3vvg@<&2vvi@<<<<<<<<",
"<<<<<<<<<<<<<<<<*6r&<<<*5e$<<<<<<<<<",
"<<<<<<<<<<<<<<<<<<><<<<<<><<<<<<<<<<",
"<<<<<<<<<<<<<<<<<<<<<<<<<<<<<<<<<<<<",
"<<<<<<<<<<<<<<<<<<<<<<<<<<<<<<<<<<<<",
"<<<<<<<<<<<<<<<<<<<<<<<<<<<<<<<<<<<<",
"<<<<<<<<<<<<<<<<<<<<<<<<<<<<<<<<<<<<",
"<<<<<<<<<<<<<<<<<<<<<<<<<<<<<<<<<<<<",
"<<<<<<<<<<<<<<<<<<<<<<<<<<<<<<<<<<<<",
"<<<<<<<<<<<<<<<<<<<<<<<<<<<<<<<<<<<<"
};
