/* XPM */
static char *close_toggled_inactive[] = {
/* columns rows colors chars-per-pixel */
"36 36 33 1 ",
"  c #879F879F879F",
". c #88CF88CF88CF",
"X c #894A894A894A",
"o c #8AAF8AAF8AAF",
"O c #8B8A8B8A8B8A",
"+ c #8CD48CD48CD4",
"@ c #8D5A8D5A8D5A",
"# c #8E9F8E9F8E9F",
"$ c #8F5F8F5F8F5F",
"% c #907A907A907A",
"& c #916C916C916C",
"* c #927992799279",
"= c #934A934A934A",
"- c #96BF96BF96BF",
"; c #9D9F9D9F9D9F",
": c #9EDF9EDF9EDF",
"> c #A0DFA0DFA0DF",
", c #A1BFA1BFA1BF",
"< c #A41FA41FA41F",
"1 c #A43FA43FA43F",
"2 c #A7BFA7BFA7BF",
"3 c #A93FA93FA93F",
"4 c #ACBFACBFACBF",
"5 c #AF5FAF5FAF5F",
"6 c #B1AAB1AAB1AA",
"7 c #B55FB55FB55F",
"8 c #C2AFC2AFC2AF",
"9 c #C4DFC4DFC4DF",
"0 c #C5BFC5BFC5BF",
"q c #C90FC90FC90F",
"w c #CBEFCBEFCBEF",
"e c white",
"r c None",
/* pixels */
"rrrrrrrrrrrrrrrrrrrrrrrrrrrrrrrrrrrr",
"rrrrrrrrrrrrrrrrrrrrrrrrrrrrrrrrrrrr",
"rrrrrrrrrrrrrrrrrrrrrrrrrrrrrrrrrrrr",
"rrrrrrrrrrrrrrrrrrrrrrrrrrrrrrrrrrrr",
"------------------------------------",
"------------------------------------",
"------------------------------------",
"------------------------------------",
"------------------------------------",
"------------------------------------",
"------------------------------------",
"-------------$o@----$.#-------------",
"------------+3ew --O6e8X------------",
"-----------&4eeeq X6eee8#-----------",
"-----------Oeeeee94eeeee.-----------",
"-----------**eeeeeeeeee<%-----------",
"------------%&eeeeeeee<@------------",
"-------------#Oeeeeee:O-------------",
"-------------o5eeeeee0 -------------",
"------------O6eeeeeeeeq ------------",
"-----------%7eeeeeeeeeew@-----------",
"-----------Oeeeee,+eeeeeX-----------",
"-----------*&eee1+$&eee;%-----------",
"------------%*e2@--%=e>#------------",
"-------------=@&----=@*-------------",
"------------------------------------",
"------------------------------------",
"------------------------------------",
"------------------------------------",
"------------------------------------",
"------------------------------------",
"------------------------------------",
"------------------------------------",
"------------------------------------",
"------------------------------------",
"------------------------------------"
};
