/* XPM */
static char *hide_prelight[] = {
/* columns rows colors chars-per-pixel */
"32 32 35 1 ",
"  c #959F7310AA9F",
". c #961F73C0AB0F",
"X c #96FF7510ABBF",
"o c #972F7560ABEF",
"O c #97BF7630AC5F",
"+ c #988F7750ACFF",
"@ c #9B5F7B60AF5F",
"# c #9D7F7E90B0FF",
"$ c #9F5F811FB27F",
"% c #A05F829FB35F",
"& c #A20B830BB5AA",
"* c #A21F84DFB4DF",
"= c #A27F859FB51F",
"- c #A3BF873FB61F",
"; c #A53F893FB73F",
": c #AC7F92FFBD3F",
"> c #AD1F93DFBDDF",
", c #B19F99BFC17F",
"< c #B25F9ADFC21F",
"1 c #B3DF9CBFC35F",
"2 c #B73FA11FC63F",
"3 c #BDBFA95FCBBF",
"4 c #C97FB7DFD5DF",
"5 c #CB5FBA1FD75F",
"6 c #CF3FBEDFDABF",
"7 c #D25FC29FDD7F",
"8 c #D57FC65FE03F",
"9 c #D76FC8CFE1FF",
"0 c #EFFFE59FF79F",
"q c #F1BFE79FF91F",
"w c #F94FF04FFFEF",
"e c #FA1FF13FFFFF",
"r c #FFFFFA1FFFFF",
"t c white",
"y c None",
/* pixels */
"yyyyyyyyyyyyyyyyyyyyyyyyyyyyyyyy",
"yyyyyyyyyyyyyyyyyyyyyyyyyyyyyyyy",
"yyyyyyyyyyyyyyyyyyyyyyyyyyyyyyyy",
"&&&&&&&&&&&&&&&&&&&&&&&&&&&&&&&&",
"                                ",
"                                ",
"                                ",
"                                ",
"     *tttttttttttttttttttt9     ",
"     .qttttttttttttttttttt;     ",
"      $tttttttttttttttttt4      ",
"       <ttttttttttttttttqX      ",
"        5ttttttttttttttt+       ",
"        owttttttttttttt>        ",
"         %tttttttttttt6         ",
"          ,tttttttttt0.         ",
"           9ttttttttt#          ",
"           owttttttt:           ",
"            =tttttt7            ",
"             2tttteO            ",
"              8ttt@             ",
"              +rt1              ",
"               -3               ",
"                                ",
"                                ",
"                                ",
"                                ",
"                                ",
"                                ",
"                                ",
"                                ",
"                                "
};
