/* XPM */
static char *hide_pressed[] = {
/* columns rows colors chars-per-pixel */
"36 36 35 1 ",
"  c #6D406D406D40",
". c #737873787378",
"X c #757E757E757E",
"o c #768076807680",
"O c #777077707770",
"+ c #788D788D788D",
"@ c #799079907990",
"# c #7B407B407B40",
"$ c #7CA37CA37CA3",
"% c #7D937D937D93",
"& c #80AA80AA80AA",
"* c #819F819F819F",
"= c #85DF85DF85DF",
"- c #887F887F887F",
"; c #99AF99AF99AF",
": c #9A5F9A5F9A5F",
"> c #9D5F9D5F9D5F",
", c #A17FA17FA17F",
"< c #A87FA87FA87F",
"1 c #B99FB99FB99F",
"2 c #C01FC01FC01F",
"3 c #C29FC29FC29F",
"4 c #C4BFC4BFC4BF",
"5 c #C61FC61FC61F",
"6 c #D61FD61FD61F",
"7 c #D9DFD9DFD9DF",
"8 c #E29FE29FE29F",
"9 c #E97FE97FE97F",
"0 c #ECAAECAAECAA",
"q c #EE5FEE5FEE5F",
"w c #EF0FEF0FEF0F",
"e c #EFBFEFBFEFBF",
"r c #F4DFF4DFF4DF",
"t c white",
"y c None",
/* pixels */
"yyyyyyyyyyyyyyyyyyyyyyyyyyyyyyyyyyyy",
"yyyyyyyyyyyyyyyyyyyyyyyyyyyyyyyyyyyy",
"yyyyyyyyyyyyyyyyyyyyyyyyyyyyyyyyyyyy",
"yyyyyyyyyyyyyyyyyyyyyyyyyyyyyyyyyyyy",
"************************************",
"************************************",
"************************************",
"************************************",
"************************************",
"************************************",
"************************************",
"************************************",
"************************************",
"************************************",
"*************%+XXXXXXXXXXXXXo#******",
"************&<ew000000000000e7-*****",
"************&;tttttttttttttttw%*****",
"*************O1tttttttttttttt=$*****",
"**************O8tttttttttttt,+******",
"**************%*ttttttttttt5X*******",
"***************@:tttttttttqo********",
"****************o2tttttttt*$********",
"*****************o9tttttt>+*********",
"*****************$&ttttt4.**********",
"******************+;tttr ***********",
"*******************.3tt%$***********",
"********************+6<+************",
"*********************$%*************",
"************************************",
"************************************",
"************************************",
"************************************",
"************************************",
"************************************",
"************************************",
"************************************"
};
