/* XPM */
static char *hide_toggled_pressed[] = {
/* columns rows colors chars-per-pixel */
"32 32 45 1 ",
"  c #95A07311AAA0",
". c #962773C0AB0F",
"X c #96DF74B2ABBF",
"o c #973F7558ABEF",
"O c #979F75D0AC3F",
"+ c #98FF77F0AD7F",
"@ c #99AF7908ADEF",
"# c #9ACA7A8BAED4",
"$ c #9B3F7AABAF7F",
"% c #9C3F7C80B01F",
"& c #9CFF7DB0B09F",
"* c #9E5F7FB0B1BF",
"= c #A3608508B6B1",
"- c #A3DF873FB63F",
"; c #A43F87DFB67F",
": c #A4B486C9B7DB",
"> c #A6FF8B9FB8BF",
", c #A89F8DBFBA1F",
"< c #AA5F8FFFBB7F",
"1 c #A9D08D5BBC4B",
"2 c #ABBF91FFBC9F",
"3 c #AEFF963FBF5F",
"4 c #B4BF9DBFC41F",
"5 c #B6BFA05FC5DF",
"6 c #B99FA3FFC85F",
"7 c #BDDFA95FCBFF",
"8 c #C56FB2CFD25F",
"9 c #CDBFBCFFD99F",
"0 c #D61FC6FFE0DF",
"q c #D65FC75FE0FF",
"w c #D78FC8CFE21F",
"e c #DE7FD0FFE83F",
"r c #DFBFD26FE93F",
"t c #E01FD2FFE99F",
"y c #E6FFDAFFEF9F",
"u c #ED3FE23FF51F",
"i c #F0FFE6BDF89C",
"p c #F41FEA5FFB5F",
"a c #F51FEB5FFC3F",
"s c #FB1FF25FFFFF",
"d c #FD5FF4DFFFFF",
"f c #FFFFF8BFFFFF",
"g c #FFFFFCDFFFFF",
"h c white",
"j c None",
/* pixels */
"jjjjjjjjjjjjjjjjjjjjjjjjjjjjjjjj",
"jjjjjjjjjjjjjjjjjjjjjjjjjjjjjjjj",
"jjjjjjjjjjjjjjjjjjjjjjjjjjjjjjjj",
"111:============================",
"$$$X                            ",
"$$$X                            ",
"$$$X                            ",
"$$$X                            ",
"$$$X                            ",
"$$$X                            ",
"$$$X                            ",
"$$$X    %tiiiiiiiiiiiiiiiiiii0+ ",
"$$$X    Ouhhhhhhhhhhhhhhhhhhhw. ",
"$$$X     ;hhhhhhhhhhhhhhhhhhd#  ",
"$$$X      4hhhhhhhhhhhhhhhhh<   ",
"$$$X       9hhhhhhhhhhhhhhh7    ",
"$$$X       @ahhhhhhhhhhhhhro    ",
"$$$X        -hhhhhhhhhhhhf#     ",
"$$$X         5hhhhhhhhhhh2      ",
"$$$X         .qhhhhhhhhh8.      ",
"$$$X          @phhhhhhhrX       ",
"$$$X           >hhhhhhg&        ",
"$$$X            6hhhhh3         ",
"$$$X            .whhh8.         ",
"$$$X             #shyo          ",
"$$$X              ,e*           ",
"$$$X               .            ",
"$$$X                            ",
"$$$X                            ",
"$$$X                            ",
"$$$X                            ",
"$$$X                            "
};
