/* XPM */
static char *hide_toggled_active[] = {
/* columns rows colors chars-per-pixel */
"32 32 59 1 ",
"  c #7C654B609607",
". c #7EE050A097BF",
"X c #7F20512597F4",
"o c #7FD85290986F",
"O c #8030533898AF",
"+ c #80EF5498992F",
"@ c #82DF58609A9F",
"# c #847F5B409BBF",
"$ c #85BF5D809C9F",
"% c #867F5EE09D3F",
"& c #87EF61489E5F",
"* c #88DF63009EFF",
"= c #89DF64C09F9F",
"- c #8F1F6D60A39F",
"; c #8F9F6E30A3DF",
": c #92DF7340A65F",
"> c #935F7430A6BF",
", c #947F75D0A77F",
"< c #96DF7990A95F",
"1 c #9B9F809FAD1F",
"2 c #A43F8CFFB39F",
"3 c #A57F8EBFB4BF",
"4 c #A85F92BFB6DF",
"5 c #AABF95FFB8BF",
"6 c #AD1F991FBABF",
"7 c #AE7F9AFFBBBF",
"8 c #AE9F9B1FBBFF",
"9 c #C0BFB2FFCA7F",
"0 c #C1FFB49FCB8F",
"q c #C7AFBBCFD02F",
"w c #C83FBC7FD09F",
"e c #CDFFC3BFD57F",
"r c #D45FCB9FDABF",
"t c #D8DFD11FDE7F",
"y c #D93DD19CDEDD",
"u c #DB9FD45FE0DF",
"i c #DE1FD77FE2DF",
"p c #DEFFD87FE39F",
"a c #DFBFD95FE43F",
"s c #E0DFDADFE55F",
"d c #EDBFEA5FF03F",
"f c #EEBFEB7FF11F",
"g c #F03FED5FF27F",
"h c #F03FED7FF27F",
"j c #F0BFEDFFF2DF",
"k c #F13FEE9FF33F",
"l c #F51FF31FF69F",
"z c #F77FF5FFF89F",
"x c #F91FF7FFFA1F",
"c c #F9BFF89FFA9F",
"v c #FAFFFA1FFBBF",
"b c #FBFFFB3FFC7F",
"n c #FD3FFC9FFD7F",
"m c #FDFFFD9FFE3F",
"M c #FE5FFE1FFE9F",
"N c #FE9FFE3FFEBF",
"B c #FEEFFEAFFF0F",
"V c #FFFDFFFDFFFD",
"C c None",
/* pixels */
"CCCCCCCCCCCCCCCCCCCCCCCCCCCCCCCC",
"CCCCCCCCCCCCCCCCCCCCCCCCCCCCCCCC",
"CCCCCCCCCCCCCCCCCCCCCCCCCCCCCCCC",
"                                ",
"................................",
"................................",
"................................",
"................................",
".....&ryyyyyyyyyyyyyyyyyyy8.....",
".....X0MVVVVVVVVVVVVVVVVVd=.....",
"......$uVVVVVVVVVVVVVVVVz2......",
".......>kVVVVVVVVVVVVVVm0o......",
"........3vVVVVVVVVVVVVVt+.......",
"........oqNVVVVVVVVVVVf;........",
".........%aVVVVVVVVVVc4.........",
"..........:hVVVVVVVVm9X.........",
"...........7nVVVVVVVp#..........",
"...........OqNVVVVVg-...........",
"............&sVVVVx5............",
".............<lVVBwO............",
"..............6bVi@.............",
"..............+ej,..............",
"...............*1...............",
"................................",
"................................",
"................................",
"................................",
"................................",
"................................",
"................................",
"................................",
"................................"
};
