/* XPM */
static char *hide_prelight[] = {
/* columns rows colors chars-per-pixel */
"36 36 54 1 ",
"  c black",
". c #161816181618",
"X c #180018001800",
"o c #199019901990",
"O c #1B1C1B1C1B1C",
"+ c #1E3C1E3C1E3C",
"@ c #1FEC1FEC1FEC",
"# c #235023502350",
"$ c #266826682668",
"% c #280828082808",
"& c #28E028E028E0",
"* c #307030703070",
"= c #312431243124",
"- c #345C345C345C",
"; c #36A036A036A0",
": c #377237723772",
"> c #37D837D837D8",
", c #390039003900",
"< c #3C183C183C18",
"1 c #406040604060",
"2 c #457045704570",
"3 c #488048804880",
"4 c #4A904A904A90",
"5 c #516051605160",
"6 c #5E505E505E50",
"7 c #646064606460",
"8 c #65F065F065F0",
"9 c #6D106D106D10",
"0 c #769076907690",
"q c #87FF87FF87FF",
"w c #91BF91BF91BF",
"e c #9D7F9D7F9D7F",
"r c #9E3F9E3F9E3F",
"t c #A19FA19FA19F",
"y c #A5DFA5DFA5DF",
"u c #BA9FBA9FBA9F",
"i c #BBFFBBFFBBFF",
"p c #C9BFC9BFC9BF",
"a c #CADFCADFCADF",
"s c #CEDFCEDFCEDF",
"d c #D95FD95FD95F",
"f c #DD1FDD1FDD1F",
"g c #DE7FDE7FDE7F",
"h c #E9BFE9BFE9BF",
"j c #EB9FEB9FEB9F",
"k c #F3DFF3DFF3DF",
"l c #F57FF57FF57F",
"z c #F69FF69FF69F",
"x c #FA1FFA1FFA1F",
"c c #FBBFFBBFFBBF",
"v c #FCBFFCBFFCBF",
"b c #FF5FFF5FFF5F",
"n c #FFFCFFFCFFFC",
"m c None",
/* pixels */
"mmmmmmmmmmmmmmmmmmmmmmmmmmmmmmmmmmmm",
"mmmmmmmmmmmmmmmmmmmmmmmmmmmmmmmmmmmm",
"mmmmmmmmmmmmmmmmmmmmmmmmmmmmmmmmmmmm",
"mmmmmmmmmmmmmmmmmmmmmmmmmmmmmmmmmmmm",
";;;;;;;;;;;;;;;;;;;;;;;;;;;;;;;;;;;;",
";;;;;;;;;;;;;;;;;;;;;;;;;;;;;;;;;;;;",
";;;;;;;;;;;;;;;;;;;;;;;;;;;;;;;;;;;;",
";;;;;;;;;;;;;;;;;;;;;;;;;;;;;;;;;;;;",
";;;;;;;;;;;;;;;;;;;;;;;;;;;;;;;;;;;;",
";;;;;;;;;;;;;;;;;;;;;;;;;;;;;;;;;;;;",
";;;;;;;;;;;;;;;;;;;;;;;;;;;;;;;;;;;;",
";;;;;;;;;>4<::::::::::::,21;;;;;;;;;",
";;;;;;;;;odnnbbbbbbbbbbbnx7;;;;;;;;;",
";;;;;;;;;&5lnnnnnnnnnnnnne ;;;;;;;;;",
";;;;;;;;;; qnnnnnnnnnnnnp ;;;;;;;;;;",
";;;;;;;;;;; unnnnnnnnnnj#*;;;;;;;;;;",
";;;;;;;;;;;-Ofnnnnnnnnc9X;;;;;;;;;;;",
";;;;;;;;;;;;@6knnnnnnnt ;;;;;;;;;;;;",
";;;;;;;;;;;;; wnnnnnna.;;;;;;;;;;;;;",
";;;;;;;;;;;;;; innnnh3%;;;;;;;;;;;;;",
";;;;;;;;;;;;;;=:gnnv0.;;;;;;;;;;;;;;",
";;;;;;;;;;;;;;;+8zny ;;;;;;;;;;;;;;;",
";;;;;;;;;;;;;;;; rs$;;;;;;;;;;;;;;;;",
";;;;;;;;;;;;;;;;;&-=;;;;;;;;;;;;;;;;",
";;;;;;;;;;;;;;;;;;;;;;;;;;;;;;;;;;;;",
";;;;;;;;;;;;;;;;;;;;;;;;;;;;;;;;;;;;",
";;;;;;;;;;;;;;;;;;;;;;;;;;;;;;;;;;;;",
";;;;;;;;;;;;;;;;;;;;;;;;;;;;;;;;;;;;",
";;;;;;;;;;;;;;;;;;;;;;;;;;;;;;;;;;;;",
";;;;;;;;;;;;;;;;;;;;;;;;;;;;;;;;;;;;",
";;;;;;;;;;;;;;;;;;;;;;;;;;;;;;;;;;;;",
";;;;;;;;;;;;;;;;;;;;;;;;;;;;;;;;;;;;",
";;;;;;;;;;;;;;;;;;;;;;;;;;;;;;;;;;;;",
";;;;;;;;;;;;;;;;;;;;;;;;;;;;;;;;;;;;",
";;;;;;;;;;;;;;;;;;;;;;;;;;;;;;;;;;;;",
";;;;;;;;;;;;;;;;;;;;;;;;;;;;;;;;;;;;"
};
