/* XPM */
static char *hide_toggled_inactive[] = {
/* columns rows colors chars-per-pixel */
"36 36 36 1 ",
"  c #80DF80DF80DF",
". c #81FF81FF81FF",
"X c #86FF86FF86FF",
"o c #877F877F877F",
"O c #88FF88FF88FF",
"+ c #899F899F899F",
"@ c #8A1F8A1F8A1F",
"# c #8C678C678C67",
"$ c #8D7F8D7F8D7F",
"% c #8E5F8E5F8E5F",
"& c #8F3F8F3F8F3F",
"* c #904A904A904A",
"= c #918791879187",
"- c #929F929F929F",
"; c #948A948A948A",
": c #959F959F959F",
"> c #96BE96BE96BE",
", c #976A976A976A",
"< c #995F995F995F",
"1 c #9A9F9A9F9A9F",
"2 c #9EBF9EBF9EBF",
"3 c #A07FA07FA07F",
"4 c #A1DFA1DFA1DF",
"5 c #A63FA63FA63F",
"6 c #AF9FAF9FAF9F",
"7 c #B45FB45FB45F",
"8 c #B57FB57FB57F",
"9 c #BB5FBB5FBB5F",
"0 c #C39FC39FC39F",
"q c #D37FD37FD37F",
"w c #DCFFDCFFDCFF",
"e c #E8EFE8EFE8EF",
"r c #ECBFECBFECBF",
"t c #F0FFF0FFF0FF",
"y c white",
"u c None",
/* pixels */
"uuuuuuuuuuuuuuuuuuuuuuuuuuuuuuuuuuuu",
"uuuuuuuuuuuuuuuuuuuuuuuuuuuuuuuuuuuu",
"uuuuuuuuuuuuuuuuuuuuuuuuuuuuuuuuuuuu",
"uuuuuuuuuuuuuuuuuuuuuuuuuuuuuuuuuuuu",
">>>>>>>>>>>>>>>>>>>>>>>>>>>>>>>>>>>>",
">>>>>>>>>>>>>>>>>>>>>>>>>>>>>>>>>>>>",
">>>>>>>>>>>>>>>>>>>>>>>>>>>>>>>>>>>>",
">>>>>>>>>>>>>>>>>>>>>>>>>>>>>>>>>>>>",
">>>>>>>>>>>>>>>>>>>>>>>>>>>>>>>>>>>>",
">>>>>>>>>>>>>>>>>>>>>>>>>>>>>>>>>>>>",
">>>>>>>>>>>>>>>>>>>>>>>>>>>>>>>>>>>>",
">>>>>>>>>;4<,>>>>>>>>>>>,21>>>>>>>>>",
">>>>>>>>>#yyyyyyyyyyyyyyyy7>>>>>>>>>",
">>>>>>>>>*5yyyyyyyyyyyyyyeo>>>>>>>>>",
">>>>>>>>>>Oqyyyyyyyyyyyyy.>>>>>>>>>>",
">>>>>>>>>>> yyyyyyyyyyyy&=>>>>>>>>>>",
">>>>>>>>>>>-$yyyyyyyyyy9#>>>>>>>>>>>",
">>>>>>>>>>>>%6yyyyyyyyrX>>>>>>>>>>>>",
">>>>>>>>>>>>>+wyyyyyyy#;>>>>>>>>>>>>",
">>>>>>>>>>>>>>@yyyyyy3*>>>>>>>>>>>>>",
">>>>>>>>>>>>>>=,yyyy0#>>>>>>>>>>>>>>",
">>>>>>>>>>>>>>>$8yyt+>>>>>>>>>>>>>>>",
">>>>>>>>>>>>>>>>+ey*;>>>>>>>>>>>>>>>",
">>>>>>>>>>>>>>>>>=:=>>>>>>>>>>>>>>>>",
">>>>>>>>>>>>>>>>>>>>>>>>>>>>>>>>>>>>",
">>>>>>>>>>>>>>>>>>>>>>>>>>>>>>>>>>>>",
">>>>>>>>>>>>>>>>>>>>>>>>>>>>>>>>>>>>",
">>>>>>>>>>>>>>>>>>>>>>>>>>>>>>>>>>>>",
">>>>>>>>>>>>>>>>>>>>>>>>>>>>>>>>>>>>",
">>>>>>>>>>>>>>>>>>>>>>>>>>>>>>>>>>>>",
">>>>>>>>>>>>>>>>>>>>>>>>>>>>>>>>>>>>",
">>>>>>>>>>>>>>>>>>>>>>>>>>>>>>>>>>>>",
">>>>>>>>>>>>>>>>>>>>>>>>>>>>>>>>>>>>",
">>>>>>>>>>>>>>>>>>>>>>>>>>>>>>>>>>>>",
">>>>>>>>>>>>>>>>>>>>>>>>>>>>>>>>>>>>",
">>>>>>>>>>>>>>>>>>>>>>>>>>>>>>>>>>>>"
};
