/* XPM */
static char *maximize_inactive[] = {
/* columns rows colors chars-per-pixel */
"36 36 43 1 ",
"  c #78E078E078E0",
". c #7AE07AE07AE0",
"X c #7DEE7DEE7DEE",
"o c #7E287E287E28",
"O c #7FCA7FCA7FCA",
"+ c #806080608060",
"@ c #81B581B581B5",
"# c #833F833F833F",
"$ c #867F867F867F",
"% c #875487548754",
"& c #895B895B895B",
"* c #8A5F8A5F8A5F",
"= c #8BFF8BFF8BFF",
"- c #8CCF8CCF8CCF",
"; c #8EDF8EDF8EDF",
": c #8F1F8F1F8F1F",
"> c #903F903F903F",
", c #911F911F911F",
"< c #929992999299",
"1 c #933F933F933F",
"2 c #94E494E494E4",
"3 c #957495749574",
"4 c #96BF96BF96BF",
"5 c #98DF98DF98DF",
"6 c #9FDF9FDF9FDF",
"7 c #A0BFA0BFA0BF",
"8 c #A19FA19FA19F",
"9 c #A35FA35FA35F",
"0 c #A5FFA5FFA5FF",
"q c #A63FA63FA63F",
"w c #C77FC77FC77F",
"e c #CA1FCA1FCA1F",
"r c #CCFFCCFFCCFF",
"t c #CDFFCDFFCDFF",
"y c #DC7FDC7FDC7F",
"u c #F07FF07FF07F",
"i c #F63FF63FF63F",
"p c #F6B6F6B6F6B6",
"a c #F7BFF7BFF7BF",
"s c #F95FF95FF95F",
"d c #F9DFF9DFF9DF",
"f c white",
"g c None",
/* pixels */
"gggggggggggggggggggggggggggggggggggg",
"gggggggggggggggggggggggggggggggggggg",
"gggggggggggggggggggggggggggggggggggg",
"gggggggggggggggggggggggggggggggggggg",
"444444444444444444444444444444444444",
"444444444444444444444444444444444444",
"444444444444444444444444444444444444",
"444444444444444444444444444444444444",
"444444444444444444444444444444444444",
"444444444444444444444444444444444444",
"444444444444444444444444444444444444",
"44444444443%++OOOOOOOOO+@>4444444444",
"4444444444$ffffffffffffff8<444444444",
"44444444445ffffffffffffffd*444444444",
"44444444438fffffffffffffff$444444444",
"44444444427fa @@@@@@@@.rff$444444444",
"44444444427fw-44444444,9ff$444444444",
"44444444427fe:444444441qff$444444444",
"44444444427fe:444444441qff$444444444",
"44444444427fe:444444441qff$444444444",
"44444444427fe;4444444410ff$444444444",
"44444444438fto&&&&&&&&#6ff%444444444",
"4444444444<ffsipppppppaffu=444444444",
"4444444444*yfffffffffffff<2444444444",
"44444444444-@oXXXXXXXXXO%<4444444444",
"444444444444444444444444444444444444",
"444444444444444444444444444444444444",
"444444444444444444444444444444444444",
"444444444444444444444444444444444444",
"444444444444444444444444444444444444",
"444444444444444444444444444444444444",
"444444444444444444444444444444444444",
"444444444444444444444444444444444444",
"444444444444444444444444444444444444",
"444444444444444444444444444444444444",
"444444444444444444444444444444444444"
};
