/* XPM */
static char *maximize_pressed[] = {
/* columns rows colors chars-per-pixel */
"32 32 43 1 ",
"  c #959F7310AA9F",
". c #96DB74AFABB9",
"X c #971F7530ABDF",
"o c #983F76E0ACBF",
"O c #98DF77B0AD3F",
"+ c #9ABF7A80AEBF",
"@ c #9B3F7AABAF7F",
"# c #9C3F7CB0AFFF",
"$ c #9DDF7F10B15F",
"% c #9EDF8060B21F",
"& c #A0DF8359B3BF",
"* c #A3608508B6B1",
"= c #A4B486C9B7DB",
"- c #A6DF8B5FB89F",
"; c #A97F8EFFBADF",
": c #A9D08D5BBC4B",
"> c #AE3F955FBEDF",
", c #B01F97DFC03F",
"< c #B27F9AFFC25F",
"1 c #B77FA15FC67F",
"2 c #BD9FA91FCBBF",
"3 c #C21FAEBFCF7F",
"4 c #CBC4BA87D7E2",
"5 c #CE3FBD7FD9FF",
"6 c #D0FFC0DFDC5F",
"7 c #D51FC5FFDFFF",
"8 c #D5FFC6DFE09F",
"9 c #DB7FCD7FE57F",
"0 c #DC5FCE7FE65F",
"q c #DD9FCFFFE77F",
"w c #E0DFD3DFEA3F",
"e c #E15FD47FEABF",
"r c #E29FD61FEBBF",
"t c #E3DFD75FECBF",
"y c #E51FD8DFEDFF",
"u c #E79FDBDFF03F",
"i c #EC7FE17FF47F",
"p c #EFDFE55FF77F",
"a c #F13FE71FF8BF",
"s c #F47FEABFFBBF",
"d c #FFFFFADFFFFF",
"f c white",
"g c None",
/* pixels */
"gggggggggggggggggggggggggggggggg",
"gggggggggggggggggggggggggggggggg",
"gggggggggggggggggggggggggggggggg",
":::=****************************",
"@@@.                            ",
"@@@.                            ",
"@@@.                            ",
"@@@.                            ",
"@@@.                            ",
"@@@.                            ",
"@@@.                            ",
"@@@.      O30qqqqqqqqqqqqq92o   ",
"@@@.     .wfffffffffffffffff7   ",
"@@@.     $fffffffffffffffffff.  ",
"@@@.     &fffffffffffffffffffX  ",
"@@@.     &ffd5444444444448fffX  ",
"@@@.     &ff>             uffX  ",
"@@@.     &ff-             rffX  ",
"@@@.     &ff-             rffX  ",
"@@@.     &ff-             rffX  ",
"@@@.     &ff-             rffX  ",
"@@@.     &ff-             rffX  ",
"@@@.     &ff-             rffX  ",
"@@@.     &ff;             tffX  ",
"@@@.     %ffy<,,,,,,,,,,,1fff.  ",
"@@@.     Xifffffffffffffffffe   ",
"@@@.      #6asssssssssssssp4+   ",
"@@@.                            ",
"@@@.                            ",
"@@@.                            ",
"@@@.                            ",
"@@@.                            "
};
