/* XPM */
static char *maximize_toggled_pressed[] = {
/* columns rows colors chars-per-pixel */
"36 36 44 1 ",
"  c #689068906890",
". c #6C606C606C60",
"X c #701070107010",
"o c #717071707170",
"O c #73CE73CE73CE",
"+ c #749474947494",
"@ c #757075707570",
"# c #765B765B765B",
"$ c #772877287728",
"% c #797879787978",
"& c #7A1E7A1E7A1E",
"* c #7BB37BB37BB3",
"= c #7C947C947C94",
"- c #7D307D307D30",
"; c #806B806B806B",
": c #819F819F819F",
"> c #869F869F869F",
", c #887F887F887F",
"< c #899F899F899F",
"1 c #8CFF8CFF8CFF",
"2 c #90DF90DF90DF",
"3 c #915F915F915F",
"4 c #9B3F9B3F9B3F",
"5 c #9DDF9DDF9DDF",
"6 c #A6DFA6DFA6DF",
"7 c #B0DFB0DFB0DF",
"8 c #B191B191B191",
"9 c #B61FB61FB61F",
"0 c #BBBFBBBFBBBF",
"q c #C6DFC6DFC6DF",
"w c #D2BFD2BFD2BF",
"e c #D7BFD7BFD7BF",
"r c #DC3FDC3FDC3F",
"t c #DC97DC97DC97",
"y c #DF3FDF3FDF3F",
"u c #DFBFDFBFDFBF",
"i c #F0DFF0DFF0DF",
"p c #F2FFF2FFF2FF",
"a c #F39FF39FF39F",
"s c #F4F4F4F4F4F4",
"d c #F609F609F609",
"f c #FB9FFB9FFB9F",
"g c white",
"h c None",
/* pixels */
"hhhhhhhhhhhhhhhhhhhhhhhhhhhhhhhhhhhh",
"hhhhhhhhhhhhhhhhhhhhhhhhhhhhhhhhhhhh",
"hhhhhhhhhhhhhhhhhhhhhhhhhhhhhhhhhhhh",
"hhhhhhhhhhhhhhhhhhhhhhhhhhhhhhhhhhhh",
"::::::::::::::::::::::::::::::::::::",
"::::::::::::::::::::::::::::::::::::",
"::::::::::::::::::::::::::::::::::::",
"::::::::::::::::::::::::::::::::::::",
"::::::::::::::::::::::::::::::::::::",
"::::::::::::::::::::::::::::::::::::",
"::::::::::::::::::::::::::::::::::::",
"::::::::::::::::::::::::::::::::::::",
"::::::::::::::::::::::::::::::::::::",
"::::::::::::::::::::::::::::::::::::",
":::::::::::::::&@+++++++++@$=:::::::",
"::::::::::::::-0ttrrrrrrrrte5&::::::",
":::::::::::::%qgggggggggggggg3;:::::",
":::::::::::::#igggggggggggggg7*:::::",
":::::::::::::+aggadddddddsfgg8&:::::",
":::::::::::::+ag1.oooooooX gg8&:::::",
":::::::::::::+sg,;::::::::Ogg8&:::::",
":::::::::::::+dg<:::::::::+gg8&:::::",
":::::::::::::+dg<:::::::::+gg8&:::::",
":::::::::::::+dg<:::::::::+gg8&:::::",
":::::::::::::+sg>=::::::::ogg8&:::::",
":::::::::::::#pg6$*******&*gg7*:::::",
":::::::::::::%qgggggggggggggg2;:::::",
"::::::::::::::=9tuuuuuuuuuyw4&::::::",
":::::::::::::::&@OOOOOOOOO+$-:::::::",
"::::::::::::::::::::::::::::::::::::",
"::::::::::::::::::::::::::::::::::::",
"::::::::::::::::::::::::::::::::::::",
"::::::::::::::::::::::::::::::::::::",
"::::::::::::::::::::::::::::::::::::",
"::::::::::::::::::::::::::::::::::::",
"::::::::::::::::::::::::::::::::::::"
};
