/* XPM */
static char *maximize_inactive[] = {
/* columns rows colors chars-per-pixel */
"32 32 45 1 ",
"  c #857F8041893F",
". c #86BF819F8A5F",
"X c #877F827F8B3F",
"o c #8BBF86FF8F3F",
"O c #8CDF87FF905F",
"+ c #8D3F888F90CF",
"@ c #8FBF8B3F931F",
"# c #926A8DC795DB",
"$ c #93FF8FBF973F",
"% c #9AAF96AF9D9F",
"& c #9C5F987F9F5F",
"* c #A73FA3DFA9BF",
"= c #A77FA43FA9FF",
"- c #A7DFA49FAA5F",
"; c #A87FA55FAAFF",
": c #A91FA5BFAB9F",
"> c #AB3FA7FFAD9F",
", c #AF1FAC1FB17F",
"< c #AFFFACFFB23F",
"1 c #B35FB09FB55F",
"2 c #BFDFBD9FC19F",
"3 c #C4DFC2BFC65F",
"4 c #C7FFC5DFC97F",
"5 c #CABFC8BFCC3F",
"6 c #CD9FCBDFCEFF",
"7 c #D1FFD05FD33F",
"8 c #D21FD05FD35F",
"9 c #D29FD0FFD3DF",
"0 c #D4FFD37FD63F",
"q c #D53FD3BFD67F",
"w c #D87FD71FD97F",
"e c #D8FFD7BFD9FF",
"r c #D9DFD87FDADF",
"t c #E19FE05FE27F",
"y c #E87FE77FE93F",
"u c #EABFE9BFEB7F",
"i c #EC9FEBBFED3F",
"p c #F4FFF47FF57F",
"a c #F77FF6FFF7FF",
"s c #F83FF7BFF89F",
"d c #FA1FF99FFA7F",
"f c #FAFFFA7FFB3F",
"g c #FB7FFB1CFBDF",
"h c white",
"j c None",
/* pixels */
"jjjjjjjjjjjjjjjjjjjjjjjjjjjjjjjj",
"jjjjjjjjjjjjjjjjjjjjjjjjjjjjjjjj",
"jjjjjjjjjjjjjjjjjjjjjjjjjjjjjjjj",
"################################",
"                                ",
"                                ",
"                                ",
"                                ",
"       o30qqqqqqqqqqqqq9*       ",
"      Xthhhhhhhhhhhhhhhhh-      ",
"      #dhhhhhhhhhhhhhhhhh6      ",
"      $ghhhhhhhhhhhhhhhhh8      ",
"      $gh>+OOOOOOOOOOO&ph8      ",
"      $gu              eh8      ",
"      $gy              wh8      ",
"      $gy              wh8      ",
"      $gy              wh8      ",
"      $gy              wh8      ",
"      $gy              wh8      ",
"      $gy              wh8      ",
"      $gi              rh7      ",
"      @sh2;===========1fh4      ",
"       5hhhhhhhhhhhhhhhha%      ",
"       .%,<<<<<<<<<<<<<:+       ",
"                                ",
"                                ",
"                                ",
"                                ",
"                                ",
"                                ",
"                                ",
"                                "
};
