/* XPM */
static char *maximize_prelight[] = {
/* columns rows colors chars-per-pixel */
"32 32 36 1 ",
"  c #959F7310AA9F",
". c #966F7438AB4F",
"X c #975F75A0AC1F",
"o c #987F7740ACFF",
"O c #9E5F7FD0B1BF",
"+ c #9FDF819FB2FF",
"@ c #A08F82AFB37F",
"# c #A20B830BB5AA",
"$ c #A3DF877FB61F",
"% c #A73F8BFFB8DF",
"& c #A9BF8F5FBAFF",
"* c #B29F9AFFC25F",
"= c #B31F9B9FC2BF",
"- c #B51F9E5FC47F",
"; c #C3BFB0DFD0DF",
": c #C43FB17FD13F",
"> c #C49FB1DFD19F",
", c #C57FB31FD25F",
"< c #C61FB3DFD2FF",
"1 c #C8DFB71FD53F",
"2 c #CE3FBDBFD9DF",
"3 c #CF3FBEFFDADF",
"4 c #D3DFC47FDEBF",
"5 c #E43FD7FFED3F",
"6 c #EADFDF9FF2FF",
"7 c #EEBFE43FF67F",
"8 c #F27FE85FF9BF",
"9 c #F63FECDFFD1F",
"0 c #FBFFF37FFFFF",
"q c #FC9FF43FFFFF",
"w c #FFFDF81AFFFF",
"e c #FFFFFD1FFFFF",
"r c #FFFFFDDFFFFF",
"t c #FFFFFF1FFFFF",
"y c white",
"u c None",
/* pixels */
"uuuuuuuuuuuuuuuuuuuuuuuuuuuuuuuu",
"uuuuuuuuuuuuuuuuuuuuuuuuuuuuuuuu",
"uuuuuuuuuuuuuuuuuuuuuuuuuuuuuuuu",
"################################",
"                                ",
"                                ",
"                                ",
"                                ",
"       O6wwwwwwwwwwwwwwq;.      ",
"      oyyyyyyyyyyyyyyyyyy>      ",
"      %yyyyyyyyyyyyyyyyyy9      ",
"      &yyyyyyyyyyyyyyyyyy0      ",
"      &yy1@+++++++++++-yy0      ",
"      &yy              ry0      ",
"      &yy              ey0      ",
"      &yy              ey0      ",
"      &yy              ey0      ",
"      &yy              ey0      ",
"      &yy              ey0      ",
"      &yy              ey0      ",
"      &yy              ty0      ",
"      $yy5,:::::::::::4yy7      ",
"      .8yyyyyyyyyyyyyyyyy*      ",
"       X=23333333333333<@       ",
"                                ",
"                                ",
"                                ",
"                                ",
"                                ",
"                                ",
"                                ",
"                                "
};
