/* XPM */
static char *maximize_prelight[] = {
/* columns rows colors chars-per-pixel */
"36 36 44 1 ",
"  c black",
". c #089608960896",
"X c #151C151C151C",
"o c #189C189C189C",
"O c #1A701A701A70",
"+ c #21F021F021F0",
"@ c #22E822E822E8",
"# c #27F027F027F0",
"$ c #2C502C502C50",
"% c #2CC82CC82CC8",
"& c #2E702E702E70",
"* c #337833783378",
"= c #350335033503",
"- c #36A036A036A0",
"; c #3B283B283B28",
": c #479047904790",
"> c #48D048D048D0",
", c #4A304A304A30",
"< c #4D004D004D00",
"1 c #513C513C513C",
"2 c #7AE07AE07AE0",
"3 c #7DC87DC87DC8",
"4 c #80DF80DF80DF",
"5 c #821F821F821F",
"6 c #921F921F921F",
"7 c #A55FA55FA55F",
"8 c #AABFAABFAABF",
"9 c #AC5FAC5FAC5F",
"0 c #AEAFAEAFAEAF",
"q c #B5FFB5FFB5FF",
"w c #B8DBB8DBB8DB",
"e c #C15FC15FC15F",
"r c #DA5FDA5FDA5F",
"t c #DFDFDFDFDFDF",
"y c #E3FFE3FFE3FF",
"u c #E51FE51FE51F",
"i c #E639E639E639",
"p c #EBDFEBDFEBDF",
"a c #F0FFF0FFF0FF",
"s c #F217F217F217",
"d c #FBDFFBDFFBDF",
"f c #FCDFFCDFFCDF",
"g c white",
"h c None",
/* pixels */
"hhhhhhhhhhhhhhhhhhhhhhhhhhhhhhhhhhhh",
"hhhhhhhhhhhhhhhhhhhhhhhhhhhhhhhhhhhh",
"hhhhhhhhhhhhhhhhhhhhhhhhhhhhhhhhhhhh",
"hhhhhhhhhhhhhhhhhhhhhhhhhhhhhhhhhhhh",
"------------------------------------",
"------------------------------------",
"------------------------------------",
"------------------------------------",
"------------------------------------",
"------------------------------------",
"------------------------------------",
"-----------              #----------",
"---------- qfddddddddddfu,*---------",
"----------;gggggggggggggg0.---------",
"----------,ggassssssssadgw ---------",
"---------->g9          4gw ---------",
"---------->g2O--------&<gw ---------",
"---------->g3@--------=1gw ---------",
"---------->g3@--------=1gw ---------",
"---------->g3@--------=1gw ---------",
"---------->g3+--------=1gw ---------",
"----------,g5          :gw ---------",
"----------$gp0888888889rg7X---------",
"---------- 6tiiiiiiiiiuye%----------",
"-----------o             =----------",
"------------------------------------",
"------------------------------------",
"------------------------------------",
"------------------------------------",
"------------------------------------",
"------------------------------------",
"------------------------------------",
"------------------------------------",
"------------------------------------",
"------------------------------------",
"------------------------------------"
};
