/* XPM */
static char *menu_prelight[] = {
/* columns rows colors chars-per-pixel */
"36 36 71 1 ",
"  c black",
". c #041F041F041F",
"X c #0B200B200B20",
"o c #0E3F0E3F0E3F",
"O c #114C114C114C",
"+ c #126412641264",
"@ c #136413641364",
"# c #14CC14CC14CC",
"$ c #175C175C175C",
"% c #18C018C018C0",
"& c #1B301B301B30",
"* c #1D581D581D58",
"= c #234823482348",
"- c #2A502A502A50",
"; c #2C102C102C10",
": c #2D582D582D58",
"> c #303830383038",
", c #30FB30FB30FB",
"< c #340834083408",
"1 c #372037203720",
"2 c #383038303830",
"3 c gray25",
"4 c #40F040F040F0",
"5 c #462046204620",
"6 c #482048204820",
"7 c #4B504B504B50",
"8 c #50D050D050D0",
"9 c #61B061B061B0",
"0 c #86DF86DF86DF",
"q c #879F879F879F",
"w c #883F883F883F",
"e c #8EFF8EFF8EFF",
"r c #937F937F937F",
"t c #95DF95DF95DF",
"y c #98FF98FF98FF",
"u c #A6BFA6BFA6BF",
"i c #A7DFA7DFA7DF",
"p c #AFBFAFBFAFBF",
"a c #B03FB03FB03F",
"s c #B3DFB3DFB3DF",
"d c #B61FB61FB61F",
"f c #B67FB67FB67F",
"g c #B874B874B874",
"h c #BB7FBB7FBB7F",
"j c #BEDFBEDFBEDF",
"k c #BFECBFECBFEC",
"l c #C11FC11FC11F",
"z c #C4DFC4DFC4DF",
"x c #C6DFC6DFC6DF",
"c c #C93FC93FC93F",
"v c #CB86CB86CB86",
"b c #CCDFCCDFCCDF",
"n c #CFDFCFDFCFDF",
"m c #D09FD09FD09F",
"M c #D19FD19FD19F",
"N c #E55FE55FE55F",
"B c #E93FE93FE93F",
"V c #EA1FEA1FEA1F",
"C c #EDB7EDB7EDB7",
"Z c #EF1FEF1FEF1F",
"A c #EFEFEFEFEFEF",
"S c #F1BFF1BFF1BF",
"D c #F3BFF3BFF3BF",
"F c #F4CFF4CFF4CF",
"G c #F5BFF5BFF5BF",
"H c #FA44FA44FA44",
"J c #FC1FFC1FFC1F",
"K c #FE41FE41FE41",
"L c #FEF4FEF4FEF4",
"P c #FFFEFFFEFFFE",
"I c None",
/* pixels */
"IIIIIIIIIIIIIIIIIIIIIIIIIIIIIIIIIIII",
"IIIIIIIIIIIIIIIIIIIIIIIIIIIIIIIIIIII",
"IIIIIIIIIIIIIIIIIIIIIIIIIIIIIIIIIIII",
"IIIIIIIIIIIIIIIIIIIIIIIIIIIIIIIIIIII",
">>>>>>>>>>>>>>>>>>>>>>>>>>>>>>>>>>>>",
">>>>>>>>>>>>>>>>>>>>>>>>>>>>>>>>>>>>",
">>>>>>>>>>>>>>>>>>>>>>>>>>>>>>>>>>>>",
">>>>>>>>>>>>>>>>>>>>>>>>>>>>>>>>>>>>",
">>>>>>>>>>>>>>>>>>>>>>>>>>>>>>>>>>>>",
">>>>>>>>>>>>>>>>>>>>>>>>>>>>>>>>>>>>",
">>>>>>>>>>>>>>>>>>>>>>>>>>>>>>>>>>>>",
">>>>>>>>>%  X:    ;>>    ->>>>>>>>>>",
">>>>>>>>O0iuy qvMa3  rbms5 >>>>>>>>>",
">>>>>>>> mPPZsPPPPB7MPPPPS8=>>>>>>>>",
">>>>>>>> vPKKPFFPKPAPGDPKPz >>>>>>>>",
">>>>>>>> vPKPc&4VPKPm<$NPPS >>>>>>>>",
">>>>>>>> vPKJ6  xPKP9  gPKH >>>>>>>>",
">>>>>>>> vPLZ > lPLA1> dPKH >>>>>>>>",
">>>>>>>> vPPC > kPPC>> fPKH >>>>>>>>",
">>>>>>>> vPPC > kPPC,> fPKH >>>>>>>>",
">>>>>>>> vPPC > kPPC,> fPKH >>>>>>>>",
">>>>>>>> vPPC > kPPC,> fPKH >>>>>>>>",
">>>>>>>> nPPS > zPPS2> gPPKo>>>>>>>>",
">>>>>>>> tjhp >+ejhp,>#wkhg*>>>>>>>>",
">>>>>>>>>.   >>>o   >>>@   >>>>>>>>>",
">>>>>>>>>>>>>>>>>>>>>>>>>>>>>>>>>>>>",
">>>>>>>>>>>>>>>>>>>>>>>>>>>>>>>>>>>>",
">>>>>>>>>>>>>>>>>>>>>>>>>>>>>>>>>>>>",
">>>>>>>>>>>>>>>>>>>>>>>>>>>>>>>>>>>>",
">>>>>>>>>>>>>>>>>>>>>>>>>>>>>>>>>>>>",
">>>>>>>>>>>>>>>>>>>>>>>>>>>>>>>>>>>>",
">>>>>>>>>>>>>>>>>>>>>>>>>>>>>>>>>>>>",
">>>>>>>>>>>>>>>>>>>>>>>>>>>>>>>>>>>>",
">>>>>>>>>>>>>>>>>>>>>>>>>>>>>>>>>>>>",
">>>>>>>>>>>>>>>>>>>>>>>>>>>>>>>>>>>>",
">>>>>>>>>>>>>>>>>>>>>>>>>>>>>>>>>>>>"
};
