/* XPM */
static char *menu_pressed[] = {
/* columns rows colors chars-per-pixel */
"36 36 61 1 ",
"  c #60A060A060A0",
". c #623062306230",
"X c #62F062F062F0",
"o c #685068506850",
"O c #69D069D069D0",
"+ c #6A206A206A20",
"@ c #6C886C886C88",
"# c #6D446D446D44",
"$ c #6E3C6E3C6E3C",
"% c #700070007000",
"& c #717071707170",
"* c #72D072D072D0",
"= c #73D073D073D0",
"- c #745074507450",
"; c #756B756B756B",
": c #775077507750",
"> c #78A378A378A3",
", c #798479847984",
"< c #7A4D7A4D7A4D",
"1 c #7B3B7B3B7B3B",
"2 c #7C987C987C98",
"3 c #7D987D987D98",
"4 c #7E507E507E50",
"5 c #7F807F807F80",
"6 c #827F827F827F",
"7 c #837F837F837F",
"8 c #84BF84BF84BF",
"9 c #853F853F853F",
"0 c #881F881F881F",
"q c #8A7F8A7F8A7F",
"w c #92DF92DF92DF",
"e c #93BF93BF93BF",
"r c #94AF94AF94AF",
"t c #96DF96DF96DF",
"y c #977497749774",
"u c #988F988F988F",
"i c #9A1F9A1F9A1F",
"p c #9DBF9DBF9DBF",
"a c #9E8F9E8F9E8F",
"s c #A11FA11FA11F",
"d c #A59FA59FA59F",
"f c #A81FA81FA81F",
"g c #A83FA83FA83F",
"h c #AAFFAAFFAAFF",
"j c #AC9FAC9FAC9F",
"k c #AE9FAE9FAE9F",
"l c #AF5FAF5FAF5F",
"z c #B31FB31FB31F",
"x c #B73FB73FB73F",
"c c #D29FD29FD29F",
"v c #D7EFD7EFD7EF",
"b c #E7DFE7DFE7DF",
"n c #EE3FEE3FEE3F",
"m c #F04FF04FF04F",
"M c #F19FF19FF19F",
"N c #F5DFF5DFF5DF",
"B c #F7EFF7EFF7EF",
"V c #F8ACF8ACF8AC",
"C c #FAEFFAEFFAEF",
"Z c white",
"A c None",
/* pixels */
"AAAAAAAAAAAAAAAAAAAAAAAAAAAAAAAAAAAA",
"AAAAAAAAAAAAAAAAAAAAAAAAAAAAAAAAAAAA",
"AAAAAAAAAAAAAAAAAAAAAAAAAAAAAAAAAAAA",
"AAAAAAAAAAAAAAAAAAAAAAAAAAAAAAAAAAAA",
"444444444444444444444444444444444444",
"444444444444444444444444444444444444",
"444444444444444444444444444444444444",
"444444444444444444444444444444444444",
"444444444444444444444444444444444444",
"444444444444444444444444444444444444",
"444444444444444444444444444444444444",
"444444444444444444444444444444444444",
"444444444444444444444444444444444444",
"444444444444444444444444444444444444",
"4444444444444444443,144443,144444444",
"444444444444<9681&0au4;>-qay5;444444",
"444444444443eZZZvcZZZZd%bZZZZz=44444",
"44444444444<uZZZZZZZZZZBZZZZZZt>4444",
"44444444444,tZZZZZVZZZZZZBZZZZv&4444",
"44444444444,tZZZZp xZZZZpXsZZZC$4444",
"44444444444,tZZZZ$;uZZZZ.>3ZZZZ$4444",
"44444444444,tZZZm@,rZZZCo43ZZZZ$4444",
"44444444444,tZZZm@<rZZZVO44ZZZZ$4444",
"44444444444,tZZZm#<rZZZV+44ZZZZ$4444",
"44444444444,tZZZm#<rZZZV+44ZZZZ$4444",
"44444444444,yZZZM#<rZZZV+45ZZZZ$4444",
"444444444442iZZZn&2yZZZN$47ZZZZ*4444",
"4444444444443hjkw,43gjlr>4,fjlu>4444",
"4444444444444>::3444>::2444,::244444",
"444444444444444444444444444444444444",
"444444444444444444444444444444444444",
"444444444444444444444444444444444444",
"444444444444444444444444444444444444",
"444444444444444444444444444444444444",
"444444444444444444444444444444444444",
"444444444444444444444444444444444444"
};
