/* XPM */
static char *menu_inactive[] = {
/* columns rows colors chars-per-pixel */
"36 36 47 1 ",
"  c #7A7D7A7D7A7D",
". c #7D687D687D68",
"X c #7E007E007E00",
"o c #7F577F577F57",
"O c #80C080C080C0",
"+ c #818F818F818F",
"@ c #82A282A282A2",
"# c #837483748374",
"$ c #845F845F845F",
"% c #855F855F855F",
"& c #861F861F861F",
"* c #876F876F876F",
"= c #885F885F885F",
"- c #899F899F899F",
"; c #8A848A848A84",
": c #8B928B928B92",
"> c #8C7F8C7F8C7F",
", c #8D948D948D94",
"< c #8EDF8EDF8EDF",
"1 c #8F6F8F6F8F6F",
"2 c #91EF91EF91EF",
"3 c #925F925F925F",
"4 c #93FE93FE93FE",
"5 c #943794379437",
"6 c #957F957F957F",
"7 c #96FF96FF96FF",
"8 c #977F977F977F",
"9 c #9BBF9BBF9BBF",
"0 c #9C1F9C1F9C1F",
"q c #9F1F9F1F9F1F",
"w c #A05FA05FA05F",
"e c #A23FA23FA23F",
"r c #A5DFA5DFA5DF",
"t c #B23FB23FB23F",
"y c #D2CFD2CFD2CF",
"u c #D3DFD3DFD3DF",
"i c #DA3FDA3FDA3F",
"p c #DE9FDE9FDE9F",
"a c #E19FE19FE19F",
"s c #E3FFE3FFE3FF",
"d c #F05FF05FF05F",
"f c #F31FF31FF31F",
"g c #FB3FFB3FFB3F",
"h c #FBBFFBBFFBBF",
"j c #FF5FFF5FFF5F",
"k c white",
"l c None",
/* pixels */
"llllllllllllllllllllllllllllllllllll",
"llllllllllllllllllllllllllllllllllll",
"llllllllllllllllllllllllllllllllllll",
"llllllllllllllllllllllllllllllllllll",
"444444444444444444444444444444444444",
"444444444444444444444444444444444444",
"444444444444444444444444444444444444",
"444444444444444444444444444444444444",
"444444444444444444444444444444444444",
"444444444444444444444444444444444444",
"444444444444444444444444444444444444",
"444444444>**;1;+o&143-Oo%<4444444444",
"44444444:yfds ykkh9$=pkkkq-444444444",
"44444444@kkkkjkkkkkekkkkkkr,44444444",
"44444444okkkkkkkkkkkkkkkkkk@44444444",
"44444444okkkkk,0kkkkk6>kkkko44444444",
"44444444okkkkw;Okkkkt=.kkkk$44444444",
"44444444okkkk.4@kkkk73#kkkk*44444444",
"44444444okkkk 4@kkkk44#kkkk*44444444",
"44444444okkkk 4@kkkk54#kkkk*44444444",
"44444444okkkk 4@kkkk54#kkkk*44444444",
"44444444okkkk 4@kkkk54#kkkk*44444444",
"44444444+kkkkX4$kkkk84%kkkk;44444444",
"44444444;akkg*4:ikkg54:ukkk,44444444",
"444444444;#@=344:$@*244:$@*244444444",
"444444444444444444444444444444444444",
"444444444444444444444444444444444444",
"444444444444444444444444444444444444",
"444444444444444444444444444444444444",
"444444444444444444444444444444444444",
"444444444444444444444444444444444444",
"444444444444444444444444444444444444",
"444444444444444444444444444444444444",
"444444444444444444444444444444444444",
"444444444444444444444444444444444444",
"444444444444444444444444444444444444"
};
