/* XPM */
static char *menu_toggled_active[] = {
/* columns rows colors chars-per-pixel */
"32 32 82 1 ",
"  c #78B34403932E",
". c #7CB04CC095FF",
"X c #7CCB4CE095FF",
"o c #7CD64D06961F",
"O c #7D804E40967F",
"+ c #7E75505B9734",
"@ c #7F68523097DF",
"# c #7FB05220985F",
"$ c #7FD85310982F",
"% c #803B5317989F",
"& c #80B7548098E7",
"* c #80FF54C0993F",
"= c #816555B5996A",
"- c #81BF567899AF",
"; c #821F575099DF",
": c #831F59609A7F",
"> c #837F5A189ABF",
", c #83DF5AD09B1F",
"< c #86FF5FC09D7F",
"1 c #89BF64A09F7F",
"2 c #8BFF6870A11F",
"3 c #8CAF69A8A1AF",
"4 c #8E3F6C10A2CF",
"5 c #8F9F6E70A3DF",
"6 c #90FF7070A4DF",
"7 c #919F71C0A53F",
"8 c #93BF74F0A6DF",
"9 c #977F7A98A9CF",
"0 c #97FF7B40AA1F",
"q c #98CF7CA8AABF",
"w c #A0DF889FB0DF",
"e c #A67F903FB53F",
"r c #AEBF9B7FBBBF",
"t c #B15F9EFFBDFF",
"y c #B31FA15FBF5F",
"u c #B3FFA29FBFFF",
"i c #B4B4A36AC0AA",
"p c #B5BFA49FC19F",
"a c #B69FA5BFC21F",
"s c #B73FA6BFC2DF",
"d c #B8BFA89FC3DF",
"f c #BB4AAC04C604",
"g c #BCDFADFFC75F",
"h c #BEDFB07FC8DF",
"j c #BFA4B184C99F",
"k c #C1BFB45FCB5F",
"l c #CEDFC4DFD63F",
"z c #D29FC97FD93F",
"x c #D47FCBBFDADF",
"c c #D73FCF1FDD1F",
"v c #D91FD17FDEBF",
"b c #DC7FD57FE17F",
"n c #DDBFD71FE29F",
"m c #E3DFDE7FE7DF",
"M c #E5BFE09FE95F",
"N c #EB3FE75FEE1F",
"B c #ECDFE95FEF7F",
"V c #ED1FE99FEFDF",
"C c #EDDFEA9FF05F",
"Z c #EF5FEC3FF19F",
"A c #EF9FEC9FF1DF",
"S c #F0BFEDDFF2BF",
"D c #F1DFEF5FF3DF",
"F c #F2DFF07FF4BF",
"G c #F41FF1FFF5BF",
"H c #F5BFF3BFF71F",
"J c #F65FF47FF79F",
"K c #F71FF57FF83F",
"L c #F784F604F8BF",
"P c #F81FF6BFF93F",
"I c #F89FF73FF99F",
"U c #F9CFF8AFFAA9",
"Y c #FA9FF99FFB5F",
"T c #FAFCFA15FBB5",
"R c #FB5FFA9FFBFF",
"E c #FB94FABFFC1F",
"W c #FC0FFB4FFC9F",
"Q c #FC9FFBFFFD1F",
"! c #FE0FFDCFFE4F",
"~ c #FE54FDFAFE8F",
"^ c #FE9EFE3FFEBF",
"/ c None",
/* pixels */
"////////////////////////////////",
"////////////////////////////////",
"////////////////////////////////",
"                                ",
"................................",
"................................",
"................................",
"................................",
"....o&===+.+196;o...$304-X......",
"....&mVVVp7vQ^^Zi+OeM~^~CuO.....",
"....=G^^^lN^^^^^EitI^^^^^Rr.....",
"....=G^^^W^ET!^^^KH^RT!^^^B&....",
"....=G^^^~nq4x~^^^~b95c~^^Yw....",
"....=G^^^D3..qY^^^S2..8W^^^y....",
"....=G^^^zX..<P^^^zX..*T^^^a....",
"....=G^^^k...-L^^^h...#T^^^s....",
"....=G^^^j...*L^^^f...%T^^^s....",
"....=G^^^j...*L^^^f...%T^^^s....",
"....=G^^^j...*L^^^f...%T^^^s....",
"....=G^^^j...*L^^^f...%T^^^s....",
"....=G^^^j...*L^^^f...%T^^^s....",
"....=G^^^j...*L^^^f...%T^^^s....",
"....=AUUUg...&FUUUd...%JUUUi....",
"....o:,,,$...o>,,,@...o>,,,@....",
"................................",
"................................",
"................................",
"................................",
"................................",
"................................",
"................................",
"................................"
};
