/* XPM */
static char *right_active[] = {
/* columns rows colors chars-per-pixel */
"4 36 2 1 ",
"  c #27F827F827F8",
". c #2B402B402B40",
/* pixels */
" ...",
" ...",
" ...",
" ...",
" ...",
" ...",
" ...",
" ...",
" ...",
" ...",
" ...",
" ...",
" ...",
" ...",
" ...",
" ...",
" ...",
" ...",
" ...",
" ...",
" ...",
" ...",
" ...",
" ...",
" ...",
" ...",
" ...",
" ...",
" ...",
" ...",
" ...",
" ...",
" ...",
" ...",
" ...",
" ..."
};
