/* XPM */
static char *right_inactive[] = {
/* columns rows colors chars-per-pixel */
"4 36 2 1 ",
"  c #5BE05BE05BE0",
". c #5D205D205D20",
/* pixels */
" ...",
" ...",
" ...",
" ...",
" ...",
" ...",
" ...",
" ...",
" ...",
" ...",
" ...",
" ...",
" ...",
" ...",
" ...",
" ...",
" ...",
" ...",
" ...",
" ...",
" ...",
" ...",
" ...",
" ...",
" ...",
" ...",
" ...",
" ...",
" ...",
" ...",
" ...",
" ...",
" ...",
" ...",
" ...",
" ..."
};
