/* XPM */
static char *top_right_inactive[] = {
/* columns rows colors chars-per-pixel */
"36 36 5 1 ",
"  c #5BE05BE05BE0",
". c #5D205D205D20",
"X c #5F105F105F10",
"o c #60DA60DA60DA",
"O c None",
/* pixels */
"oooooooooooooooooooooooooooooooooooo",
"oooooooooooooooooooooooooooooooooooo",
"oooooooooooooooooooooooooooooooooooo",
"XXXXXXXXXXXXXXXXXXXXXXXXXXXXXXXXoooo",
"OOOOOOOOOOOOOOOOOOOOOOOOOOOOOOOO ...",
"OOOOOOOOOOOOOOOOOOOOOOOOOOOOOOOO ...",
"OOOOOOOOOOOOOOOOOOOOOOOOOOOOOOOO ...",
"OOOOOOOOOOOOOOOOOOOOOOOOOOOOOOOO ...",
"OOOOOOOOOOOOOOOOOOOOOOOOOOOOOOOO ...",
"OOOOOOOOOOOOOOOOOOOOOOOOOOOOOOOO ...",
"OOOOOOOOOOOOOOOOOOOOOOOOOOOOOOOO ...",
"OOOOOOOOOOOOOOOOOOOOOOOOOOOOOOOO ...",
"OOOOOOOOOOOOOOOOOOOOOOOOOOOOOOOO ...",
"OOOOOOOOOOOOOOOOOOOOOOOOOOOOOOOO ...",
"OOOOOOOOOOOOOOOOOOOOOOOOOOOOOOOO ...",
"OOOOOOOOOOOOOOOOOOOOOOOOOOOOOOOO ...",
"OOOOOOOOOOOOOOOOOOOOOOOOOOOOOOOO ...",
"OOOOOOOOOOOOOOOOOOOOOOOOOOOOOOOO ...",
"OOOOOOOOOOOOOOOOOOOOOOOOOOOOOOOO ...",
"OOOOOOOOOOOOOOOOOOOOOOOOOOOOOOOO ...",
"OOOOOOOOOOOOOOOOOOOOOOOOOOOOOOOO ...",
"OOOOOOOOOOOOOOOOOOOOOOOOOOOOOOOO ...",
"OOOOOOOOOOOOOOOOOOOOOOOOOOOOOOOO ...",
"OOOOOOOOOOOOOOOOOOOOOOOOOOOOOOOO ...",
"OOOOOOOOOOOOOOOOOOOOOOOOOOOOOOOO ...",
"OOOOOOOOOOOOOOOOOOOOOOOOOOOOOOOO ...",
"OOOOOOOOOOOOOOOOOOOOOOOOOOOOOOOO ...",
"OOOOOOOOOOOOOOOOOOOOOOOOOOOOOOOO ...",
"OOOOOOOOOOOOOOOOOOOOOOOOOOOOOOOO ...",
"OOOOOOOOOOOOOOOOOOOOOOOOOOOOOOOO ...",
"OOOOOOOOOOOOOOOOOOOOOOOOOOOOOOOO ...",
"OOOOOOOOOOOOOOOOOOOOOOOOOOOOOOOO ...",
"OOOOOOOOOOOOOOOOOOOOOOOOOOOOOOOO ...",
"OOOOOOOOOOOOOOOOOOOOOOOOOOOOOOOO ...",
"OOOOOOOOOOOOOOOOOOOOOOOOOOOOOOOO ...",
"OOOOOOOOOOOOOOOOOOOOOOOOOOOOOOOO ..."
};
