/* XPM */
static char *top_left_active[] = {
/* columns rows colors chars-per-pixel */
"36 36 7 1 ",
"  c #27F827F827F8",
". c #2B402B402B40",
"X c #300830083008",
"o c #324832483248",
"O c #32B832B832B8",
"+ c #340034003400",
"@ c None",
/* pixels */
"++++++++++++++++++++++++++++++++++++",
"++++++++++++++++++++++++++++++++++++",
"++++++++++++++++++++++++++++++++++++",
"OOOoXXXXXXXXXXXXXXXXXXXXXXXXXXXXXXXX",
"... @@@@@@@@@@@@@@@@@@@@@@@@@@@@@@@@",
"... @@@@@@@@@@@@@@@@@@@@@@@@@@@@@@@@",
"... @@@@@@@@@@@@@@@@@@@@@@@@@@@@@@@@",
"... @@@@@@@@@@@@@@@@@@@@@@@@@@@@@@@@",
"... @@@@@@@@@@@@@@@@@@@@@@@@@@@@@@@@",
"... @@@@@@@@@@@@@@@@@@@@@@@@@@@@@@@@",
"... @@@@@@@@@@@@@@@@@@@@@@@@@@@@@@@@",
"... @@@@@@@@@@@@@@@@@@@@@@@@@@@@@@@@",
"... @@@@@@@@@@@@@@@@@@@@@@@@@@@@@@@@",
"... @@@@@@@@@@@@@@@@@@@@@@@@@@@@@@@@",
"... @@@@@@@@@@@@@@@@@@@@@@@@@@@@@@@@",
"... @@@@@@@@@@@@@@@@@@@@@@@@@@@@@@@@",
"... @@@@@@@@@@@@@@@@@@@@@@@@@@@@@@@@",
"... @@@@@@@@@@@@@@@@@@@@@@@@@@@@@@@@",
"... @@@@@@@@@@@@@@@@@@@@@@@@@@@@@@@@",
"... @@@@@@@@@@@@@@@@@@@@@@@@@@@@@@@@",
"... @@@@@@@@@@@@@@@@@@@@@@@@@@@@@@@@",
"... @@@@@@@@@@@@@@@@@@@@@@@@@@@@@@@@",
"... @@@@@@@@@@@@@@@@@@@@@@@@@@@@@@@@",
"... @@@@@@@@@@@@@@@@@@@@@@@@@@@@@@@@",
"... @@@@@@@@@@@@@@@@@@@@@@@@@@@@@@@@",
"... @@@@@@@@@@@@@@@@@@@@@@@@@@@@@@@@",
"... @@@@@@@@@@@@@@@@@@@@@@@@@@@@@@@@",
"... @@@@@@@@@@@@@@@@@@@@@@@@@@@@@@@@",
"... @@@@@@@@@@@@@@@@@@@@@@@@@@@@@@@@",
"... @@@@@@@@@@@@@@@@@@@@@@@@@@@@@@@@",
"... @@@@@@@@@@@@@@@@@@@@@@@@@@@@@@@@",
"... @@@@@@@@@@@@@@@@@@@@@@@@@@@@@@@@",
"... @@@@@@@@@@@@@@@@@@@@@@@@@@@@@@@@",
"... @@@@@@@@@@@@@@@@@@@@@@@@@@@@@@@@",
"... @@@@@@@@@@@@@@@@@@@@@@@@@@@@@@@@",
"... @@@@@@@@@@@@@@@@@@@@@@@@@@@@@@@@"
};
