<?xml version="1.0" encoding="UTF-8" standalone="no"?>
<!-- Created with Inkscape (http://www.inkscape.org/) -->

<svg
   xmlns:dc="http://purl.org/dc/elements/1.1/"
   xmlns:cc="http://creativecommons.org/ns#"
   xmlns:rdf="http://www.w3.org/1999/02/22-rdf-syntax-ns#"
   xmlns:svg="http://www.w3.org/2000/svg"
   xmlns="http://www.w3.org/2000/svg"
   xmlns:sodipodi="http://sodipodi.sourceforge.net/DTD/sodipodi-0.dtd"
   xmlns:inkscape="http://www.inkscape.org/namespaces/inkscape"
   width="1920"
   height="1080"
   viewBox="0 0 1920 1080.0001"
   id="svg2"
   version="1.1"
   inkscape:version="0.91 r13725"
   sodipodi:docname="bg.svg"
   inkscape:export-filename="/home/woelper/Documents/meta-desktop/media/bg.png"
   inkscape:export-xdpi="114.375"
   inkscape:export-ydpi="114.375">
  <defs
     id="defs4" />
  <sodipodi:namedview
     id="base"
     pagecolor="#ffffff"
     bordercolor="#666666"
     borderopacity="1.0"
     inkscape:pageopacity="0.0"
     inkscape:pageshadow="2"
     inkscape:zoom="0.49497475"
     inkscape:cx="799.23073"
     inkscape:cy="397.55625"
     inkscape:document-units="px"
     inkscape:current-layer="layer1"
     showgrid="false"
     inkscape:window-width="2560"
     inkscape:window-height="1331"
     inkscape:window-x="0"
     inkscape:window-y="31"
     inkscape:window-maximized="1"
     units="px" />
  <metadata
     id="metadata7">
    <rdf:RDF>
      <cc:Work
         rdf:about="">
        <dc:format>image/svg+xml</dc:format>
        <dc:type
           rdf:resource="http://purl.org/dc/dcmitype/StillImage" />
        <dc:title></dc:title>
      </cc:Work>
    </rdf:RDF>
  </metadata>
  <g
     inkscape:label="Layer 1"
     inkscape:groupmode="layer"
     id="layer1"
     transform="translate(0,27.637902)">
    <flowRoot
       xml:space="preserve"
       id="flowRoot4179"
       style="font-style:normal;font-weight:normal;font-size:20px;line-height:125%;font-family:Sans;letter-spacing:0px;word-spacing:0px;fill:#000000;fill-opacity:1;stroke:none;stroke-width:1px;stroke-linecap:butt;stroke-linejoin:miter;stroke-opacity:1"
       transform="translate(-1.2207033e-4,-27.637902)"><flowRegion
         id="flowRegion4181"><rect
           id="rect4183"
           width="42.857143"
           height="40"
           x="190"
           y="744.28571" /></flowRegion><flowPara
         id="flowPara4185">meta</flowPara></flowRoot>    <rect
       style="fill:#e7e7e7;fill-opacity:1;stroke:none;stroke-width:17.70000076;stroke-miterlimit:10;stroke-dasharray:none;stroke-opacity:1"
       id="rect4210"
       width="2010"
       height="1150"
       x="-35.714405"
       y="-66.20932"
       ry="6.0311999" />
    <g
       style="font-style:normal;font-variant:normal;font-weight:600;font-stretch:normal;font-size:130.08750916px;line-height:125%;font-family:'URW Gothic L';-inkscape-font-specification:'URW Gothic L, Semi-Bold';text-align:start;letter-spacing:0px;word-spacing:0px;writing-mode:lr-tb;text-anchor:start;fill:#919191;fill-opacity:1;stroke:none;stroke-width:1px;stroke-linecap:butt;stroke-linejoin:miter;stroke-opacity:1"
       id="text4187">
      <path
         d="m 497.0261,749.66278 17.30164,0 0,-35.51389 c 0,-7.15481 0.65044,-11.96805 1.82122,-14.96006 2.0814,-4.68315 6.50438,-7.41499 12.22823,-7.41499 4.68315,0 8.71586,1.69114 11.05744,4.55306 2.0814,2.73184 2.99201,7.02473 2.99201,13.78928 l 0,39.5466 17.30164,0 0,-35.51389 c 0,-8.06542 0.65044,-12.09814 2.47166,-15.48041 2.21149,-4.42298 6.63446,-6.89464 12.09814,-6.89464 4.29289,0 7.93534,1.56105 10.27691,4.42297 2.34158,2.73184 3.25219,6.76455 3.25219,13.91937 l 0,39.5466 17.30164,0 0,-41.628 c 0,-8.71587 -1.56105,-15.74059 -4.68315,-20.68392 -4.55306,-7.2849 -13.65919,-11.4477 -24.45645,-11.4477 -10.14683,0 -17.30164,3.38228 -23.15558,11.18753 -4.94333,-7.80525 -11.31761,-11.18753 -21.20426,-11.18753 -8.45569,0 -13.65919,2.34158 -18.73261,8.45569 l 0,-6.76455 -15.87067,0 0,72.06848 z"
         style=""
         id="path4213" />
      <path
         d="m 690.65526,721.3037 c 0.52035,-2.47166 0.65044,-4.03271 0.65044,-6.63446 0,-22.37505 -15.74059,-38.76608 -37.20503,-38.76608 -21.20426,0 -37.98555,16.78129 -37.98555,37.98556 0,21.07417 17.04146,37.4652 39.02625,37.4652 11.83797,0 21.07418,-4.29289 28.61925,-13.00875 2.73184,-3.38228 4.55307,-6.37429 5.72385,-10.01674 l -18.86268,0 c -4.42298,5.2035 -8.71587,7.15481 -15.87068,7.15481 -10.27691,0 -17.82199,-5.46367 -19.90339,-14.17954 l 55.80754,0 z m -56.32789,-15.22023 c 2.73184,-9.23622 9.75656,-14.30963 20.03348,-14.30963 10.66717,0 17.6919,5.07341 19.90339,14.30963 l -39.93687,0 z"
         style=""
         id="path4215" />
      <path
         d="m 705.17628,749.66278 17.30164,0 0,-56.32789 10.407,0 0,-15.74059 -10.407,0 0,-24.06619 -17.30164,0 0,24.06619 -8.45569,0 0,15.74059 8.45569,0 0,56.32789 z"
         style=""
         id="path4217" />
      <path
         d="m 814.68151,677.5943 -15.87068,0 0,9.62648 c -5.98402,-7.93534 -13.13884,-11.31762 -23.54584,-11.31762 -21.33435,0 -36.68468,16.00077 -36.68468,37.98556 0,21.72461 15.22024,37.4652 36.29442,37.4652 10.14682,0 17.04146,-3.25219 23.9361,-11.05744 l 0,9.3663 15.87068,0 0,-72.06848 z m -37.59529,14.17954 c 12.35831,0 21.20426,9.23621 21.20426,22.37505 0,5.2035 -2.0814,11.18753 -5.2035,14.82998 -3.51236,4.1628 -9.10613,6.50437 -15.74059,6.50437 -12.61849,0 -21.33435,-8.58577 -21.33435,-21.20426 0,-13.13884 8.71586,-22.50514 21.07418,-22.50514 z"
         style=""
         id="path4219" />
    </g>
    <flowRoot
       xml:space="preserve"
       id="flowRoot4191"
       style="fill:black;stroke:none;stroke-opacity:1;stroke-width:1px;stroke-linejoin:miter;stroke-linecap:butt;fill-opacity:1;font-family:Sans;font-style:normal;font-weight:normal;font-size:20px;line-height:125%;letter-spacing:0px;word-spacing:0px"><flowRegion
         id="flowRegion4193"><rect
           id="rect4195"
           width="580"
           height="665.71429"
           x="-365.71429"
           y="-214.28572" /></flowRegion><flowPara
         id="flowPara4197"></flowPara></flowRoot>    <path
       style="fill:#919191;fill-opacity:1;stroke:none;stroke-width:17.70000076;stroke-miterlimit:10;stroke-dasharray:none;stroke-opacity:1"
       d="M 851.42773 622.85742 A 41.428561 41.428561 0 0 0 810 664.28516 A 41.428561 41.428561 0 0 0 851.42773 705.71484 A 41.428561 41.428561 0 0 0 892.85742 664.28516 A 41.428561 41.428561 0 0 0 851.42773 622.85742 z M 843.92578 648.22656 C 847.96399 648.22656 850.56683 649.60882 852.58594 652.79688 C 854.97698 649.60882 857.89849 648.22656 862.04297 648.22656 C 866.45312 648.22656 870.1735 649.92682 872.0332 652.90234 C 873.30843 654.92145 873.94531 657.79156 873.94531 661.35156 L 873.94531 678.35352 L 866.87891 678.35352 L 866.87891 662.20117 C 866.87891 659.27878 866.5072 657.63144 865.55078 656.51562 C 864.59437 655.34667 863.10696 654.70898 861.35352 654.70898 C 859.12188 654.70898 857.31539 655.71882 856.41211 657.52539 C 855.66823 658.90688 855.40234 660.55333 855.40234 663.84766 L 855.40234 678.35352 L 848.33594 678.35352 L 848.33594 662.20117 C 848.33594 659.43819 847.96343 657.68418 847.11328 656.56836 C 846.15686 655.3994 844.50854 654.70898 842.5957 654.70898 C 840.25779 654.70898 838.45171 655.82545 837.60156 657.73828 C 837.12335 658.96038 836.85742 660.92528 836.85742 663.84766 L 836.85742 678.35352 L 829.79102 678.35352 L 829.79102 648.91797 L 836.27344 648.91797 L 836.27344 651.68164 C 838.34568 649.18433 840.47205 648.22656 843.92578 648.22656 z "
       transform="translate(-1.2207033e-4,-27.637902)"
       id="path4203" />
  </g>
</svg>
