<?xml version="1.0" encoding="UTF-8" standalone="no"?>
<!-- Created with Inkscape (http://www.inkscape.org/) -->

<svg
   xmlns:dc="http://purl.org/dc/elements/1.1/"
   xmlns:cc="http://creativecommons.org/ns#"
   xmlns:rdf="http://www.w3.org/1999/02/22-rdf-syntax-ns#"
   xmlns:svg="http://www.w3.org/2000/svg"
   xmlns="http://www.w3.org/2000/svg"
   xmlns:sodipodi="http://sodipodi.sourceforge.net/DTD/sodipodi-0.dtd"
   xmlns:inkscape="http://www.inkscape.org/namespaces/inkscape"
   width="1920"
   height="1080"
   viewBox="0 0 1920 1080.0001"
   id="svg2"
   version="1.1"
   inkscape:version="0.91 r13725"
   sodipodi:docname="bg.svg"
   inkscape:export-filename="/home/woelper/meta-desktop/media/bg.png"
   inkscape:export-xdpi="114.33334"
   inkscape:export-ydpi="114.33334">
  <defs
     id="defs4" />
  <sodipodi:namedview
     id="base"
     pagecolor="#ffffff"
     bordercolor="#666666"
     borderopacity="1.0"
     inkscape:pageopacity="0.0"
     inkscape:pageshadow="2"
     inkscape:zoom="0.35"
     inkscape:cx="696.50549"
     inkscape:cy="482.92145"
     inkscape:document-units="px"
     inkscape:current-layer="layer1"
     showgrid="false"
     inkscape:window-width="1397"
     inkscape:window-height="766"
     inkscape:window-x="0"
     inkscape:window-y="0"
     inkscape:window-maximized="1"
     units="px"
     showguides="false" />
  <metadata
     id="metadata7">
    <rdf:RDF>
      <cc:Work
         rdf:about="">
        <dc:format>image/svg+xml</dc:format>
        <dc:type
           rdf:resource="http://purl.org/dc/dcmitype/StillImage" />
        <dc:title />
      </cc:Work>
    </rdf:RDF>
  </metadata>
  <g
     inkscape:label="bg1"
     inkscape:groupmode="layer"
     id="layer1"
     transform="translate(0,27.637902)"
     style="display:inline">
    <flowRoot
       xml:space="preserve"
       id="flowRoot4179"
       style="font-style:normal;font-weight:normal;font-size:20px;line-height:125%;font-family:Sans;letter-spacing:0px;word-spacing:0px;fill:#000000;fill-opacity:1;stroke:none;stroke-width:1px;stroke-linecap:butt;stroke-linejoin:miter;stroke-opacity:1"
       transform="translate(-1.2207033e-4,-27.637902)"><flowRegion
         id="flowRegion4181"><rect
           id="rect4183"
           width="42.857143"
           height="40"
           x="190"
           y="744.28571" /></flowRegion><flowPara
         id="flowPara4185">meta</flowPara></flowRoot>    <rect
       style="fill:#e7e7e7;fill-opacity:1;stroke:none;stroke-width:17.70000076;stroke-miterlimit:10;stroke-dasharray:none;stroke-opacity:1"
       id="rect4210"
       width="2010"
       height="1150"
       x="-35.714405"
       y="-66.20932"
       ry="6.0311999" />
    <path
       style="font-style:normal;font-variant:normal;font-weight:600;font-stretch:normal;font-size:medium;line-height:125%;font-family:'URW Gothic L';-inkscape-font-specification:'URW Gothic L, Semi-Bold';text-align:start;letter-spacing:0px;word-spacing:0px;writing-mode:lr-tb;text-anchor:start;fill:#919191;fill-opacity:1;stroke:none;stroke-width:1px;stroke-linecap:butt;stroke-linejoin:miter;stroke-opacity:1"
       inkscape:connector-curvature="0"
       id="path4213"
       d="m 497.0261,749.66278 17.30164,0 0,-35.51389 c 0,-7.15481 0.65044,-11.96805 1.82122,-14.96006 2.0814,-4.68315 6.50438,-7.41499 12.22823,-7.41499 4.68315,0 8.71586,1.69114 11.05744,4.55306 2.0814,2.73184 2.99201,7.02473 2.99201,13.78928 l 0,39.5466 17.30164,0 0,-35.51389 c 0,-8.06542 0.65044,-12.09814 2.47166,-15.48041 2.21149,-4.42298 6.63446,-6.89464 12.09814,-6.89464 4.29289,0 7.93534,1.56105 10.27691,4.42297 2.34158,2.73184 3.25219,6.76455 3.25219,13.91937 l 0,39.5466 17.30164,0 0,-41.628 c 0,-8.71587 -1.56105,-15.74059 -4.68315,-20.68392 -4.55306,-7.2849 -13.65919,-11.4477 -24.45645,-11.4477 -10.14683,0 -17.30164,3.38228 -23.15558,11.18753 -4.94333,-7.80525 -11.31761,-11.18753 -21.20426,-11.18753 -8.45569,0 -13.65919,2.34158 -18.73261,8.45569 l 0,-6.76455 -15.87067,0 0,72.06848 z" />
    <path
       style="font-style:normal;font-variant:normal;font-weight:600;font-stretch:normal;font-size:medium;line-height:125%;font-family:'URW Gothic L';-inkscape-font-specification:'URW Gothic L, Semi-Bold';text-align:start;letter-spacing:0px;word-spacing:0px;writing-mode:lr-tb;text-anchor:start;fill:#919191;fill-opacity:1;stroke:none;stroke-width:1px;stroke-linecap:butt;stroke-linejoin:miter;stroke-opacity:1"
       inkscape:connector-curvature="0"
       id="path4215"
       d="m 661.38557,676.68369 c -2.47166,-0.52035 -4.03271,-0.65044 -6.63446,-0.65044 -22.37505,0 -38.76608,15.74059 -38.76608,37.20503 0,21.20426 16.78129,37.98555 37.98556,37.98555 21.07417,0 37.4652,-17.04146 37.4652,-39.02625 0,-11.83797 -4.29289,-21.07418 -13.00875,-28.61925 -3.38228,-2.73184 -6.37429,-4.55307 -10.01674,-5.72385 l 0,18.86268 c 5.2035,4.42298 7.15481,8.71587 7.15481,15.87068 0,10.27691 -5.46367,17.82199 -14.17954,19.90339 l 0,-55.80754 z m -15.22023,56.32789 c -9.23622,-2.73184 -14.30963,-9.75656 -14.30963,-20.03348 0,-10.66717 5.07341,-17.6919 14.30963,-19.90339 l 0,39.93687 z" />
    <path
       style="font-style:normal;font-variant:normal;font-weight:600;font-stretch:normal;font-size:medium;line-height:125%;font-family:'URW Gothic L';-inkscape-font-specification:'URW Gothic L, Semi-Bold';text-align:start;letter-spacing:0px;word-spacing:0px;writing-mode:lr-tb;text-anchor:start;fill:#919191;fill-opacity:1;stroke:none;stroke-width:1px;stroke-linecap:butt;stroke-linejoin:miter;stroke-opacity:1"
       inkscape:connector-curvature="0"
       id="path4217"
       d="m 705.17628,749.66278 17.30164,0 0,-56.32789 10.407,0 0,-15.74059 -10.407,0 0,-24.06619 -17.30164,0 0,24.06619 -8.45569,0 0,15.74059 8.45569,0 0,56.32789 z" />
    <path
       style="font-style:normal;font-variant:normal;font-weight:600;font-stretch:normal;font-size:medium;line-height:125%;font-family:'URW Gothic L';-inkscape-font-specification:'URW Gothic L, Semi-Bold';text-align:start;letter-spacing:0px;word-spacing:0px;writing-mode:lr-tb;text-anchor:start;fill:#919191;fill-opacity:1;stroke:none;stroke-width:1px;stroke-linecap:butt;stroke-linejoin:miter;stroke-opacity:1"
       inkscape:connector-curvature="0"
       id="path4219"
       d="m 814.68151,677.5943 -15.87068,0 0,9.62648 c -5.98402,-7.93534 -13.13884,-11.31762 -23.54584,-11.31762 -21.33435,0 -36.68468,16.00077 -36.68468,37.98556 0,21.72461 15.22024,37.4652 36.29442,37.4652 10.14682,0 17.04146,-3.25219 23.9361,-11.05744 l 0,9.3663 15.87068,0 0,-72.06848 z m -37.59529,14.17954 c 12.35831,0 21.20426,9.23621 21.20426,22.37505 0,5.2035 -2.0814,11.18753 -5.2035,14.82998 -3.51236,4.1628 -9.10613,6.50437 -15.74059,6.50437 -12.61849,0 -21.33435,-8.58577 -21.33435,-21.20426 0,-13.13884 8.71586,-22.50514 21.07418,-22.50514 z" />
    <flowRoot
       xml:space="preserve"
       id="flowRoot4191"
       style="font-style:normal;font-weight:normal;font-size:20px;line-height:125%;font-family:Sans;letter-spacing:0px;word-spacing:0px;fill:#000000;fill-opacity:1;stroke:none;stroke-width:1px;stroke-linecap:butt;stroke-linejoin:miter;stroke-opacity:1"><flowRegion
         id="flowRegion4193"><rect
           id="rect4195"
           width="580"
           height="665.71429"
           x="-365.71429"
           y="-214.28572" /></flowRegion><flowPara
         id="flowPara4197" /></flowRoot>    <path
       style="fill:#919191;fill-opacity:1;stroke:none;stroke-width:17.70000076;stroke-miterlimit:10;stroke-dasharray:none;stroke-opacity:1"
       d="M 851.42773,622.85742 A 41.428561,41.428561 0 0 0 810,664.28516 a 41.428561,41.428561 0 0 0 41.42773,41.42968 41.428561,41.428561 0 0 0 41.42969,-41.42968 41.428561,41.428561 0 0 0 -41.42969,-41.42774 z m -7.50195,25.36914 c 4.03821,0 6.64105,1.38226 8.66016,4.57032 2.39104,-3.18806 5.31255,-4.57032 9.45703,-4.57032 4.41015,0 8.13053,1.70026 9.99023,4.67578 1.27523,2.01911 1.91211,4.88922 1.91211,8.44922 l 0,17.00196 -7.0664,0 0,-16.15235 c 0,-2.92239 -0.37171,-4.56973 -1.32813,-5.68555 -0.95641,-1.16895 -2.44382,-1.80664 -4.19726,-1.80664 -2.23164,0 -4.03813,1.00984 -4.94141,2.81641 -0.74388,1.38149 -1.00977,3.02794 -1.00977,6.32227 l 0,14.50586 -7.0664,0 0,-16.15235 c 0,-2.76298 -0.37251,-4.51699 -1.22266,-5.63281 -0.95642,-1.16896 -2.60474,-1.85938 -4.51758,-1.85938 -2.33791,0 -4.14399,1.11647 -4.99414,3.0293 -0.47821,1.2221 -0.74414,3.187 -0.74414,6.10938 l 0,14.50586 -7.0664,0 0,-29.43555 6.48242,0 0,2.76367 c 2.07224,-2.49731 4.19861,-3.45508 7.65234,-3.45508 z"
       transform="translate(-1.2207033e-4,-27.637902)"
       id="path4203"
       inkscape:connector-curvature="0" />
  </g>
  <g
     inkscape:groupmode="layer"
     id="layer2"
     inkscape:label="bg2"
     style="display:none">
    <rect
       style="fill:#f2f2f2;fill-rule:evenodd;stroke:#000000;stroke-width:1px;stroke-linecap:butt;stroke-linejoin:miter;stroke-opacity:1"
       id="rect3461"
       width="2149.6045"
       height="1256.6298"
       x="-44.446835"
       y="-51.370842" />
    <g
       transform="matrix(1.0292064,0,0,1.0292064,-215.03456,238.12355)"
       style="font-style:normal;font-variant:normal;font-weight:600;font-stretch:normal;font-size:130.08750916px;line-height:125%;font-family:'URW Gothic L';-inkscape-font-specification:'URW Gothic L, Semi-Bold';text-align:start;letter-spacing:0px;word-spacing:0px;writing-mode:lr-tb;text-anchor:start;fill:#e6e6e6;fill-opacity:1;stroke:none;stroke-width:1px;stroke-linecap:butt;stroke-linejoin:miter;stroke-opacity:1"
       id="text4187-8">
      <path
         inkscape:connector-curvature="0"
         d="m 497.0261,749.66278 17.30164,0 0,-35.51389 c 0,-7.15481 0.65044,-11.96805 1.82122,-14.96006 2.0814,-4.68315 6.50438,-7.41499 12.22823,-7.41499 4.68315,0 8.71586,1.69114 11.05744,4.55306 2.0814,2.73184 2.99201,7.02473 2.99201,13.78928 l 0,39.5466 17.30164,0 0,-35.51389 c 0,-8.06542 0.65044,-12.09814 2.47166,-15.48041 2.21149,-4.42298 6.63446,-6.89464 12.09814,-6.89464 4.29289,0 7.93534,1.56105 10.27691,4.42297 2.34158,2.73184 3.25219,6.76455 3.25219,13.91937 l 0,39.5466 17.30164,0 0,-41.628 c 0,-8.71587 -1.56105,-15.74059 -4.68315,-20.68392 -4.55306,-7.2849 -13.65919,-11.4477 -24.45645,-11.4477 -10.14683,0 -17.30164,3.38228 -23.15558,11.18753 -4.94333,-7.80525 -11.31761,-11.18753 -21.20426,-11.18753 -8.45569,0 -13.65919,2.34158 -18.73261,8.45569 l 0,-6.76455 -15.87067,0 0,72.06848 z"
         id="path4213-6"
         style="fill:#e6e6e6" />
      <path
         inkscape:connector-curvature="0"
         d="m 690.65526,721.3037 c 0.52035,-2.47166 0.65044,-4.03271 0.65044,-6.63446 0,-22.37505 -15.74059,-38.76608 -37.20503,-38.76608 -21.20426,0 -37.98555,16.78129 -37.98555,37.98556 0,21.07417 17.04146,37.4652 39.02625,37.4652 11.83797,0 21.07418,-4.29289 28.61925,-13.00875 2.73184,-3.38228 4.55307,-6.37429 5.72385,-10.01674 l -18.86268,0 c -4.42298,5.2035 -8.71587,7.15481 -15.87068,7.15481 -10.27691,0 -17.82199,-5.46367 -19.90339,-14.17954 l 55.80754,0 z m -56.32789,-15.22023 c 2.73184,-9.23622 9.75656,-14.30963 20.03348,-14.30963 10.66717,0 17.6919,5.07341 19.90339,14.30963 l -39.93687,0 z"
         id="path4215-6"
         style="fill:#e6e6e6" />
      <path
         inkscape:connector-curvature="0"
         d="m 705.17628,749.66278 17.30164,0 0,-56.32789 10.407,0 0,-15.74059 -10.407,0 0,-24.06619 -17.30164,0 0,24.06619 -8.45569,0 0,15.74059 8.45569,0 0,56.32789 z"
         id="path4217-4"
         style="fill:#e6e6e6" />
      <path
         inkscape:connector-curvature="0"
         d="m 814.68151,677.5943 -15.87068,0 0,9.62648 c -5.98402,-7.93534 -13.13884,-11.31762 -23.54584,-11.31762 -21.33435,0 -36.68468,16.00077 -36.68468,37.98556 0,21.72461 15.22024,37.4652 36.29442,37.4652 10.14682,0 17.04146,-3.25219 23.9361,-11.05744 l 0,9.3663 15.87068,0 0,-72.06848 z m -37.59529,14.17954 c 12.35831,0 21.20426,9.23621 21.20426,22.37505 0,5.2035 -2.0814,11.18753 -5.2035,14.82998 -3.51236,4.1628 -9.10613,6.50437 -15.74059,6.50437 -12.61849,0 -21.33435,-8.58577 -21.33435,-21.20426 0,-13.13884 8.71586,-22.50514 21.07418,-22.50514 z"
         id="path4219-9"
         style="fill:#e6e6e6" />
    </g>
    <path
       inkscape:connector-curvature="0"
       style="fill:#e6e6e6;fill-opacity:1;stroke:none;stroke-width:17.70000076;stroke-miterlimit:10;stroke-dasharray:none;stroke-opacity:1"
       d="M 459.5287,573.62824 A 166.68705,166.68705 0 0 0 292.84473,740.31196 166.68705,166.68705 0 0 0 459.5287,907.00353 166.68705,166.68705 0 0 0 626.2203,740.31196 166.68705,166.68705 0 0 0 459.5287,573.62824 Z m -30.18416,102.07225 c 16.24766,0 26.72036,5.5615 34.84416,18.3886 9.6201,-12.8271 21.3747,-18.3886 38.05,-18.3886 17.744,0 32.713,6.84097 40.1954,18.81291 5.1312,8.12385 7.6933,19.67169 7.6933,33.99528 l 0,68.4071 -28.4315,0 0,-64.98871 c 0,-11.75818 -1.4955,-18.38622 -5.3436,-22.8757 -3.848,-4.70325 -9.8326,-7.26899 -16.8877,-7.26899 -8.9788,0 -16.2473,4.06308 -19.8817,11.33178 -2.9926,5.5584 -4.0625,12.18286 -4.0625,25.43753 l 0,58.36409 -28.4315,0 0,-64.98871 c 0,-11.1168 -1.4988,-18.17402 -4.9195,-22.66351 -3.8481,-4.70328 -10.48,-7.48118 -18.17649,-7.48118 -9.4065,0 -16.67331,4.4921 -20.09367,12.18834 -1.92403,4.91709 -2.99427,12.82283 -2.99427,24.58097 l 0,58.36409 -28.43153,0 0,-118.43341 26.08222,0 0,11.11957 c 8.33745,-10.04788 16.89298,-13.90145 30.78888,-13.90145 z"
       id="path4203-1" />
  </g>
  <g
     inkscape:groupmode="layer"
     id="layer3"
     inkscape:label="bg3"
     style="display:none">
    <rect
       style="display:inline;fill:#f2f2f2;fill-rule:evenodd;stroke:#000000;stroke-width:1px;stroke-linecap:butt;stroke-linejoin:miter;stroke-opacity:1"
       id="rect3461-9"
       width="2149.6047"
       height="1256.6299"
       x="-63.373848"
       y="-56.886307" />
    <rect
       style="fill:#ffcf06;fill-opacity:1"
       id="rect3516"
       width="237.14285"
       height="171.42857"
       x="848.57135"
       y="477.14279" />
    <path
       inkscape:connector-curvature="0"
       style="display:inline;fill:#e6e6e6;fill-opacity:1;stroke:none;stroke-width:17.70000076;stroke-miterlimit:10;stroke-dasharray:none;stroke-opacity:1"
       d="m 972.0304,390.96995 a 166.68707,166.68707 0 0 0 -166.684,166.6838 166.68707,166.68707 0 0 0 166.684,166.6916 166.68707,166.68707 0 0 0 166.6916,-166.6916 166.68707,166.68707 0 0 0 -166.6916,-166.6838 z m -30.1841,102.0723 c 16.2476,0 26.7203,5.5615 34.8441,18.3886 9.6201,-12.8271 21.3747,-18.3886 38.05,-18.3886 17.744,0 32.713,6.841 40.1954,18.8129 5.1312,8.1239 7.6933,19.6717 7.6933,33.9953 l 0,68.4071 -28.4315,0 0,-64.9887 c 0,-11.7582 -1.4955,-18.3862 -5.3436,-22.8757 -3.848,-4.7033 -9.8326,-7.269 -16.8877,-7.269 -8.9788,0 -16.2473,4.0631 -19.8817,11.3318 -2.9926,5.5584 -4.0625,12.1828 -4.0625,25.4375 l 0,58.3641 -28.4315,0 0,-64.9887 c 0,-11.1168 -1.4988,-18.174 -4.9195,-22.6635 -3.8481,-4.7033 -10.48,-7.4812 -18.1765,-7.4812 -9.4065,0 -16.6733,4.4921 -20.0936,12.1883 -1.9241,4.9171 -2.9943,12.8229 -2.9943,24.581 l 0,58.3641 -28.4315,0 0,-118.4334 26.0822,0 0,11.1195 c 8.3374,-10.0478 16.893,-13.9014 30.7889,-13.9014 z"
       id="path4203-1-9" />
  </g>
  <g
     inkscape:groupmode="layer"
     id="layer4"
     inkscape:label="bg4"
     style="display:none">
    <rect
       style="display:inline;fill:#f2f2f2;fill-rule:evenodd;stroke:#000000;stroke-width:1px;stroke-linecap:butt;stroke-linejoin:miter;stroke-opacity:1"
       id="rect3461-9-2"
       width="2149.605"
       height="1256.63"
       x="-74.802483"
       y="-136.88637" />
    <rect
       style="fill:#ff2a61;fill-opacity:1"
       id="rect3516-3"
       width="237.14288"
       height="171.42859"
       x="837.14282"
       y="397.14282" />
    <circle
       r="51.428581"
       cy="577.71429"
       cx="861.1427"
       id="circle4326-0"
       style="fill:#ff2a61;fill-opacity:1" />
    <circle
       style="fill:#ff2a61;fill-opacity:1"
       id="circle4322-4"
       cx="1029.1428"
       cy="352.57147"
       r="41.428577" />
    <circle
       r="41.428577"
       cy="386.57147"
       cx="837.1427"
       id="circle4324-0"
       style="fill:#ff2a61;fill-opacity:1" />
    <circle
       style="fill:#ff2a61;fill-opacity:1"
       id="circle4332-4"
       cx="1083.1428"
       cy="451.71429"
       r="51.428581" />
    <circle
       style="fill:#ff2a61;fill-opacity:1"
       id="circle4336-4"
       cx="1070.5714"
       cy="555.14288"
       r="52.857155" />
    <path
       inkscape:connector-curvature="0"
       style="display:inline;fill:#f2f2f2;fill-opacity:1;stroke:none;stroke-width:17.70000076;stroke-miterlimit:10;stroke-dasharray:none;stroke-opacity:1"
       d="m 960.60186,310.96994 a 166.68709,166.68709 0 0 0 -166.684,166.68382 166.68709,166.68709 0 0 0 166.684,166.69162 A 166.68709,166.68709 0 0 0 1127.2935,477.65376 166.68709,166.68709 0 0 0 960.60186,310.96994 Z m -30.1841,102.07232 c 16.2476,0 26.7203,5.5615 34.8441,18.3886 9.6201,-12.8271 21.3747,-18.3886 38.05004,-18.3886 17.744,0 32.713,6.841 40.1954,18.8129 5.1312,8.1239 7.6933,19.6717 7.6933,33.9953 l 0,68.40711 -28.4315,0 0,-64.98871 c 0,-11.7582 -1.4955,-18.3862 -5.3436,-22.8757 -3.848,-4.7033 -9.8326,-7.269 -16.8877,-7.269 -8.97884,0 -16.24734,4.0631 -19.88174,11.3318 -2.9926,5.5584 -4.0625,12.1828 -4.0625,25.4375 l 0,58.36411 -28.4315,0 0,-64.98871 c 0,-11.1168 -1.4988,-18.174 -4.9195,-22.6635 -3.8481,-4.7033 -10.48,-7.4812 -18.1765,-7.4812 -9.4065,0 -16.6733,4.4921 -20.0936,12.1883 -1.9241,4.9171 -2.9943,12.8229 -2.9943,24.581 l 0,58.36411 -28.4315,0 0,-118.43341 26.0822,0 0,11.1195 c 8.3374,-10.0478 16.893,-13.9014 30.7889,-13.9014 z"
       id="path4203-1-9-9" />
  </g>
  <g
     inkscape:groupmode="layer"
     id="layer5"
     inkscape:label="bg5"
     style="display:none">
    <rect
       style="display:inline;fill:#f2f2f2;fill-rule:evenodd;stroke:#000000;stroke-width:1px;stroke-linecap:butt;stroke-linejoin:miter;stroke-opacity:1"
       id="rect3461-9-8"
       width="2149.605"
       height="1256.63"
       x="-106.23106"
       y="-88.314934" />
    <rect
       style="fill:#ff2a61;fill-opacity:1"
       id="rect3516-1"
       width="237.14288"
       height="171.42859"
       x="805.71417"
       y="445.71423" />
    <rect
       style="fill:#ff2a61;fill-opacity:1"
       id="rect4421"
       width="522.85712"
       height="28.571428"
       x="608.74872"
       y="-562.21088"
       transform="matrix(0.48036619,0.87706803,-0.87706803,0.48036619,0,0)" />
    <rect
       transform="matrix(0.83494125,0.55033908,-0.55033908,0.83494125,0,0)"
       y="-87.214462"
       x="794.08649"
       height="28.571428"
       width="522.85712"
       id="rect4423"
       style="fill:#ff2a61;fill-opacity:1" />
    <path
       inkscape:connector-curvature="0"
       style="display:inline;fill:#f9f9f9;fill-opacity:1;stroke:none;stroke-width:17.70000076;stroke-miterlimit:10;stroke-dasharray:none;stroke-opacity:1"
       d="M 929.17328,359.54138 A 166.68709,166.68709 0 0 0 762.48928,526.2252 166.68709,166.68709 0 0 0 929.17328,692.91682 166.68709,166.68709 0 0 0 1095.8649,526.2252 166.68709,166.68709 0 0 0 929.17328,359.54138 Z m -30.1841,102.07232 c 16.2476,0 26.7203,5.5615 34.8441,18.3886 9.6201,-12.8271 21.3747,-18.3886 38.05,-18.3886 17.744,0 32.71302,6.841 40.19542,18.8129 5.1312,8.1239 7.6933,19.6717 7.6933,33.9953 l 0,68.40711 -28.43152,0 0,-64.98871 c 0,-11.7582 -1.4955,-18.3862 -5.3436,-22.8757 -3.848,-4.7033 -9.8326,-7.269 -16.8877,-7.269 -8.9788,0 -16.2473,4.0631 -19.8817,11.3318 -2.9926,5.5584 -4.0625,12.1828 -4.0625,25.4375 l 0,58.36411 -28.4315,0 0,-64.98871 c 0,-11.1168 -1.4988,-18.174 -4.9195,-22.6635 -3.8481,-4.7033 -10.48,-7.4812 -18.1765,-7.4812 -9.4065,0 -16.6733,4.4921 -20.0936,12.1883 -1.9241,4.9171 -2.9943,12.8229 -2.9943,24.581 l 0,58.36411 -28.4315,0 0,-118.43341 26.0822,0 0,11.1195 c 8.3374,-10.0478 16.893,-13.9014 30.7889,-13.9014 z"
       id="path4203-1-9-5" />
  </g>
  <g
     inkscape:groupmode="layer"
     id="layer6"
     inkscape:label="bg6_tile"
     style="display:none">
    <rect
       style="fill:#f9f9f9;fill-opacity:1"
       id="rect4426"
       width="380"
       height="380"
       x="677.1427"
       y="420"
       inkscape:export-xdpi="114.33334"
       inkscape:export-ydpi="114.33334" />
    <g
       transform="translate(355.57476,503.27341)"
       style="font-style:normal;font-variant:normal;font-weight:600;font-stretch:normal;font-size:130.08750916px;line-height:125%;font-family:'URW Gothic L';-inkscape-font-specification:'URW Gothic L, Semi-Bold';text-align:start;letter-spacing:0px;word-spacing:0px;writing-mode:lr-tb;text-anchor:start;display:inline;fill:#919191;fill-opacity:1;stroke:none;stroke-width:1px;stroke-linecap:butt;stroke-linejoin:miter;stroke-opacity:1"
       id="text4187-1-9">
      <path
         d="m 351.3118,266.80558 17.30164,0 0,-35.51389 c 0,-7.15481 0.65044,-11.96805 1.82122,-14.96006 2.0814,-4.68315 6.50438,-7.41499 12.22823,-7.41499 4.68315,0 8.71586,1.69114 11.05744,4.55306 2.0814,2.73184 2.99201,7.02473 2.99201,13.78928 l 0,39.5466 17.30164,0 0,-35.51389 c 0,-8.06542 0.65044,-12.09814 2.47166,-15.48041 2.21149,-4.42298 6.63446,-6.89464 12.09814,-6.89464 4.29289,0 7.93534,1.56105 10.27691,4.42297 2.34158,2.73184 3.25219,6.76455 3.25219,13.91937 l 0,39.5466 17.30164,0 0,-41.628 c 0,-8.71587 -1.56105,-15.74059 -4.68315,-20.68392 -4.55306,-7.2849 -13.65919,-11.4477 -24.45645,-11.4477 -10.14683,0 -17.30164,3.38228 -23.15558,11.18753 -4.94333,-7.80525 -11.31761,-11.18753 -21.20426,-11.18753 -8.45569,0 -13.65919,2.34158 -18.73261,8.45569 l 0,-6.76455 -15.87067,0 0,72.06848 z"
         id="path4213-9-7"
         inkscape:connector-curvature="0"
         style="fill:#f2f2f2"
         inkscape:export-xdpi="114.33334"
         inkscape:export-ydpi="114.33334" />
      <path
         d="m 515.67127,193.82649 c -2.47166,-0.52035 -4.03271,-0.65044 -6.63446,-0.65044 -22.37505,0 -38.76608,15.74059 -38.76608,37.20503 0,21.20426 16.78129,37.98555 37.98556,37.98555 21.07417,0 37.4652,-17.04146 37.4652,-39.02625 0,-11.83797 -4.29289,-21.07418 -13.00875,-28.61925 -3.38228,-2.73184 -6.37429,-4.55307 -10.01674,-5.72385 l 0,18.86268 c 5.2035,4.42298 7.15481,8.71587 7.15481,15.87068 0,10.27691 -5.46367,17.82199 -14.17954,19.90339 l 0,-55.80754 z m -15.22023,56.32789 c -9.23622,-2.73184 -14.30963,-9.75656 -14.30963,-20.03348 0,-10.66717 5.07341,-17.6919 14.30963,-19.90339 l 0,39.93687 z"
         id="path4215-3-8"
         inkscape:connector-curvature="0"
         style="fill:#f2f2f2"
         inkscape:export-xdpi="114.33334"
         inkscape:export-ydpi="114.33334" />
      <path
         d="m 559.46198,266.80558 17.30164,0 0,-56.32789 10.407,0 0,-15.74059 -10.407,0 0,-24.06619 -17.30164,0 0,24.06619 -8.45569,0 0,15.74059 8.45569,0 0,56.32789 z"
         id="path4217-8-8"
         inkscape:connector-curvature="0"
         style="fill:#f2f2f2"
         inkscape:export-xdpi="114.33334"
         inkscape:export-ydpi="114.33334" />
      <path
         d="m 668.96721,194.7371 -15.87068,0 0,9.62648 c -5.98402,-7.93534 -13.13884,-11.31762 -23.54584,-11.31762 -21.33435,0 -36.68468,16.00077 -36.68468,37.98556 0,21.72461 15.22024,37.4652 36.29442,37.4652 10.14682,0 17.04146,-3.25219 23.9361,-11.05744 l 0,9.3663 15.87068,0 0,-72.06848 z m -37.59529,14.17954 c 12.35831,0 21.20426,9.23621 21.20426,22.37505 0,5.2035 -2.0814,11.18753 -5.2035,14.82998 -3.51236,4.1628 -9.10613,6.50437 -15.74059,6.50437 -12.61849,0 -21.33435,-8.58577 -21.33435,-21.20426 0,-13.13884 8.71586,-22.50514 21.07418,-22.50514 z"
         id="path4219-5-4"
         inkscape:connector-curvature="0"
         style="fill:#f2f2f2"
         inkscape:export-xdpi="114.33334"
         inkscape:export-ydpi="114.33334" />
    </g>
  </g>
</svg>
