/* XPM */
static char *bottom_inactive[] = {
/* columns rows colors chars-per-pixel */
"26 3 2 1 ",
"  c #5B505B505B50",
". c #5D205D205D20",
/* pixels */
"                          ",
"..........................",
".........................."
};
