/* XPM */
static char *bottom_right_inactive[] = {
/* columns rows colors chars-per-pixel */
"26 26 4 1 ",
"  c #5B505B505B50",
". c #5CB05CB05CB0",
"X c #5D205D205D20",
"o c None",
/* pixels */
"ooooooooooooooooooooooo XX",
"ooooooooooooooooooooooo XX",
"ooooooooooooooooooooooo XX",
"ooooooooooooooooooooooo XX",
"ooooooooooooooooooooooo XX",
"ooooooooooooooooooooooo XX",
"ooooooooooooooooooooooo XX",
"ooooooooooooooooooooooo XX",
"ooooooooooooooooooooooo XX",
"ooooooooooooooooooooooo XX",
"ooooooooooooooooooooooo XX",
"ooooooooooooooooooooooo XX",
"ooooooooooooooooooooooo XX",
"ooooooooooooooooooooooo XX",
"ooooooooooooooooooooooo XX",
"ooooooooooooooooooooooo XX",
"ooooooooooooooooooooooo XX",
"ooooooooooooooooooooooo XX",
"ooooooooooooooooooooooo XX",
"ooooooooooooooooooooooo XX",
"ooooooooooooooooooooooo XX",
"ooooooooooooooooooooooo XX",
"ooooooooooooooooooooooo XX",
"                       .XX",
"XXXXXXXXXXXXXXXXXXXXXXXXXX",
"XXXXXXXXXXXXXXXXXXXXXXXXXX"
};
