/* XPM */
static char *bottom_inactive[] = {
/* columns rows colors chars-per-pixel */
"16 2 2 1 ",
"  c #54D054D054D0",
". c #63C563C563C5",
/* pixels */
"................",
"                "
};
