/* XPM */
static char *bottom_right_inactive[] = {
/* columns rows colors chars-per-pixel */
"16 16 4 1 ",
"  c #54D054D054D0",
". c #587158715871",
"X c #63C563C563C5",
"o c None",
/* pixels */
"ooooooooooooooX ",
"ooooooooooooooX ",
"ooooooooooooooX ",
"ooooooooooooooX ",
"ooooooooooooooX ",
"ooooooooooooooX ",
"ooooooooooooooX ",
"ooooooooooooooX ",
"ooooooooooooooX ",
"ooooooooooooooX ",
"ooooooooooooooX ",
"ooooooooooooooX ",
"ooooooooooooooX ",
"ooooooooooooooX ",
"XXXXXXXXXXXXXX. ",
"                "
};
