/* XPM */
static char *bottom_right_inactive[] = {
/* columns rows colors chars-per-pixel */
"22 22 4 1 ",
"  c #54D054D054D0",
". c #6E256E256E25",
"X c #8C4E8C4E8C4E",
"o c None",
/* pixels */
"oooooooooooooooooooX  ",
"oooooooooooooooooooX  ",
"oooooooooooooooooooX  ",
"oooooooooooooooooooX  ",
"oooooooooooooooooooX  ",
"oooooooooooooooooooX  ",
"oooooooooooooooooooX  ",
"oooooooooooooooooooX  ",
"oooooooooooooooooooX  ",
"oooooooooooooooooooX  ",
"oooooooooooooooooooX  ",
"oooooooooooooooooooX  ",
"oooooooooooooooooooX  ",
"oooooooooooooooooooX  ",
"oooooooooooooooooooX  ",
"oooooooooooooooooooX  ",
"oooooooooooooooooooX  ",
"oooooooooooooooooooX  ",
"oooooooooooooooooooX  ",
"XXXXXXXXXXXXXXXXXXX.  ",
"                      ",
"                      "
};
