/* XPM */
static char *close_active[] = {
/* columns rows colors chars-per-pixel */
"16 16 33 1 ",
"  c #75A93B8D9176",
". c #7EE050A097BF",
"X c #7F30515097FF",
"o c #7FA05230985F",
"O c #80FF54E0993F",
"+ c #8E7F6C80A307",
"@ c #968F7938A90F",
"# c #96FF79D0A95F",
"$ c #9C5F81CFAD8F",
"% c #9CBF823FADBF",
"& c #A59F8EFFB49F",
"* c #A5FF8F74B4EA",
"= c #B1FF9FBFBE7F",
"- c #B37FA1BFBFBF",
"; c #B79FA75FC2FF",
": c #BC7FAD9FC6FF",
"> c #BF1FB0DFC91F",
", c #C41FB77FCD3F",
"< c #C97FBE1FD1BF",
"1 c #CB9FC0BFD37F",
"2 c #ED1FE99FEFBF",
"3 c #EE7FEB5FF0DF",
"4 c #EF1FEC1FF17F",
"5 c #F2BFF03FF47F",
"6 c #F2FFF09FF4BF",
"7 c #F47FF27FF5FF",
"8 c #F5EAF414F74A",
"9 c #F71FF57FF83F",
"0 c #F9B7F89FFA97",
"q c #FD3FFCBFFD9F",
"w c #FF0FFEEFFF2F",
"e c #FFFBFFFBFFFB",
"r c None",
/* pixels */
"rrrrrrrrrrrrrrrr",
"                ",
"................",
"................",
"....o,*..%1O....",
"....:w0&$8e<....",
"....+2e09e5#....",
".....+4ee7@.....",
".....$8ee0&.....",
"....%8e63e0*....",
"....-q5@+2w>....",
".....=#..+;X....",
"................",
"................",
"................",
"................"
};
