/* XPM */
static char *close_toggled_active[] = {
/* columns rows colors chars-per-pixel */
"26 26 40 1 ",
"  c black",
". c #0D6E0D6E0D6E",
"X c #0FD80FD80FD8",
"o c #14C414C414C4",
"O c #173A173A173A",
"+ c #194019401940",
"@ c #1B2C1B2C1B2C",
"# c #228822882288",
"$ c #2E782E782E78",
"% c #311831183118",
"& c #36A036A036A0",
"* c #544854485448",
"= c #5D305D305D30",
"- c #5EB05EB05EB0",
"; c #654065406540",
": c #666066606660",
"> c #6F486F486F48",
", c #764076407640",
"< c #806080608060",
"1 c #817F817F817F",
"2 c #875F875F875F",
"3 c #88BF88BF88BF",
"4 c #8D7F8D7F8D7F",
"5 c #8FDF8FDF8FDF",
"6 c #907F907F907F",
"7 c #95BF95BF95BF",
"8 c #96FF96FF96FF",
"9 c #9A5F9A5F9A5F",
"0 c #A4BFA4BFA4BF",
"q c #ABDFABDFABDF",
"w c #AC5FAC5FAC5F",
"e c #B1BFB1BFB1BF",
"r c #F95FF95FF95F",
"t c #FB0AFB0AFB0A",
"y c #FC5FFC5FFC5F",
"u c #FC9FFC9FFC9F",
"i c #FDFFFDFFFDFF",
"p c #FEFFFEFFFEFF",
"a c white",
"s c None",
/* pixels */
"ssssssssssssssssssssssssss",
"ssssssssssssssssssssssssss",
"ssssssssssssssssssssssssss",
"&&&&&&&&&&&&&&&&&&&&&&&&&&",
"&&&&&&&&&&&&&&&&&&&&&&&&&&",
"&&&&&&&&&&&&&&&&&&&&&&&&&&",
"&&&&&&&&&&&&&&&&&&&&&&&&&&",
"&&&&&&&&&&&&&&&&&&&&&&&&&&",
"&&&&&&&&& = && - &&&&&&&&&",
"&&&&&&&& 9aq  7ae &&&&&&&&",
"&&&&&&&&$iaa05aaa*&&&&&&&&",
"&&&&&&&&O>taaaaa2 &&&&&&&&",
"&&&&&&&&& ;taap< &&&&&&&&&",
"&&&&&&&&& 6paaa0 &&&&&&&&&",
"&&&&&&&& 8aauraaw &&&&&&&&",
"&&&&&&&&%paa1:taa*&&&&&&&&",
"&&&&&&&&o,y3  >u4 &&&&&&&&",
"&&&&&&&&&O#X&&+@.&&&&&&&&&",
"&&&&&&&&&&&&&&&&&&&&&&&&&&",
"&&&&&&&&&&&&&&&&&&&&&&&&&&",
"&&&&&&&&&&&&&&&&&&&&&&&&&&",
"&&&&&&&&&&&&&&&&&&&&&&&&&&",
"&&&&&&&&&&&&&&&&&&&&&&&&&&",
"&&&&&&&&&&&&&&&&&&&&&&&&&&",
"&&&&&&&&&&&&&&&&&&&&&&&&&&",
"&&&&&&&&&&&&&&&&&&&&&&&&&&"
};
