/* XPM */
static char *close_inactive[] = {
/* columns rows colors chars-per-pixel */
"16 16 29 1 ",
"  c #858080418940",
". c #863F811F89FF",
"X c #879F829F8B3F",
"o c #951F90FF983F",
"O c #9574914A9894",
"+ c #9D9F99EFA06F",
"@ c #9DFF9A5FA0DF",
"# c #A38FA01FA61F",
"$ c #A3DFA07FA67F",
"% c #AD0FAA0FAF4F",
"& c #AD7FAA7FAFBF",
"* c #AE0BAA43B0EF",
"= c #B9BFB73FBB7F",
"- c #BB3FB8BFBCFF",
"; c #BF7FBD3FC13F",
": c #C47FC25FC61F",
"> c #C71FC51FC89F",
", c #CC5FCA9FCDBF",
"< c #D1DFD03FD31F",
"1 c #D3FFD27FD51F",
"2 c #F67FF5FFF6DF",
"3 c #F7FFF77FF85F",
"4 c #F89FF81FF8FF",
"5 c #FC3FFBDFFC9F",
"6 c #FC9FFC3FFCDF",
"7 c #FE1FFDDFFE5F",
"8 c #FF94FF4AFFD4",
"9 c white",
"0 c None",
/* pixels */
"0000000000000000",
"****************",
"                ",
"                ",
"    .,&  $1X    ",
"    :99%#89<    ",
"    O299995@    ",
"     o4997+     ",
"     #8999%     ",
"    $896399&    ",
"    -95+O29>    ",
"     =@  O;     ",
"                ",
"                ",
"                ",
"                "
};
