/* XPM */
static char *close_pressed[] = {
/* columns rows colors chars-per-pixel */
"16 16 30 1 ",
"  c #95A17312AAA2",
". c #98FF77B0AD9F",
"X c #999F78E0ADDF",
"o c #99FF7960AE1F",
"O c #9AFF7AE0AEFF",
"+ c #9B1F7B10AF1F",
"@ c #9B3F7AB0AF7F",
"# c #9B6F7B88AF5F",
"$ c #A27F857FB51F",
"% c #A49F885FB6BF",
"& c #A61F8A7FB81F",
"* c #A9FF8FBFBB3F",
"= c #AC7F92FFBD3F",
"- c #AF1F967FBF7F",
"; c #AF3F96BFBF7F",
": c #BA7FA51FC8DF",
"> c #BB7FA65FC9DF",
", c #C21FAEBFCF7F",
"< c #C303AB5DD300",
"1 c #C5E6AEF7D585",
"2 c #C806B16FD769",
"3 c #CECFBE5FDA6F",
"4 c #D3FFC47FDEDF",
"5 c #DC9FCEFFE67F",
"6 c #DD3FCF9FE6FF",
"7 c #E2BFD61FEBBF",
"8 c #E3BFD75FECBF",
"9 c #F4DFEB3FFBDF",
"0 c white",
"q c None",
/* pixels */
"qqqqqqqqqqqqqqqq",
"21<<<<<<<<<<<<<<",
"@.              ",
"@.              ",
"@.              ",
"@.     &   $o   ",
"@.    603 =00X  ",
"@.   +0005000>  ",
"@.    -000004   ",
"@.     ,0009    ",
"@.    =000003   ",
"@.   #0007000:  ",
"@.    804 ;00+  ",
"@.     *   %O   ",
"@.              ",
"@.              "
};
