/* XPM */
static char *close_toggled_pressed[] = {
/* columns rows colors chars-per-pixel */
"22 22 41 1 ",
"  c #959F7310AA9F",
". c #961F73D5AB1F",
"X c #96C7748CABA8",
"o c #96FF7510ABBF",
"O c #97AF7608AC5F",
"+ c #98AA7775AD1F",
"@ c #99AF7908ADEF",
"# c #9B3F7AB0AF7F",
"$ c #9C3F7CA0B00F",
"% c #A0488110B3E1",
"& c #A1A682D0B518",
"* c #A65E8906B92C",
"= c #A73F8BFFB8FF",
"- c #A77F8C3FB91F",
"; c #A89F8DBFBA1F",
": c #A8FF8E6FBA7F",
"> c #A9FF8FBFBB3F",
", c #AA3F8FFFBB5F",
"< c #ACFF939FBDBF",
"1 c #AE3F953FBEBF",
"2 c #B43F9D1FC39F",
"3 c #B81FA21FC6FF",
"4 c #B8FFA35FC7BF",
"5 c #B95FA3CFC80F",
"6 c #BE9FAA3FCC7F",
"7 c #DB8FCD9FE57F",
"8 c #DC5FCE7FE63F",
"9 c #DD5FCFBFE71F",
"0 c #DEFFD1BFE87F",
"q c #E2DFD63FEBFF",
"w c #E3BFD73FECBF",
"e c #E79FDBDFF03F",
"r c #EEFFE45FF6BF",
"t c #F23FE81FF99F",
"y c #F27FE85FF9DF",
"u c #F2FFE90FFA4F",
"i c #F75FEE1FFE3F",
"p c #FB9FF2DFFFFF",
"a c #FFFFF8FFFFFF",
"s c white",
"d c None",
/* pixels */
"dddddddddddddddddddddd",
"dddddddddddddddddddddd",
"**&%%%%%%%%%%%%%%%%%%%",
"##X                   ",
"##X                   ",
"##X                   ",
"##X                   ",
"##X      X$    X$     ",
"##X     ows,  X9s1    ",
"##X    Xqsss=.7sss<   ",
"##X    Xrssssessss2   ",
"##X     +ysssssss4    ",
"##X      Ousssss5     ",
"##X      .0sssss>     ",
"##X     X7sssssss-    ",
"##X    .8ssssassss:   ",
"##X    oisss5+usss3   ",
"##X     @ps4  Ots6    ",
"##X      @:    +;     ",
"##X                   ",
"##X                   ",
"##X                   "
};
