/* XPM */
static char *close_prelight[] = {
/* columns rows colors chars-per-pixel */
"22 22 38 1 ",
"  c #959F7310AA9F",
". c #961F73DCAB1F",
"X c #967F7455AB5F",
"o c #977F75C0AC1F",
"O c #97DF7650AC7F",
"+ c #983F76E0ACBF",
"@ c #989F7780AD1F",
"# c #98FF77F0AD5F",
"$ c #996F78A8ADBF",
"% c #9A1F79B0AE3F",
"& c #9A9F7A70AEBF",
"* c #9B3F7B3BAF1F",
"= c #9BBF7BF0AF7F",
"- c #9CBF7D70B05F",
"; c #9DBF7EE0B11F",
": c #9E5F7FE0B1BF",
"> c #9EFD7F3DB2F0",
", c #A15F83FFB41F",
"< c #A28F859FB50F",
"1 c #A2BF85BFB53F",
"2 c #A2FF861FB55F",
"3 c #A39F86FFB5DF",
"4 c #A43F87DFB67F",
"5 c #A85F8D7FB9DF",
"6 c #F09FE65FF81F",
"7 c #F0BFE67FF83F",
"8 c #F17FE75FF8DF",
"9 c #F19FE77FF8FF",
"0 c #F31FE93FFA5F",
"q c #F47FEADFFB9F",
"w c #FBBFF31FFFFF",
"e c #FC1FF37FFFFF",
"r c #FFFFFC3FFFFF",
"t c #FFFFFD3FFFFF",
"y c #FFFFFDBFFFFF",
"u c #FFFFFE9FFFFF",
"i c white",
"p c None",
/* pixels */
"pppppppppppppppppppppp",
"pppppppppppppppppppppp",
">>>>>>>>>>>>>>>>>>>>>>",
"                      ",
"                      ",
"       :<    -4       ",
"      ;ii3  =ii5      ",
"     &iiii<*iiii1     ",
"     X6iiiiiiiit$     ",
"      .8iiiiiiu#      ",
"       .qiiiii@       ",
"       *iiiiii2       ",
"      =iiiiiiii3      ",
"     %iiiiy0iiii,     ",
"     oeiiu@.9iii*     ",
"      .wr#  .7i$      ",
"       X+    XO       ",
"                      ",
"                      ",
"                      ",
"                      ",
"                      "
};
