/* XPM */
static char *close_prelight[] = {
/* columns rows colors chars-per-pixel */
"16 16 22 1 ",
"  c #959F7310AA9F",
". c #961F73D0AB1F",
"X c #96BF74C0AB7F",
"o c #989F7790AD1F",
"O c #AB7F91BFBC5F",
"+ c #ABDF923FBCBF",
"@ c #B6DFA0AFC5EF",
"# c #B75FA15FC65F",
"$ c #BD0EA37ACE12",
"% c #BEDFAAAFCCAF",
"& c #BF3FAB3FCCFF",
"* c #CBCFBACFD7BF",
"= c #DC1FCE7FE5FF",
"- c #DE3FD0BFE7BF",
"; c #E3DFD77FECDF",
": c #EA5FDF3FF29F",
"> c #EDDFE33FF59F",
", c #F49FEB1FFBBF",
"< c #FBBFF33FFFFF",
"1 c #FE9FF65FFFFF",
"2 c white",
"3 c None",
/* pixels */
"3333333333333333",
"$$$$$$$$$$$$$$$$",
"                ",
"                ",
"    X,*  &1o    ",
"    :22*%22<    ",
"    +222222#    ",
"     O2222@     ",
"     %2222*     ",
"    &222222*    ",
"    -22@O22>    ",
"     =#  +;.    ",
"                ",
"                ",
"                ",
"                "
};
