/* XPM */
static char *close_active[] = {
/* columns rows colors chars-per-pixel */
"22 22 51 1 ",
"  c #7CF44CAE9663",
". c #7EE050A097BF",
"X c #7F36514D97FF",
"o c #7F605198981F",
"O c #7FB05240985F",
"+ c #8040536898BF",
"@ c #809F543098FF",
"# c #80FF54B8993F",
"$ c #814A55509974",
"% c #81CF566899CF",
"& c #825F57709A3F",
"* c #82CA58359A9F",
"= c #831F58D09ADF",
"- c #83DF5A309B5F",
"; c #849F5B809BDF",
": c #851F5C609C1F",
"> c #871F60109D9F",
", c #87FF61909E4F",
"< c #881F61C09E5F",
"1 c #889462909EBF",
"2 c #893F63A09F1F",
"3 c #8C3F68A0A15F",
"4 c #C13FB39FCADF",
"5 c #C1DFB46FCB5F",
"6 c #C2FFB5FFCC5F",
"7 c #C41FB73FCD3F",
"8 c #C97FBE1FD19F",
"9 c #C9BFBE5FD1FF",
"0 c #CF5FC57FD69F",
"q c #D01FC65FD71F",
"w c #D05FC6BFD75F",
"e c #D0FFC77FD7DF",
"r c #D31FCA1FD9BF",
"t c #D63FCDFFDC5F",
"y c #D7EFD00FDDBF",
"u c #D8FFD13FDE9F",
"i c #D93FD19FDEDF",
"p c #DA0FD2AFDF8F",
"a c #DB1FD3FFE07F",
"s c #DC7FD5BFE19F",
"d c #DE1FD7BFE2FF",
"f c #E44FDF1FE83F",
"g c #E47FDF3FE85F",
"h c #E4BFDF9FE87F",
"j c #E58FE09FE93F",
"k c #E97FE53FEC9F",
"l c #E9DFE5BFECFF",
"z c #FEFAFECAFF14",
"x c #FF7FFF5FFF7F",
"c c #FFEBFFE4FFEC",
"v c None",
/* pixels */
"vvvvvvvvvvvvvvvvvvvvvv",
"vvvvvvvvvvvvvvvvvvvvvv",
"                      ",
"......................",
"......................",
".......:,....-2.......",
"......;df1..=ul3......",
".....&sccj,*pcck<.....",
".....o4zcchaccxq%.....",
"......X5zccccce$......",
".......X7xcccr#.......",
".......*iccccg<.......",
"......=pccxxccj1......",
".....%ycccw6zccf>.....",
".....+9zxe#X5zcy*.....",
"......X80$..X4t$......",
".......O@....o+.......",
"......................",
"......................",
"......................",
"......................",
"......................"
};
