/* XPM */
static char *close_toggled_inactive[] = {
/* columns rows colors chars-per-pixel */
"26 26 40 1 ",
"  c #7FB07FB07FB0",
". c #805080508050",
"X c #826F826F826F",
"o c #845F845F845F",
"O c #866F866F866F",
"+ c #879487948794",
"@ c #886F886F886F",
"# c #899F899F899F",
"$ c #8ADF8ADF8ADF",
"% c #8B8F8B8F8B8F",
"& c #8C6A8C6A8C6A",
"* c #8D1F8D1F8D1F",
"= c #8EFF8EFF8EFF",
"- c #931F931F931F",
"; c #943F943F943F",
": c #959F959F959F",
"> c #96BF96BF96BF",
", c #A7FFA7FFA7FF",
"< c #A87FA87FA87F",
"1 c #AEBFAEBFAEBF",
"2 c #AFDFAFDFAFDF",
"3 c #B4FFB4FFB4FF",
"4 c #B5FFB5FFB5FF",
"5 c #BD5FBD5FBD5F",
"6 c #C35FC35FC35F",
"7 c #CC7FCC7FCC7F",
"8 c #CD7FCD7FCD7F",
"9 c #D2DFD2DFD2DF",
"0 c #D41FD41FD41F",
"q c #D8DFD8DFD8DF",
"w c #DB1FDB1FDB1F",
"e c #DBBFDBBFDBBF",
"r c #E0DFE0DFE0DF",
"t c #E21FE21FE21F",
"y c #E55FE55FE55F",
"u c #EFEFEFEFEFEF",
"i c #F5FFF5FFF5FF",
"p c #FD5FFD5FFD5F",
"a c white",
"s c None",
/* pixels */
"ssssssssssssssssssssssssss",
"ssssssssssssssssssssssssss",
"ssssssssssssssssssssssssss",
">>>>>>>>>>>>>>>>>>>>>>>>>>",
">>>>>>>>>>>>>>>>>>>>>>>>>>",
">>>>>>>>>>>>>>>>>>>>>>>>>>",
">>>>>>>>>>>>>>>>>>>>>>>>>>",
">>>>>>>>>>>>>>>>>>>>>>>>>>",
">>>>>>>>>+1+:>+2O:>>>>>>>>",
">>>>>>>>#yai .rapO>>>>>>>>",
">>>>>>>>-aaauwaaa<>>>>>>>>",
">>>>>>>>&5aaaaaa9#>>>>>>>>",
">>>>>>>>>O3aaaa7X>>>>>>>>>",
">>>>>>>>>Xeaaaau.:>>>>>>>>",
">>>>>>>>#taaaaaai@>>>>>>>>",
">>>>>>>>;aaa84aaa,>>>>>>>>",
">>>>>>>>%6a0oO5aq@>>>>>>>>",
">>>>>>>>>&=%>>&*$>>>>>>>>>",
">>>>>>>>>>>>>>>>>>>>>>>>>>",
">>>>>>>>>>>>>>>>>>>>>>>>>>",
">>>>>>>>>>>>>>>>>>>>>>>>>>",
">>>>>>>>>>>>>>>>>>>>>>>>>>",
">>>>>>>>>>>>>>>>>>>>>>>>>>",
">>>>>>>>>>>>>>>>>>>>>>>>>>",
">>>>>>>>>>>>>>>>>>>>>>>>>>",
">>>>>>>>>>>>>>>>>>>>>>>>>>"
};
