/* XPM */
static char *close_toggled_inactive[] = {
/* columns rows colors chars-per-pixel */
"22 22 42 1 ",
"  c #858180438941",
". c #86AA819F8A74",
"X c #873F823F8AFF",
"o c #87BF82C58B72",
"O c #883F835F8BFF",
"+ c #88BF83BF8C3F",
"@ c #88FF841F8C9F",
"# c #89A584AC8D39",
"$ c #8A7F85BF8E1F",
"% c #8B3F867F8EBF",
"& c #8BBF86FF8F3F",
"* c #8DDF893F913F",
"= c #8ED78A3F9237",
"- c #8F528A8C92D0",
"; c #8FFF8B7F933F",
": c #92FF8E9F961F",
"> c #C93FC75FCABF",
", c #C95FC77FCADF",
"< c #C9FFC81FCB5F",
"1 c #CB3FC95FCC9F",
"2 c #CC3FCA7FCD9F",
"3 c #D1DFD03FD2FF",
"4 c #D21FD07FD35F",
"5 c #D7FFD67FD91F",
"6 c #D89FD73FD9BF",
"7 c #D8FFD77FD9FF",
"8 c #D99FD83FDA9F",
"9 c #DBBFDA7FDCBF",
"0 c #DEFFDDBFDFDF",
"q c #E0BFDF9FE18F",
"w c #E1EFE0BFE2BF",
"e c #E2EFE1DFE3CF",
"r c #E3FFE2FFE4DF",
"t c #E57FE45FE63F",
"y c #E71FE63FE7DF",
"u c #ED8AECBFEE2A",
"i c #EDDFED1FEE7F",
"p c #EEBFEDFFEF5F",
"a c #F2BFF21FF33F",
"s c #F33FF29FF39F",
"d c white",
"f c None",
/* pixels */
"ffffffffffffffffffffff",
"ffffffffffffffffffffff",
"----------------------",
"                      ",
"                      ",
"       &=    $;       ",
"      %yu-  #ws:      ",
"     @tddp=#edda=     ",
"      >dddirddd6O     ",
"       <dddddd8o      ",
"        2dddd9o       ",
"       #wddddu=       ",
"      #eddddddp-      ",
"     +qddd71dddu*     ",
"     .4dd8o <ddq#     ",
"       35o   ,0o      ",
"       .X     X       ",
"                      ",
"                      ",
"                      ",
"                      ",
"                      "
};
