/* XPM */
static char *close_pressed[] = {
/* columns rows colors chars-per-pixel */
"32 32 58 1 ",
"  c #95A07311AAA0",
". c #961F73B0AAFF",
"X c #96CC749CABAE",
"o c #96FF7500ABBF",
"O c #973F7570ABFF",
"+ c #979F75D8AC3F",
"@ c #97DF7654AC7F",
"# c #984F76D8ACDF",
"$ c #989F7760AD1F",
"% c #98FF77E0AD5F",
"& c #991F7820AD9F",
"* c #99FF7980AE3F",
"= c #9A1F7990AE5F",
"- c #9B3F7AABAF7F",
"; c #A3608508B6B1",
": c #A4B486C9B7DB",
"> c #A4BF887FB6FF",
", c #A61F8A5FB81F",
"< c #A89F8DDFBA3F",
"1 c #A97F8EFFBADF",
"2 c #A9DF8F5FBB1F",
"3 c #AA3F8FDFBB7F",
"4 c #A9D08D5BBC4B",
"5 c #AA9F907FBBBF",
"6 c #AE9F95BFBF1F",
"7 c #AF1F967FBF9F",
"8 c #AFFF979FC03F",
"9 c #B13F991FC13F",
"0 c #B21F9A5FC1FF",
"q c #B27F9ADFC25F",
"w c #B3DF9C7FC37F",
"e c #B4FF9E1FC45F",
"r c #B5FF9F5FC53F",
"t c #B61F9F9FC55F",
"y c #B7FFA1FFC6FF",
"u c #B8BFA2FFC77F",
"i c #B8FFA33FC7BF",
"p c #BA54A4EAC8F4",
"a c #BD3FA89FCB5F",
"s c #C21FAE7FCF7F",
"d c #C25FAEFFCFBF",
"f c #C87FB67FD4FF",
"g c #C97FB7DFD5DF",
"h c #D38FC3EFDE7F",
"j c #DD6FCFE7E747",
"k c #DDFFD07FE7BF",
"l c #E03FD31FE9BF",
"z c #E35FD6BFEC5F",
"x c #E414D79FED14",
"c c #E49FD83FED7F",
"v c #E4DFD87FEDBF",
"b c #E67FDA5FEF1F",
"n c #ED9FE2DFF59F",
"m c #F5BFEC1FFCBF",
"M c #F73FEDFFFE1F",
"N c #F81FEEFFFEFF",
"B c white",
"V c None",
/* pixels */
"VVVVVVVVVVVVVVVVVVVVVVVVVVVVVVVV",
"VVVVVVVVVVVVVVVVVVVVVVVVVVVVVVVV",
"VVVVVVVVVVVVVVVVVVVVVVVVVVVVVVVV",
"444:;;;;;;;;;;;;;;;;;;;;;;;;;;;;",
"---X                            ",
"---X                            ",
"---X                            ",
"---X                            ",
"---X                            ",
"---X                            ",
"---X                            ",
"---X         Xp7.     Os,       ",
"---X        ogBBt.   %jBB1      ",
"---X       XgBBBBq  @kBBBB>     ",
"---X       <BBBBBB0@jBBBBBmX    ",
"---X       #xBBBBBBnBBBBBBy     ",
"---X        =cBBBBBBBBBBBa.     ",
"---X         $zBBBBBBBBBp.      ",
"---X          $bBBBBBBBi        ",
"---X          +lBBBBBBB9        ",
"---X         @jBBBBBBBBBw.      ",
"---X        %kBBBBBBBBBBBr      ",
"---X       OjBBBBBBMBBBBBB8     ",
"---X       5BBBBBBu#xBBBBBNX    ",
"---X       XhBBBBp  &vBBBB3     ",
"---X        @hBBa.   *xBB6      ",
"---X         Xde.     +f2       ",
"---X                            ",
"---X                            ",
"---X                            ",
"---X                            ",
"---X                            "
};
