/* XPM */
static char *close_prelight[] = {
/* columns rows colors chars-per-pixel */
"32 32 41 1 ",
"  c #959F7311AA9F",
". c #961F73B0AAFF",
"X c #966A743BAB54",
"o c #975F75A0AC1F",
"O c #97B47620AC54",
"+ c #985F7710ACDF",
"@ c #995F78A0AD9F",
"# c #9A4A79D5AE6A",
"$ c #9B5F7B80AF4F",
"% c #9C1F7C70AFDF",
"& c #9CFF7DA0B09F",
"* c #A03F825FB33F",
"= c #A20B830BB5AA",
"- c #A17F841FB43F",
"; c #A61F8A7FB7FF",
": c #A73F8C1FB8DF",
"> c #A93F8EBFBA9F",
", c #AB9F91DFBC9F",
"< c #AD3F941FBDDF",
"1 c #ADFF94FFBE9F",
"2 c #B69FA01FC5BF",
"3 c #B6FFA09FC5FF",
"4 c #CC7FBB5FD85F",
"5 c #D53FC61FDFFF",
"6 c #DAFFCCFFE51F",
"7 c #DD7FCFDFE73F",
"8 c #DE7FD11FE81F",
"9 c #DEFFD19FE87F",
"0 c #DFDFD2BFE95F",
"q c #E09FD3BFE9FF",
"w c #E35FD6BFEC5F",
"e c #E57FD95FEE3F",
"r c #E5BFD99FEE7F",
"t c #E6BFDABFEF5F",
"y c #F4BFEB1FFBBF",
"u c #FB1FF28FFFFF",
"i c #FBBFF32FFFFF",
"p c #FC7FF41FFFFF",
"a c #FFFFFB7FFFFF",
"s c white",
"d c None",
/* pixels */
"dddddddddddddddddddddddddddddddd",
"dddddddddddddddddddddddddddddddd",
"dddddddddddddddddddddddddddddddd",
"================================",
"                                ",
"                                ",
"                                ",
"                                ",
"          oq;      #t%          ",
"         #yss<    *sss-         ",
"        oyssss>  &sssss%        ",
"        2ssssss:$ssssss6        ",
"        .9ssssssssssssiO        ",
"         X0ssssssssssi$         ",
"          X7ssssssssu@          ",
"           .rssssssa+           ",
"           $ssssssss:           ",
"          &ssssssssss>          ",
"         *ssssssssssss<         ",
"        #sssssspwssssss;        ",
"        3sssssu+.8sssss5        ",
"         4sssi@  X0ssseX        ",
"          4si$    X9seO         ",
"           1O      .,X          ",
"                                ",
"                                ",
"                                ",
"                                ",
"                                ",
"                                ",
"                                ",
"                                "
};
