/* XPM */
static char *close_toggled_inactive[] = {
/* columns rows colors chars-per-pixel */
"32 32 44 1 ",
"  c #858080418940",
". c #861F80FF89FF",
"X c #86D281BF8A85",
"o c #875F825F8B1F",
"O c #881F831F8BBF",
"+ c #88CA83D48C6A",
"@ c #898F84AF8D2F",
"# c #8A1F853F8DBF",
"$ c #8ABF85DF8E3F",
"% c #8D1F887F907F",
"& c #8DFF895F915F",
"* c #915F8CDF94BF",
"= c #92678DC795D8",
"- c #939F8F3F96DF",
"; c #955F911F989F",
": c #969F925F999F",
"> c #973F92FF9A5F",
", c #9D9F99CFA07F",
"< c #ADBFAABFAFFF",
"1 c #B47FB1BFB69F",
"2 c #B8DFB63FBADF",
"3 c #BABFB83FBC9F",
"4 c #BB7FB8FFBD3F",
"5 c #BBBFB95FBDBF",
"6 c #BC7FBA1FBE5F",
"7 c #BD1FBABFBEFF",
"8 c #BF1FBCDFC0DF",
"9 c #C0DFBE94C28A",
"0 c #C1BFBF7FC37F",
"q c #CC7FCA9FCDDF",
"w c #D1BAD00FD2FA",
"e c #D27FD0BFD3BF",
"r c #D77FD5FFD89F",
"t c #DF0DDDD1E008",
"y c #E25FE13FE33F",
"u c #E31FE1FFE3FF",
"i c #EE9FEDDFEF3F",
"p c #EF2FEE5FEFBF",
"a c #EF3FEE7FEFDF",
"s c #EF9FEEDFF02F",
"d c #FE3FFDFFFE7F",
"f c #FF5FFEFFFF7F",
"g c #FFFFFFFEFFFF",
"h c None",
/* pixels */
"hhhhhhhhhhhhhhhhhhhhhhhhhhhhhhhh",
"hhhhhhhhhhhhhhhhhhhhhhhhhhhhhhhh",
"hhhhhhhhhhhhhhhhhhhhhhhhhhhhhhhh",
"================================",
"                                ",
"                                ",
"                                ",
"                                ",
"          X7*      +0#          ",
"         +qga:    %tgy&         ",
"        Xqgggi-  $tgggy#        ",
"        ,gggggp=@tggggg2        ",
"         5gggggsugggggwX        ",
"         .6ggggggggggw@         ",
"          .3ggggggggwO          ",
"            9ggggggro           ",
"           @tggggggp=           ",
"          $tggggggggs-          ",
"         %tggggggggggi:         ",
"        +tggggge8ggggga*        ",
"        ,gggggwo 4ggggg1        ",
"         <dggwO  .6ggg9.        ",
"          <fw@    .5g9X         ",
"           >X       ;.          ",
"                                ",
"                                ",
"                                ",
"                                ",
"                                ",
"                                ",
"                                ",
"                                "
};
