/* XPM */
static char *hide_inactive[] = {
/* columns rows colors chars-per-pixel */
"22 22 35 1 ",
"  c #857F8040893F",
". c #861F80FF89FF",
"X c #86FF81DF8ABF",
"o c #872F821F8ADF",
"O c #88FF841F8C9F",
"+ c #8D7F88DF90FF",
"@ c #8D9F88FF911F",
"# c #8DFF895F917F",
"$ c #8E9F89FF91DF",
"% c #8F4E8A8292CF",
"& c #8F9F8B1F92FF",
"* c #90BF8C3F941F",
"= c #9CBF98EF9F9F",
"- c #9F3F9B8FA1FF",
"; c #A61FA2BFA89F",
": c #ABBFA89FAE1F",
"> c #AF9FACBFB1DF",
", c #AFFFACFFB23F",
"< c #B89FB5FFBA7F",
"1 c #BBBFB95FBD9F",
"2 c #BE9FBC3FC05F",
"3 c #C2FFC0BFC47F",
"4 c #D47FD2DFD59F",
"5 c #D71FD59FD83F",
"6 c #DB5FD9FFDC5F",
"7 c #DD5FDC1FDE5F",
"8 c #E11FDFFFE1FF",
"9 c #EEFFEE3FEF9F",
"0 c #F0FFF05FF19F",
"q c #F35FF2BFF3DF",
"w c #F4DFF43FF55F",
"e c #F83FF7DFF8BF",
"r c #FEFFFEBFFF3F",
"t c white",
"y c None",
/* pixels */
"yyyyyyyyyyyyyyyyyyyyyy",
"yyyyyyyyyyyyyyyyyyyyyy",
"%%%%%%%%%%%%%%%%%%%%%%",
"                      ",
"                      ",
"   o:,,,,,,,,,,,,>*   ",
"    4ttttttttttttq#   ",
"    O9ttttttttttt-    ",
"     =rttttttttt2     ",
"      <tttttttt7o     ",
"       5ttttttw$      ",
"       @0ttttt;       ",
"        -tttt3        ",
"         1tt8X        ",
"         .6e&         ",
"          +=          ",
"                      ",
"                      ",
"                      ",
"                      ",
"                      ",
"                      "
};
