/* XPM */
static char *hide_inactive[] = {
/* columns rows colors chars-per-pixel */
"16 16 23 1 ",
"  c #858080418940",
". c #867F815F8A3F",
"X c #87AF829F8B4F",
"o c #881F831F8BBF",
"O c #8D7F88DF90FF",
"+ c #919F8D1F94DF",
"@ c #939F8F5F96DF",
"# c #961F91DF993F",
"$ c #A95FA63FABBF",
"% c #AC9FA99FAEDF",
"& c #AE0BAA43B0EF",
"* c #C57FC37FC71F",
"= c #C8BFC6BFCA1F",
"- c #C95FC77FCADF",
"; c #CC7FCA9FCDDF",
": c #E39FE29FE47F",
"> c #E62AE52AE6F4",
", c #F1FFF13FF29F",
"< c #F6FFF67FF75F",
"1 c #F95FF8DFF9BF",
"2 c #FBDFFB7FFC1F",
"3 c white",
"4 c None",
/* pixels */
"4444444444444444",
"&&&&&&&&&&&&&&&&",
"                ",
"                ",
"  X><<<<<<<<,#  ",
"   $33333333*   ",
"    =333333:.   ",
"    X>33331+    ",
"     @2333$     ",
"      %33-      ",
"       ;>.      ",
"       oO       ",
"                ",
"                ",
"                ",
"                "
};
