/* XPM */
static char *hide_pressed[] = {
/* columns rows colors chars-per-pixel */
"16 16 26 1 ",
"  c #95A07312AAA0",
". c #968F7478AB6F",
"X c #96FF7500ABBF",
"o c #98FF77B0AD9F",
"O c #9B1F7B20AF1F",
"+ c #9B3F7AB0AF7F",
"@ c #9C7F7D10B03F",
"# c #9EDF8060B1FF",
"$ c #AD4F942FBDEF",
"% c #B09F985FC09F",
"& c #B41F9CFFC39F",
"* c #B77FA17FC67F",
"= c #C19FAE1FCEFF",
"- c #C303AB5DD300",
"; c #C5E6AEF7D585",
": c #C806B16FD769",
"> c #C99FB81BD5FB",
", c #CF9FBF3FDB1F",
"< c #D83FC9BFE29F",
"1 c #DD7FCFDFE71F",
"2 c #F33FE95FFA7F",
"3 c #F5BFEC1FFC9F",
"4 c #F79FEE5FFE5F",
"5 c #FFFFF95FFFFF",
"6 c white",
"7 c None",
/* pixels */
"7777777777777777",
":;--------------",
"+o              ",
"+o              ",
"+o              ",
"+o  $>>>>>>>>>=.",
"+o  &6666666662 ",
"+o   <66666666O ",
"+o   .5666666$  ",
"+o    #66666,   ",
"+o     *6664    ",
"+o      166@    ",
"+o      X3%     ",
"+o              ",
"+o              ",
"+o              "
};
