/* XPM */
static char *hide_toggled_active[] = {
/* columns rows colors chars-per-pixel */
"16 16 29 1 ",
"  c #75A93B8D9176",
". c #7EE050A097BF",
"X c #7F6051A0981F",
"o c #7FE052A0987F",
"O c #80DF5470991F",
"+ c #815F5578998F",
"@ c #86BF5F709D5F",
"# c #8ABF6650A03F",
"$ c #8CDF69D0A1DF",
"% c #8F3F6D90A39F",
"& c #A1FF89FFB1DF",
"* c #A21F8A1FB1DF",
"= c #A53F8E7FB45F",
"- c #BD7FAEFFC7DF",
"; c #C07FB2DFCA3F",
": c #C13FB39FCADF",
"> c #C43FB79FCD5F",
", c #DADFD37FE01F",
"< c #DCBFD5FFE1DF",
"1 c #DD5FD6BFE25F",
"2 c #E8BFE45FEBFF",
"3 c #ED9FEA3FF01F",
"4 c #EFDFECDFF21F",
"5 c #F23FEFDFF41F",
"6 c #FC3FFB8FFCAF",
"7 c #FD3FFCBFFD9F",
"8 c #FF7FFF5FFF7F",
"9 c #FFF7FFF7FFFA",
"0 c None",
/* pixels */
"0000000000000000",
"                ",
"................",
"................",
"..+<333333332%..",
"...&69999998-...",
"....;899999,X...",
"....O199994#....",
".....$5996*.....",
"......=79:......",
".......>1o......",
".......+@.......",
"................",
"................",
"................",
"................"
};
