/* XPM */
static char *hide_prelight[] = {
/* columns rows colors chars-per-pixel */
"16 16 19 1 ",
"  c #959F7310AA9F",
". c #965F7430AB3F",
"X c #971F7530ABDF",
"o c #985F7730ACDF",
"O c #98FF7800AD5F",
"+ c #995F7880AD9F",
"@ c #A0DF833FB39F",
"# c #A67F8AFFB83F",
"$ c #A95F8EFFBA9F",
"% c #AC9F933FBD5F",
"& c #BD0EA37ACE12",
"* c #C6AFB46FD35F",
"= c #CAFFB9BFD6FF",
"- c #EBBFE0DFF3DF",
"; c #EFDFE57FF75F",
": c #F0BFE67FF81F",
"> c #F4BFEB3FFBDF",
", c white",
"< c None",
/* pixels */
"<<<<<<<<<<<<<<<<",
"&&&&&&&&&&&&&&&&",
"                ",
"                ",
"  O,,,,,,,,,,%  ",
"   *,,,,,,,,-   ",
"    ;,,,,,,,.   ",
"    o,,,,,,#    ",
"     $,,,,*     ",
"      =,,:      ",
"       >,X      ",
"       +@       ",
"                ",
"                ",
"                ",
"                "
};
