/* XPM */
static char *hide_toggled_inactive[] = {
/* columns rows colors chars-per-pixel */
"32 32 48 1 ",
"  c #857F8040893F",
". c #869F81878A5F",
"X c #878F827F8B3F",
"o c #899F849F8D1F",
"O c #8B1F863F8E9F",
"+ c #8C5F87BF8FDF",
"@ c #8D3F887F909F",
"# c #8E9F89DF91FF",
"$ c #8EBF8A1F921F",
"% c #8F9F8B1F92FF",
"& c #909F8C3F93FF",
"* c #926C8DC795DE",
"= c #95FF91BF991F",
"- c #967F925F999F",
"; c #99BF95BF9CBF",
": c #9A5F965F9D3F",
"> c #9B7F979F9E5F",
", c #9DFF9A1FA0DF",
"< c #A2DF9F3FA57F",
"1 c #AB9FA87FADFF",
"2 c #ACFFA9DFAF5F",
"3 c #AFDFACDFB21F",
"4 c #B23FAF7FB45F",
"5 c #B49FB1DFB6BF",
"6 c #B61FB35FB81F",
"7 c #B63FB37FB85F",
"8 c #C8DFC6DFCA5F",
"9 c #CA2FC82FCBAF",
"0 c #CFDFCE1FD13F",
"q c #D01FCE5FD15F",
"w c #D09FCEDFD1FF",
"e c #D67FD4FFD7BF",
"r c #DD1FDB9FDE1F",
"t c #E19FE05FE27F",
"y c #E21DE0DCE31C",
"u c #E45FE35FE53F",
"i c #E6FFE5FFE7DF",
"p c #E7DFE6FFE8BF",
"a c #E8BFE7BFE97F",
"s c #E9FFE8FFEA9F",
"d c #F73FF69FF79F",
"f c #F81FF79FF89F",
"g c #F9DFF94FFA1F",
"h c #FA3FF9DFFABF",
"j c #FADFFA5FFB1F",
"k c #FEBFFE7FFEFF",
"l c white",
"z c None",
/* pixels */
"zzzzzzzzzzzzzzzzzzzzzzzzzzzzzzzz",
"zzzzzzzzzzzzzzzzzzzzzzzzzzzzzzzz",
"zzzzzzzzzzzzzzzzzzzzzzzzzzzzzzzz",
"********************************",
"                                ",
"                                ",
"                                ",
"                                ",
"     #ryyyyyyyyyyyyyyyyyyy7     ",
"      9lllllllllllllllllld&     ",
"      +ulllllllllllllllll1      ",
"       :jlllllllllllllll9.      ",
"        2lllllllllllllltX       ",
"        .qllllllllllllf-        ",
"         @alllllllllll3         ",
"          ;glllllllll8          ",
"           6llllllllpO          ",
"           .0llllllg=           ",
"            $slllll4            ",
"             ,klllw.            ",
"              5llio             ",
"              Xeh>              ",
"               %<               ",
"                                ",
"                                ",
"                                ",
"                                ",
"                                ",
"                                ",
"                                ",
"                                ",
"                                "
};
