/* XPM */
static char *hide_prelight[] = {
/* columns rows colors chars-per-pixel */
"26 26 36 1 ",
"  c black",
". c #11BC11BC11BC",
"X c #13A013A013A0",
"o c #168C168C168C",
"O c #16DC16DC16DC",
"+ c #206320632063",
"@ c #233023302330",
"# c #23F823F823F8",
"$ c #25C825C825C8",
"% c #29F029F029F0",
"& c #2DCC2DCC2DCC",
"* c #344834483448",
"= c #369F369F369F",
"- c #455045504550",
"; c #4D204D204D20",
": c #587058705870",
"> c #645064506450",
", c #895F895F895F",
"< c #8B3F8B3F8B3F",
"1 c #8C1F8C1F8C1F",
"2 c #8D2F8D2F8D2F",
"3 c #998399839983",
"4 c #9C5F9C5F9C5F",
"5 c #9D3F9D3F9D3F",
"6 c #9FDF9FDF9FDF",
"7 c #B77FB77FB77F",
"8 c #BDCABDCABDCA",
"9 c #E05FE05FE05F",
"0 c #E15FE15FE15F",
"q c #E31FE31FE31F",
"w c #E5DFE5DFE5DF",
"e c #F87FF87FF87F",
"r c #FADFFADFFADF",
"t c #FE9FFE9FFE9F",
"y c white",
"u c None",
/* pixels */
"uuuuuuuuuuuuuuuuuuuuuuuuuu",
"uuuuuuuuuuuuuuuuuuuuuuuuuu",
"uuuuuuuuuuuuuuuuuuuuuuuuuu",
"==========================",
"==========================",
"==========================",
"==========================",
"=======$o........X+=======",
"======&263333333345=======",
"======%<yyyyyyyyyy8O======",
"======= 7yyyyyyyy9 =======",
"======== 0yyyyyyr-#=======",
"========@;eyyyyy, ========",
"========= 1yyyy8 =========",
"========== 8yyq *=========",
"==========* wt:+==========",
"===========+>2 ===========",
"============*&============",
"==========================",
"==========================",
"==========================",
"==========================",
"==========================",
"==========================",
"==========================",
"=========================="
};
