/* XPM */
static char *hide_prelight[] = {
/* columns rows colors chars-per-pixel */
"22 22 27 1 ",
"  c #959F7311AA9F",
". c #969F7480AB7F",
"X c #97DF7658AC7F",
"o c #981F76B0AC9F",
"O c #9A9F7A60AEBF",
"+ c #9EFD7F3DB2F0",
"@ c #A0FF836FB3CF",
"# c #A19F843FB43F",
"$ c #A23F853FB4DF",
"% c #A3BF873FB5FF",
"& c #A55F895FB75F",
"* c #B59F9EFFC4DF",
"= c #B5BF9F1FC4DF",
"- c #B8BFA2FFC77F",
"; c #B93FA39FC7FF",
": c #C21FAEFFCF7F",
"> c #C9BFB81FD5FF",
", c #CEDFBE9FDA7F",
"< c #CF5FBF1FDADF",
"1 c #DABFCCBFE4DF",
"2 c #DEFFD1BFE87F",
"3 c #E29FD5FFEB9F",
"4 c #E83FDCBFF0BF",
"5 c #FF1FF71FFFFF",
"6 c #FFFFFADFFFFF",
"7 c white",
"8 c None",
/* pixels */
"8888888888888888888888",
"8888888888888888888888",
"++++++++++++++++++++++",
"                      ",
"                      ",
"   X><<<<<<<<<<<<,&   ",
"    57777777777777#   ",
"    O777777777777-    ",
"     =77777777773     ",
"      1777777777o     ",
"       67777777$      ",
"       @777777:       ",
"        ;77774        ",
"         2777X        ",
"         .77%         ",
"          @*          ",
"                      ",
"                      ",
"                      ",
"                      ",
"                      ",
"                      "
};
