/* XPM */
static char *hide_active[] = {
/* columns rows colors chars-per-pixel */
"22 22 42 1 ",
"  c #7CF44CAE9663",
". c #7EE050A097BF",
"X c #7F20511097FF",
"o c #7F905200983F",
"O c #807053B098DF",
"+ c #809F540098FF",
"@ c #825F57709A3F",
"# c #86DF5F989D7F",
"$ c #873F60509DBF",
"% c #87BF61309E1F",
"& c #88DF63009EDF",
"* c #89FF64F09FBF",
"= c #95BF77D0A87F",
"- c #97FF7B40AA1F",
"; c #985F7BC0AA7F",
": c #9EDF855FAF7F",
"> c #A45F8D1FB3BF",
", c #A81F927FB6BF",
"< c #A87F92DFB6FF",
"1 c #B0DF9E5FBDBF",
"2 c #B3FFA27FC01F",
"3 c #B6BFA5FFC25F",
"4 c #BAFFAB9FC5BF",
"5 c #CBFFC13FD3BF",
"6 c #CE7FC45FD5DF",
"7 c #D29FC99FD93F",
"8 c #D49FCC1FDAFF",
"9 c #D85FD07FDE1F",
"0 c #E5DFE0FFE97F",
"q c #E7BFE33FEB3F",
"w c #EA1FE5FFED1F",
"e c #EB7FE7BFEE5F",
"r c #EEDFEBBFF11F",
"t c #F55FF35FF6BF",
"y c #F6FFF55FF83F",
"u c #F93FF81FFA1F",
"i c #F97FF85FFA5F",
"p c #FDFFFD9FFE3F",
"a c #FE7FFE3FFEBF",
"s c #FEBFFE9FFEFF",
"d c #FFFDFFFDFFFE",
"f c None",
/* pixels */
"ffffffffffffffffffffff",
"ffffffffffffffffffffff",
"                      ",
"......................",
"......................",
"...O><<<<<<<<<<<<,*...",
"...X5ddddddddddddw$...",
"....@0ddddddddddi-....",
".....=tdddddddda3.....",
"......1pddddddd8+.....",
".......6dddddde%......",
".......#qddddu:.......",
"........;ydda4........",
".........2sd9O........",
".........o7r&.........",
"..........#=..........",
"......................",
"......................",
"......................",
"......................",
"......................",
"......................"
};
