/* XPM */
static char *hide_toggled_pressed[] = {
/* columns rows colors chars-per-pixel */
"22 22 32 1 ",
"  c #95A07310AAA0",
". c #961F73C8AB1F",
"X c #96D9749CABB9",
"o c #976F75B0AC1F",
"O c #979F7610AC5F",
"+ c #9B3F7AB0AF7F",
"@ c #9D9F7E90B0FF",
"# c #9EDF8060B21F",
"$ c #9FDF81CFB2EF",
"% c #A0488110B3E1",
"& c #A1A682D0B518",
"* c #A27F859FB51F",
"= c #A35F86BFB5DF",
"- c #A65E8906B92C",
"; c #AB1F911FBC1F",
": c #B2419A9FC201",
"> c #B2BF9B3FC27F",
", c #B45F9D5FC3DF",
"< c #B83FA25FC71F",
"1 c #C33FB01FD07F",
"2 c #D03FC01FDBBF",
"3 c #D5FFC6DFE09F",
"4 c #D77FC8BFE1FF",
"5 c #D8BFCA3FE31F",
"6 c #DA3FCBFFE45F",
"7 c #EC5FE15FF45F",
"8 c #F2DFE8FFFA3F",
"9 c #F87FEF5FFF3F",
"0 c #FAFFF23FFFFF",
"q c #FFFFF87FFFFF",
"w c white",
"e c None",
/* pixels */
"eeeeeeeeeeeeeeeeeeeeee",
"eeeeeeeeeeeeeeeeeeeeee",
"--&%%%%%%%%%%%%%%%%%%%",
"++X                   ",
"++X                   ",
"++X                   ",
"++X                   ",
"++X  .;:::::::::::::= ",
"++X  .7wwwwwwwwwwwww1 ",
"++X   #wwwwwwwwwwww8X ",
"++X    ,wwwwwwwwwww@  ",
"++X     4wwwwwwwww>   ",
"++X     o0wwwwwww2    ",
"++X      $wwwwww9X    ",
"++X       <wwwww$     ",
"++X        5www:      ",
"++X        Oqw3       ",
"++X         *6o       ",
"++X                   ",
"++X                   ",
"++X                   ",
"++X                   "
};
