/* XPM */
static char *hide_pressed[] = {
/* columns rows colors chars-per-pixel */
"26 26 2 1 ",
"  c #419041904190",
". c None",
/* pixels */
"..........................",
"..........................",
"..........................",
"                          ",
"                          ",
"                          ",
"                          ",
"                          ",
"                          ",
"                          ",
"                          ",
"                          ",
"                          ",
"                          ",
"                          ",
"                          ",
"                          ",
"                          ",
"                          ",
"                          ",
"                          ",
"                          ",
"                          ",
"                          ",
"                          ",
"                          "
};
