/* XPM */
static char *hide_toggled_inactive[] = {
/* columns rows colors chars-per-pixel */
"26 26 27 1 ",
"  c #81AA81AA81AA",
". c #82BF82BF82BF",
"X c #831F831F831F",
"o c #88BF88BF88BF",
"O c #89CF89CF89CF",
"+ c #8B868B868B86",
"@ c #8C3F8C3F8C3F",
"# c #8E748E748E74",
"$ c #8F948F948F94",
"% c #907F907F907F",
"& c #913F913F913F",
"* c #928A928A928A",
"= c #942F942F942F",
"- c #96BF96BF96BF",
"; c #9E9F9E9F9E9F",
": c #A37FA37FA37F",
"> c #AB3FAB3FAB3F",
", c #B45FB45FB45F",
"< c #D4FFD4FFD4FF",
"1 c #D77FD77FD77F",
"2 c #D8AFD8AFD8AF",
"3 c #E48BE48BE48B",
"4 c #E71FE71FE71F",
"5 c #E83FE83FE83F",
"6 c #EA3FEA3FEA3F",
"7 c white",
"8 c None",
/* pixels */
"88888888888888888888888888",
"88888888888888888888888888",
"88888888888888888888888888",
"--------------------------",
"--------------------------",
"--------------------------",
"--------------------------",
"-------$@+++++++++#-------",
"------&263333333345-------",
"------%<77777777777@------",
"-------.7777777777X=------",
"-------= 77777777;$-------",
"--------$:777777<o--------",
"---------o177777 ---------",
"---------- 7777O*---------",
"----------*O77>#----------",
"-----------#,2o-----------",
"------------*&------------",
"--------------------------",
"--------------------------",
"--------------------------",
"--------------------------",
"--------------------------",
"--------------------------",
"--------------------------",
"--------------------------"
};
