/* XPM */
static char *left_inactive[] = {
/* columns rows colors chars-per-pixel */
"3 26 2 1 ",
"  c #5B505B505B50",
". c #5D205D205D20",
/* pixels */
".. ",
".. ",
".. ",
".. ",
".. ",
".. ",
".. ",
".. ",
".. ",
".. ",
".. ",
".. ",
".. ",
".. ",
".. ",
".. ",
".. ",
".. ",
".. ",
".. ",
".. ",
".. ",
".. ",
".. ",
".. ",
".. "
};
