/* XPM */
static char *maximize_inactive[] = {
/* columns rows colors chars-per-pixel */
"22 22 34 1 ",
"  c #857F8040893F",
". c #871F81FF8ABF",
"X c #87DF82DF8B9F",
"o c #8A9F85DF8E3F",
"O c #8B3F865F8EBF",
"+ c #8BDF871F8F43",
"@ c #8F4E8A8292CF",
"# c #8FDF8B5F933F",
"$ c #901F8B9F937F",
"% c #90DF8C5F943F",
"& c #91DF8D7F953B",
"* c #99FF95FF9CDF",
"= c #9A9F969F9D7F",
"- c #9D1F993FA01F",
"; c #9EBF9AFFA19F",
": c #9F7F9BBFA23F",
"> c #A35F9FDFA5DF",
", c #A3FFA07FA67F",
"< c #A4BFA15FA75F",
"1 c #AB3FA81FAD9F",
"2 c #B0DFADFFB303",
"3 c #B17FAE9FB39F",
"4 c #C17FBF3FC31F",
"5 c #CD5FCB9FCEBF",
"6 c #D45FD2BFD57F",
"7 c #D5BFD45FD6DF",
"8 c #D69FD53FD7BF",
"9 c #E91FE81FE9DF",
"0 c #F8DFF85FF91F",
"q c #FA1FF9BFFA7F",
"w c #FBA3FB23FC03",
"e c #FD05FCBFFD45",
"r c #FFFEFFFBFFFF",
"t c None",
/* pixels */
"tttttttttttttttttttttt",
"tttttttttttttttttttttt",
"@@@@@@@@@@@@@@@@@@@@@@",
"                      ",
"                      ",
"     #>,,,,,,,,,*     ",
"    O0rrrrrrrrrrr3    ",
"    ;rrrrrrrrrrrr7    ",
"    :r5222222224r8    ",
"    :r%         e8    ",
"    :r$         e8    ",
"    :r$         e8    ",
"    :r$         e8    ",
"    :r$         e8    ",
"    -r1++++++++=r6    ",
"    X9rwwwwwwwwrq<    ",
"     .%&&&&&&&&&o     ",
"                      ",
"                      ",
"                      ",
"                      ",
"                      "
};
