/* XPM */
static char *maximize_inactive[] = {
/* columns rows colors chars-per-pixel */
"26 26 40 1 ",
"  c #64E064E064E0",
". c #678067806780",
"X c #684068406840",
"o c #6C806C806C80",
"O c #7BF07BF07BF0",
"+ c #7CA47CA47CA4",
"@ c #7D307D307D30",
"# c #7EA87EA87EA8",
"$ c #7F837F837F83",
"% c #806080608060",
"& c #87FF87FF87FF",
"* c #895F895F895F",
"= c #8AAA8AAA8AAA",
"- c #8C7F8C7F8C7F",
"; c #8D918D918D91",
": c #8E8A8E8A8E8A",
"> c #8FB48FB48FB4",
", c #911F911F911F",
"< c #92F692F692F6",
"1 c #938F938F938F",
"2 c #94BF94BF94BF",
"3 c #957F957F957F",
"4 c #96BF96BF96BF",
"5 c #98BF98BF98BF",
"6 c #A29FA29FA29F",
"7 c #A3FFA3FFA3FF",
"8 c #A5A7A5A7A5A7",
"9 c #ABBFABBFABBF",
"0 c #AF4FAF4FAF4F",
"q c #B084B084B084",
"w c #C3DFC3DFC3DF",
"e c #CABFCABFCABF",
"r c #D4FFD4FFD4FF",
"t c #D5FFD5FFD5FF",
"y c #D6FFD6FFD6FF",
"u c #D87FD87FD87F",
"i c #F5DFF5DFF5DF",
"p c #F68CF68CF68C",
"a c white",
"s c None",
/* pixels */
"ssssssssssssssssssssssssss",
"ssssssssssssssssssssssssss",
"ssssssssssssssssssssssssss",
"44444444444444444444444444",
"44444444444444444444444444",
"44444444444444444444444444",
"44444444444444444444444444",
"44444444<:;;;;;;:,44444444",
"4444444;9yrrrrrrtw&4444444",
"4444444<aaaaaaaaaau:444444",
"44444436aaaaaaaaaai=444444",
"44444427ao#$$$$#.ap*444444",
"44444428aO444444+ap*444444",
"44444428a+444444@ap*444444",
"44444428a+444444+ap*444444",
"44444438aX$%%%%$ ap=444444",
"4444444>aaaaaaaaaae>444444",
"4444444>-0qqqqqq05=4444444",
"4444444442<<<<<<1444444444",
"44444444444444444444444444",
"44444444444444444444444444",
"44444444444444444444444444",
"44444444444444444444444444",
"44444444444444444444444444",
"44444444444444444444444444",
"44444444444444444444444444"
};
