/* XPM */
static char *maximize_pressed[] = {
/* columns rows colors chars-per-pixel */
"22 22 30 1 ",
"  c #959F7310AA9F",
". c #96D37497ABB2",
"X c #981F76D0ACBF",
"o c #987F7740ACFF",
"O c #9A4F79D8AE6F",
"+ c #9B3F7AB0AF7F",
"@ c #A0488110B3E1",
"# c #A11F837FB3DF",
"$ c #A1A682D0B518",
"% c #A1FF84DFB4BF",
"& c #A29F859FB51F",
"* c #A41F87BFB67F",
"= c #A45F87FFB69F",
"- c #A4BF889FB6DF",
"; c #A61F8A5FB81B",
": c #A65E8906B92C",
"> c #BDFFA99FCBFF",
", c #C3DFB0DFD0FF",
"< c #C57FB31FD27F",
"1 c #C8BFB6FBD51F",
"2 c #CAFFB9BFD71F",
"3 c #D91FCABFE35F",
"4 c #DD5FCFBFE71F",
"5 c #F41FEA3FFB3F",
"6 c #F57FEBFFFC9F",
"7 c #F61FECBFFD1F",
"8 c #FE7FF63FFFFF",
"9 c #FF3FF71FFFFF",
"0 c white",
"q c None",
/* pixels */
"qqqqqqqqqqqqqqqqqqqqqq",
"qqqqqqqqqqqqqqqqqqqqqq",
"::$@@@@@@@@@@@@@@@@@@@",
"++.                   ",
"++.                   ",
"++.                   ",
"++.                   ",
"++.    X=;;;;;;;;;%.  ",
"++.   .9000000000004  ",
"++.   &0000000000000  ",
"++.   -0076666666800  ",
"++.   -02        .00  ",
"++.   -0<         00  ",
"++.   -0<         00  ",
"++.   -0<         00  ",
"++.   -0<         00  ",
"++.   *03        O00  ",
"++.   o0000000000005  ",
"++.    #,111111111>O  ",
"++.                   ",
"++.                   ",
"++.                   "
};
