/* XPM */
static char *maximize_active[] = {
/* columns rows colors chars-per-pixel */
"22 22 44 1 ",
"  c #7CF44CAE9663",
". c #7EE050A097BF",
"X c #7F0050E097DF",
"o c #808053C098DF",
"O c #813F5540997F",
"+ c #83FF5A609B5F",
"@ c #847F5B509BDF",
"# c #851F5C929C23",
"$ c #895263D09F39",
"% c #89FF65009FBF",
"& c #8A1F65509FDF",
"* c #8AFF66C0A07F",
"= c #8B1F66E0A07F",
"- c #92FF73A0A65F",
"; c #939F7490A6DF",
": c #961F7850A8BF",
"> c #979F7AA0A9DF",
", c #985F7BD0AA7F",
"< c #9C1F815FAD5F",
"1 c #9CDB825BADDF",
"2 c #9D9F837FAE7F",
"3 c #A3DF8C7FB35F",
"4 c #A9719438B7CA",
"5 c #B97FA9BFC49F",
"6 c #C51FB89FCE1F",
"7 c #CBDFC11FD39F",
"8 c #CD5FC2FFD4DF",
"9 c #CE1FC3FFD57F",
"0 c #E01FD9FFE49F",
"q c #EF5FEC3FF19F",
"w c #F09FEDDFF2BF",
"e c #F203EF83F3FF",
"r c #F35FF11FF51F",
"t c #F37FF13FF51F",
"y c #F61FF45FF77F",
"u c #F67FF4BFF7DF",
"i c #F7ACF612F8CC",
"p c #F83FF6DFF93F",
"a c #FBBFFAFFFC3F",
"s c #FBDFFB1FFC7F",
"d c #FC9FFBFFFD1F",
"f c #FEBFFE7FFEDF",
"g c white",
"h c None",
/* pixels */
"hhhhhhhhhhhhhhhhhhhhhh",
"hhhhhhhhhhhhhhhhhhhhhh",
"                      ",
"......................",
"......................",
".....$<111111111-.....",
"....@qggggggggggs4....",
"....>gggggggggggg8....",
"....,f6444444445a9....",
"....,i%........Xt9....",
"....,i$.........r9....",
"....,i$.........r9....",
"....,i$.........r9....",
"....,i$.........r9....",
"....:d3########;p7....",
"....O0ueeeeeeeeyw2....",
".....o&========*+.....",
"......................",
"......................",
"......................",
"......................",
"......................"
};
