/* XPM */
static char *maximize_toggled_active[] = {
/* columns rows colors chars-per-pixel */
"32 32 54 1 ",
"  c #7C654B609607",
". c #7EE050A097BF",
"X c #7F0050D097DF",
"o c #7F6851A8981F",
"O c #80205300989F",
"+ c #80DF5480993F",
"@ c #851F5C609C3F",
"# c #86275E1D9D24",
"$ c #86BF5F409D5F",
"% c #88FF63409EFF",
"& c #8B3F6740A0BF",
"* c #8D1F6A40A1FF",
"= c #93AF74A0A6FF",
"- c #955F7730A83F",
"; c #9FFF86FFB03F",
": c #A0478784B087",
"> c #A13F88DFB13F",
", c #A1BF897FB1BF",
"< c #A3DF8C3FB35F",
"1 c #A79F91BFB65F",
"2 c #A87F92DFB6FF",
"3 c #ABBF977FB99F",
"4 c #B7FFA7BFC37F",
"5 c #BCDFADFFC75F",
"6 c #BFBFB1DFC9BF",
"7 c #C29FB55FCBFF",
"8 c #C55FB8DFCE3F",
"9 c #C9BCBE5FD1DC",
"0 c #CA3FBEFFD25F",
"q c #CCDAC23AD47D",
"w c #CFDFC63FD6FF",
"e c #D07FC6FFD77F",
"r c #D13FC7DFD83F",
"t c #D8DFD11FDE7F",
"y c #DF5FD91FE41F",
"u c #E19FDBDFE5FF",
"i c #E37FDDFFE77F",
"p c #EB9FE7DFEE7F",
"a c #EE1FEABFF07F",
"s c #EEBFEB9FF11F",
"d c #F07FEDBFF2BF",
"f c #F15FEEBFF35F",
"g c #F1FFEF5FF3DF",
"h c #F93FF81FFA1F",
"j c #FA1FF91FFAFF",
"k c #FBAEFAEDFC3E",
"l c #FBDFFB1FFC7F",
"z c #FC3FFB9FFCBF",
"x c #FC9FFBFFFD1F",
"c c #FD9FFD3FFDFF",
"v c #FDDFFD7FFE1F",
"b c #FEFFFEBFFF1F",
"n c #FFFCFFFCFFFD",
"m c None",
/* pixels */
"mmmmmmmmmmmmmmmmmmmmmmmmmmmmmmmm",
"mmmmmmmmmmmmmmmmmmmmmmmmmmmmmmmm",
"mmmmmmmmmmmmmmmmmmmmmmmmmmmmmmmm",
"                                ",
"................................",
"................................",
"................................",
"................................",
".......@5qqqqqqqqqqqqqq0;o......",
"......+tnnnnnnnnnnnnnnnnj:......",
"......&dnnnnnnnnnnnnnnnnn8......",
"......*gnckkkkkkkkkkkkxnn9......",
"......*gh<$###########-pn9......",
"......*gu..............en9......",
"......*gy..............wn9......",
"......*gy..............wn9......",
"......*gy..............wn9......",
"......*gy..............wn9......",
"......*gy..............wn9......",
"......*gy..............wn9......",
"......*giX.............rn9......",
"......%sl4>:::::::::::3fn6......",
"......o7vnzkkkkkkkkkkkbna=......",
".......O=12222222222222,$.......",
"................................",
"................................",
"................................",
"................................",
"................................",
"................................",
"................................",
"................................"
};
