/* XPM */
static char *maximize_prelight[] = {
/* columns rows colors chars-per-pixel */
"16 16 19 1 ",
"  c #959F7310AA9F",
". c #9AE47AA8AEE4",
"X c #AEDF961FBF1F",
"o c #AF1F96BFBF7F",
"O c #B2FF9B9FC29F",
"+ c #BD0EA37ACE12",
"@ c #BFBFABDFCD5F",
"# c #D03FC03FDB9F",
"$ c #D5BFC6DFE05F",
"% c #E11FD45FEA5F",
"& c #E2DFD67FEBFF",
"* c #E77FDBDFEFFF",
"= c #F07FE63FF7FF",
"- c #F69FED5FFD7F",
"; c #F7EFEECFFE9F",
": c #F8DFEFDFFF7F",
"> c #FF5FF75FFFFF",
", c white",
"< c None",
/* pixels */
"<<<<<<<<<<<<<<<<",
"++++++++++++++++",
"                ",
"                ",
"   @,,,,,,,,%   ",
"   ;,,,,,,,,,   ",
"   :;......*,   ",
"   :&      $,   ",
"   :&      $,   ",
"   :&      $,   ",
"   ->oXXXXX=,   ",
"   O,,,,,,,,#   ",
"                ",
"                ",
"                ",
"                "
};
