/* XPM */
static char *maximize_active[] = {
/* columns rows colors chars-per-pixel */
"16 16 28 1 ",
"  c #75A93B8D9176",
". c #7EE050A097BF",
"X c #829F57A89A64",
"o c #90CA7033A4C4",
"O c #93BF74D0A6DF",
"+ c #9CFF82BFADFF",
"@ c #A91F93DFB77F",
"# c #AD1F997FBA9F",
"$ c #B59FA49FC15F",
"% c #B6DFA65FC27F",
"& c #BA5FAADFC53F",
"* c #C11FB37FCA9F",
"= c #C59FB95FCE7F",
"- c #C68FBA8FCF3F",
"; c #C75FBB5FCFDF",
": c #CC3FC17FD3FF",
"> c #D51FCC7FDB5F",
", c #D724CF04DD04",
"< c #D7FFD03FDDBF",
"1 c #E4BFDF9FE87F",
"2 c #E5DFE0FFE97F",
"3 c #E6BFE21FEA3F",
"4 c #E77FE2FFEAFF",
"5 c #E81FE39FEB7F",
"6 c #FDBFFD5FFDFF",
"7 c #FF1FFEFFFF3F",
"8 c #FF5FFF5FFF7F",
"9 c None",
/* pixels */
"9999999999999999",
"                ",
"................",
"................",
"...+15555554$...",
"...-866666672...",
"...;-XXXXXX&3...",
"...;%......#3...",
"...;%......#3...",
"...;%......#3...",
"...=:oooooo*1...",
"...O>,,,,,,<@...",
"................",
"................",
"................",
"................"
};
