/* XPM */
static char *maximize_inactive[] = {
/* columns rows colors chars-per-pixel */
"16 16 26 1 ",
"  c #857F8040893F",
". c #893F84448CE4",
"X c #97AF93AF9AAF",
"o c #9ABF96DF9D9F",
"O c #A43FA0DFA6BF",
"+ c #AE0BAA43B0EF",
"@ c #B09FADBFB2BF",
"# c #B4BFB21FB6BF",
"$ c #BD7FBB1FBF3F",
"% c #BEDFBC7FC07F",
"& c #C23FC03FC3DF",
"* c #C91FC75FCA9F",
"= c #CDDFCC1FCF3F",
"- c #CEDFCD2FD02F",
"; c #CF9FCDFFD0FF",
": c #D49FD31FD5BF",
"> c #DDBFDC7FDEBF",
", c #DFE4DEA4E0C4",
"< c #E0DFDFBFE1BF",
"1 c #EDDFED1FEE7F",
"2 c #EF1FEE5FEF9F",
"3 c #EFFFEF5FF07F",
"4 c #F0BFF01FF13F",
"5 c #F15FF0BFF1DF",
"6 c white",
"7 c None",
/* pixels */
"7777777777777777",
"++++++++++++++++",
"                ",
"                ",
"   O15555554$   ",
"   -666666662   ",
"   ;-......&3   ",
"   ;%      #3   ",
"   ;%      #3   ",
"   ;%      #3   ",
"   =:XXXXXX*1   ",
"   o>,,,,,,<@   ",
"                ",
"                ",
"                ",
"                "
};
