/* XPM */
static char *maximize_prelight[] = {
/* columns rows colors chars-per-pixel */
"26 26 42 1 ",
"  c black",
". c #0A180A180A18",
"X c #0D320D320D32",
"o c #185418541854",
"O c #1BB41BB41BB4",
"+ c #1D211D211D21",
"@ c #1F5C1F5C1F5C",
"# c #216821682168",
"$ c #21B821B821B8",
"% c #23C823C823C8",
"& c #254025402540",
"* c #2E182E182E18",
"= c #34A834A834A8",
"- c #34E934E934E9",
"; c #36A036A036A0",
": c #3AC83AC83AC8",
"> c #4BD04BD04BD0",
", c #4DF04DF04DF0",
"< c #506450645064",
"1 c #594059405940",
"2 c #5DC05DC05DC0",
"3 c #5E005E005E00",
"4 c #5F755F755F75",
"5 c #76E076E076E0",
"6 c #7E707E707E70",
"7 c #898A898A898A",
"8 c #8A9F8A9F8A9F",
"9 c #8B9F8B9F8B9F",
"0 c #8D1F8D1F8D1F",
"q c #AB0FAB0FAB0F",
"w c #E1FFE1FFE1FF",
"e c #E27FE27FE27F",
"r c #E3FFE3FFE3FF",
"t c #E6CFE6CFE6CF",
"y c #EC1FEC1FEC1F",
"u c #EF17EF17EF17",
"i c #F03FF03FF03F",
"p c #F8B4F8B4F8B4",
"a c #FBEFFBEFFBEF",
"s c #FEBFFEBFFEBF",
"d c white",
"f c None",
/* pixels */
"ffffffffffffffffffffffffff",
"ffffffffffffffffffffffffff",
"ffffffffffffffffffffffffff",
";;;;;;;;;;;;;;;;;;;;;;;;;;",
";;;;;;;;;;;;;;;;;;;;;;;;;;",
";;;;;;;;;;;;;;;;;;;;;;;;;;",
";;;;;;;;;;;;;;;;;;;;;;;;;;",
";;;;;;;;=#++++++@*;;;;;;;;",
";;;;;;;O1977777785 ;;;;;;;",
";;;;;;;*dddddddddd0$;;;;;;",
";;;;;;;>dtwwwwwwedq ;;;;;;",
";;;;;;;,a        iq ;;;;;;",
";;;;;;;<p ;;;;;; uq ;;;;;;",
";;;;;;;<p ;;;;;; uq ;;;;;;",
";;;;;;;<p ;;;;;; uq ;;;;;;",
";;;;;;;<a        uq.;;;;;;",
";;;;;;;%syrrrrrrtd6&;;;;;;",
";;;;;;;&o24444443:X;;;;;;;",
";;;;;;;;;;------;;;;;;;;;;",
";;;;;;;;;;;;;;;;;;;;;;;;;;",
";;;;;;;;;;;;;;;;;;;;;;;;;;",
";;;;;;;;;;;;;;;;;;;;;;;;;;",
";;;;;;;;;;;;;;;;;;;;;;;;;;",
";;;;;;;;;;;;;;;;;;;;;;;;;;",
";;;;;;;;;;;;;;;;;;;;;;;;;;",
";;;;;;;;;;;;;;;;;;;;;;;;;;"
};
