/* XPM */
static char *maximize_prelight[] = {
/* columns rows colors chars-per-pixel */
"22 22 29 1 ",
"  c #959F7310AA9F",
". c #97DF7660AC7F",
"X c #98FF7810AD5F",
"o c #9CDF7DA0B07F",
"O c #9D9F7EB0B11F",
"+ c #9EFD7F3DB2F0",
"@ c #9E9F8020B1C3",
"# c #A43F87DFB65F",
"$ c #A47F883FB69F",
"% c #A57F899FB76F",
"& c #A6DF8B9BB89B",
"* c #B1DF9A1FC1BF",
"= c #B2BF9B3FC25F",
"- c #B61F9F9FC55F",
"; c #B83FA25FC71F",
": c #B95FA3BFC7FF",
"> c #BE7FAA5FCC5F",
", c #BF5FAB5FCD1F",
"< c #C07FACBFCE1F",
"1 c #C91FB75FD55F",
"2 c #D09FC083DBE3",
"3 c #D15FC17FDC9F",
"4 c #E65FDA7FEEFF",
"5 c #F5FFEC7FFCDF",
"6 c #FEDFF6DFFFFF",
"7 c #FFFFF91FFFFF",
"8 c #FFFFFA5FFFFF",
"9 c white",
"0 c None",
/* pixels */
"0000000000000000000000",
"0000000000000000000000",
"++++++++++++++++++++++",
"                      ",
"                      ",
"     #>,,,,,,,,,*     ",
"    O9999999999993    ",
"    ;9999999999997    ",
"    :9522222222498    ",
"    :9%         98    ",
"    :9$         98    ",
"    :9$         98    ",
"    :9$         98    ",
"    :9$         98    ",
"    -91@@@@@@@@=96    ",
"    X999999999999<    ",
"     .%&&&&&&&&&o     ",
"                      ",
"                      ",
"                      ",
"                      ",
"                      "
};
