/* XPM */
static char *maximize_toggled_pressed[] = {
/* columns rows colors chars-per-pixel */
"16 16 27 1 ",
"  c #959F7310AA9F",
". c #968F7480AB7F",
"X c #97FF7680AC9F",
"o c #985F7710ACDF",
"O c #98FF77B0AD9F",
"+ c #9B3F7AB0AF7F",
"@ c #9B5F7B80AF3F",
"# c #9E7F7FF0B1DF",
"$ c #9F3F80FFB25F",
"% c #A07F82BFB37F",
"& c #A2DF85FFB55F",
"* c #A85F8D7FB9DF",
"= c #B3FF9CDFC37F",
"- c #BD7FA8DFCB7F",
"; c #BDBFA95FCBBF",
": c #BE5FAA3FCC5F",
"> c #C303AB5DD300",
", c #C5E6AEF7D585",
"< c #C806B16FD769",
"1 c #CADFB97FD6DF",
"2 c #CBBFBABFD7BF",
"3 c #D05FC05FDBBF",
"4 c #E3DFD77FECD2",
"5 c #FA1FF15FFFFF",
"6 c #FD1FF4BFFFFF",
"7 c white",
"8 c None",
/* pixels */
"8888888888888888",
"<,>>>>>>>>>>>>>>",
"+O              ",
"+O              ",
"+O              ",
"+O   &-;;;;;;=. ",
"+O  X7777777772 ",
"+O  @7777777774 ",
"+O  @7%      74 ",
"+O  @7#      74 ",
"+O  @7#      74 ",
"+O  @7$      74 ",
"+O  o7755555673 ",
"+O   *1222222:. ",
"+O              ",
"+O              "
};
