/* XPM */
static char *menu_toggled_inactive[] = {
/* columns rows colors chars-per-pixel */
"32 32 66 1 ",
"  c #83607E31873F",
". c #84AF7F80886F",
"X c #853F804088FF",
"o c #85FF80FF89BF",
"O c #863F813F89DF",
"+ c #86A5818C8A62",
"@ c #87A582AC8B4E",
"# c #882183248BDF",
"$ c #88CF83DF8C5F",
"% c #89FF851F8D5F",
"& c #8A3F858F8DBF",
"* c #8ABF85FF8E1F",
"= c #8DBF88FF913F",
"- c #8F7D8AC19305",
"; c #907F8C1F93DF",
": c #92DF8E7F95FF",
"> c #939F8F3F96CF",
", c #951F90DF985F",
"< c #969F925F99BF",
"1 c #97FF93BF9AFF",
"2 c #989F949F9B9F",
"3 c #9ADF96DF9DBF",
"4 c #9EAF9ACFA17F",
"5 c #9F1F9B3FA1FF",
"6 c #A00F9C4FA2CF",
"7 c #A83FA51FAABF",
"8 c #ADDFAADFB01F",
"9 c #B65FB3BFB85F",
"0 c #B91FB69FBAFF",
"q c #BADFB87FBC9F",
"w c #BBBFB97FBDBF",
"e c #BC3FB9DFBE1F",
"r c #BC7FBA1FBE5F",
"t c #BCBFBA5FBE7F",
"y c #BD7FBB1FBF5F",
"u c #BE5FBBFFC03F",
"i c #BF1FBCBFC0DF",
"p c #C09FBE5FC23F",
"a c #C33FC11FC4DF",
"s c #C35FC13FC4FF",
"d c #C4BFC2BFC65F",
"f c #C6DFC4BFC85F",
"g c #C7A4C5BFC924",
"h c #C9DFC7FFCB5F",
"j c #D75FD5FFD89F",
"k c #DB3FD9DFDC5F",
"l c #DD1FDBDFDE1F",
"z c #DFFFDEBFE0FF",
"x c #E1FFE0DFE2DF",
"c c #E55FE43FE61F",
"v c #E69FE59FE75F",
"b c #ECFFEC3FEDBF",
"n c #EEDFEE1FEF7F",
"m c #F47FF3FFF4FF",
"M c #F63FF5BFF6BF",
"N c #F69FF5FFF71F",
"B c #F75FF6DFF7DF",
"V c #F8DFF85FF93F",
"C c #F91FF89FF97F",
"Z c #FA1FF9DFFA9F",
"A c #FB7FFAFFFBBF",
"S c #FC7FFC1FFCDF",
"D c #FDBFFD5FFDFF",
"F c #FF5FFEFFFF9F",
"G c white",
"H c None",
/* pixels */
"HHHHHHHHHHHHHHHHHHHHHHHHHHHHHHHH",
"HHHHHHHHHHHHHHHHHHHHHHHHHHHHHHHH",
"HHHHHHHHHHHHHHHHHHHHHHHHHHHHHHHH",
"--------------------------------",
"                                ",
"                                ",
"                                ",
"                                ",
"     @@@@X .;41$    +>5,#       ",
"    @bNNNy2xGGGVtX 8nGGGBw.     ",
"    #DGGGjmGGGGGGe0GGGGGGG9     ",
"    #DGGGGGGGGGGGGFGGGGGGGM@    ",
"    #DGGGGv6,lGGGGGc4<zGGGG7    ",
"    #DGGGA>  6GGGGZ:  3GGGGq    ",
"    #DGGGk   =GGGGk   @GGGGu    ",
"    #DGGGh   $GGGGf   OGGGGi    ",
"    #DGGGg   @GGGGs   +GGGGi    ",
"    #DGGGg   @GGGGa   +GGGGi    ",
"    #DGGGg   @GGGGa   +GGGGi    ",
"    #DGGGg   @GGGGa   +GGGGi    ",
"    #DGGGg   @GGGGa   +GGGGi    ",
"    #DGGGg   @GGGGa   +GGGGi    ",
"    @CGGGd   @SGGGp   +GGGGr    ",
"     %***+    &***O    &***o    ",
"                                ",
"                                ",
"                                ",
"                                ",
"                                ",
"                                ",
"                                ",
"                                "
};
