/* XPM */
static char *menu_inactive[] = {
/* columns rows colors chars-per-pixel */
"22 22 48 1 ",
"  c #835F7E30873F",
". c #841F7EF087DF",
"X c #843F7F1087FF",
"o c #84CF7FA38895",
"O c #89CF84EF8D5F",
"+ c #8B7F86BF8EFF",
"@ c #8C9687B4902C",
"# c #9E3F9A9FA0DF",
"$ c #A3F2A092A672",
"% c #AB5FA83FAD9F",
"& c #AEFFAC1FB13F",
"* c #B23FAF7FB45F",
"= c #B37FB0DFB57F",
"- c #B47FB1BFB67F",
"; c #B5BFB31FB7BF",
": c #B9DFB76FBBAF",
"> c #BC7FBA1FBE5F",
", c #BD3FBAFFBF1F",
"< c #BDBFBB5FBF7F",
"1 c #BE5FBC3FC03F",
"2 c #BF7FBD3FC13F",
"3 c #C2DFC0DFC47F",
"4 c #C61FC43FC7BF",
"5 c #C73FC55FC8BF",
"6 c #CF3FCD9FD087",
"7 c #D19FCFFFD2FF",
"8 c #D27FD0DFD39F",
"9 c #D2FFD17FD43F",
"0 c #D3FFD27FD51F",
"q c #D71FD59FD83F",
"w c #E2FFE1FAE3DA",
"e c #E47FE37FE55F",
"r c #E6FFE5FFE7BF",
"t c #EA4AE98AEB0A",
"y c #EE1FED7FEEDF",
"u c #F09FEFFFF11F",
"i c #F31FF27FF39F",
"p c #F37FF2DFF3FF",
"a c #F3DFF35FF47F",
"s c #F45FF3BFF4DF",
"d c #F4BFF43FF53F",
"f c #F53FF49FF5BF",
"g c #F57FF4FFF5FF",
"h c #FC5FFBFFFCBF",
"j c #FC7FFC1FFCDF",
"k c #FDBFFD5FFDFF",
"l c white",
"z c None",
/* pixels */
"zzzzzzzzzzzzzzzzzzzzzz",
"zzzzzzzzzzzzzzzzzzzzzz",
"@@@@@@@@@@@@@@@@@@@@@@",
"                      ",
"                      ",
"        oOX   oOo     ",
"   2tt>:aju& :ihf<    ",
"   9llplllll7lllll*   ",
"   9lllq;gllle-tllw   ",
"   9llyo 5llk+ %lli.  ",
"   9ll8  1llr  $llso  ",
"   9ll6  ,llw  $llso  ",
"   9ll6  ,llw  $llso  ",
"   9ll6  ,llw  $llso  ",
"   9ll6  ,llw  $llso  ",
"   4dd3  =dd0  #ddwo  ",
"                      ",
"                      ",
"                      ",
"                      ",
"                      ",
"                      "
};
