/* XPM */
static char *menu_active[] = {
/* columns rows colors chars-per-pixel */
"22 22 57 1 ",
"  c #79BF465593E9",
". c #7CB04CC095FF",
"X c #7CE04D00961F",
"o c #7D104D70963F",
"O c #7D784E50968F",
"+ c #7DE04F0896DF",
"@ c #7E284F9596FA",
"# c #7E404FC0971F",
"$ c #7E505000971F",
"% c #82DF58E09A7F",
"& c #831F59209A9F",
"* c #84BF5C209BBF",
"= c #971F7A20A95F",
"- c #9CCC826CADD2",
"; c #A3FF8CBFB33F",
": c #A77F91BFB5FF",
"> c #AA9F961FB87F",
", c #ABFF97BFB99F",
"< c #ACDF98FFBA5F",
"1 c #ADFF9A9FBB3F",
"2 c #B1DF9FDFBE5F",
"3 c #B23FA03FBE9F",
"4 c #B4BFA35FC09F",
"5 c #B57FA47FC13F",
"6 c #B5DFA51FC17F",
"7 c #B69FA5FFC21F",
"8 c #B79FA73FC2FF",
"9 c #BAFFAB9FC5BF",
"0 c #BE1FAFBFC85F",
"q c #BF1FB11FC91F",
"w c #C6FFBAFFCF7F",
"e c #C93FBDDFD17F",
"r c #CA1FBEDFD21F",
"t c #CA9FBF7FD29F",
"y c #CB9FC0BFD35F",
"u c #CE9FC47FD5DF",
"i c #DA2CD2B2DFA5",
"p c #DA5FD2FFDFBF",
"a c #DB9FD49FE0DF",
"s c #DDFFD75FE2DF",
"d c #E14ADB6AE58A",
"f c #E4FFDFFFE8DF",
"g c #E75FE2BFEADF",
"h c #E9FFE5D4ED0A",
"j c #EAEFE70AEDEF",
"k c #EB7FE79FEE3F",
"l c #EBDFE81FEE9F",
"z c #EC1FE87FEEDF",
"x c #F2DFF05FF49F",
"c c #F2DFF07FF4BF",
"v c #F41FF1FFF5BF",
"b c #F9DFF8BFFA9F",
"n c #FCAFFC0FFD1F",
"m c #FD5FFCDFFDBF",
"M c #FE1FFDBFFE5F",
"N c #FE9EFE3EFEBE",
"B c None",
/* pixels */
"BBBBBBBBBBBBBBBBBBBBBB",
"BBBBBBBBBBBBBBBBBBBBBB",
"                      ",
"......................",
"......................",
"........#&O...+%@.....",
"...8dd42jcg:o3hxl6X...",
"...tNNhnNNNbemNNNn>...",
"...tNNMu1zNNNa<dNNp...",
"...tNNf$.qNNv*.;NNhO..",
"...tNNr..7NNs..-NNj@..",
"...tNNw..5NNi..-NNj@..",
"...tNNw..5NNi..-NNj@..",
"...tNNw..5NNi..-NNj@..",
"...tNNw..5NNi..-NNj@..",
"...0kk9..,kky..=kkp+..",
"......................",
"......................",
"......................",
"......................",
"......................",
"......................"
};
