/* XPM */
static char *menu_prelight[] = {
/* columns rows colors chars-per-pixel */
"16 16 30 1 ",
"  c #92BF6F20A83F",
". c #931F6FA0A87F",
"X c #943F7130A97F",
"o c #95BF7360AA9F",
"O c #985F7740ACBF",
"+ c #A3AF877FB5DF",
"@ c #AABF911FBB9F",
"# c #ACBF93BFBD5F",
"$ c #B6DC9B7DC8CF",
"% c #C27FAF7FCF9F",
"& c #C397B0C7D097",
"* c #C6DFB4DFD35F",
"= c #CADFB9AFD6BF",
"- c #CE3FBDDFD9BF",
"; c #CEFFBEBFDA5F",
": c #D63FC77FE0BF",
"> c #D8DFCA9FE2FF",
", c #D95FCB3FE37F",
"< c #DFFFD31FE95F",
"1 c #E2DFD67FEBDF",
"2 c #EFBFE57FF73F",
"3 c #F5DFEC7FFC9F",
"4 c #F67FED1FFD3F",
"5 c #F8BFEFDFFF3F",
"6 c #FB47F2BFFFFF",
"7 c #FBBFF347FFFF",
"8 c #FFFFFD1FFFFF",
"9 c #FFFFFEFFFFFF",
"0 c white",
"q c None",
/* pixels */
"qqqqqqqqqqqqqqqq",
"$$$$$$$$$$$$$$$$",
"                ",
"                ",
"  &2,%87@+49>.  ",
"  30000000000:  ",
"  300=*000+000  ",
"  300 O00; 600  ",
"  300 o00& 600  ",
"  300 o00& 600  ",
"  300 o00& 600  ",
"  =71 X57# -7<  ",
"                ",
"                ",
"                ",
"                "
};
