/* XPM */
static char *menu_toggled_pressed[] = {
/* columns rows colors chars-per-pixel */
"16 16 39 1 ",
"  c #92C16F22A841",
". c #932A6FC0A894",
"X c #937F7020A8BF",
"o c #93FF70D2A94D",
"O c #949771B6A9BB",
"+ c #94DF7230A9EA",
"@ c #955F7300AA5F",
"# c #97FF7640ACBF",
"$ c #991F7870AD5F",
"% c #9B7F7BD0AF1F",
"& c #9B3F7AB0AF7F",
"* c #9B7F7BF0AF5F",
"= c #9BDF7C60AF9F",
"- c #9C5F7D40AFFF",
"; c #9DBF7F00B11F",
": c #9E5F8000B17F",
"> c #AA1F903FBB1F",
", c #ABDF927FBC9F",
"< c #ACBF939FBD4F",
"1 c #AFDF97BFBFDF",
"2 c #B0DF98FFC0DF",
"3 c #B6FFA0DFC5FF",
"4 c #C055A839D08D",
"5 c #C4FAADCDD4B7",
"6 c #C806B16FD769",
"7 c #D27FC2DFDD7F",
"8 c #D47FC55FDF3F",
"9 c #D53FC63FDFFF",
"0 c #DA9FCC7FE49F",
"q c #DB5FCD7FE53F",
"w c #DCFFCF5FE6BF",
"e c #E69FDABFEF3F",
"r c #E77FDBDFEFFF",
"t c #E7FFDC5FF07F",
"y c #EBEFE0FFF3FF",
"u c #F35FE99FFA9F",
"i c #FFFFF91FFFFF",
"p c white",
"a c None",
/* pixels */
"aaaaaaaaaaaaaaaa",
"6544444444444444",
"&#              ",
"&#              ",
"&#              ",
"&#  O+X@;+ .=$  ",
"&# Oppyppp3pppy.",
"&# Oppppppppppp2",
"&# Oppi.upp<*pp7",
"&# Oppw tpp+opp9",
"&# Oppq rppoopp9",
"&# Oppq rppoopp9",
"&# Opp0 eppoopp8",
"&# .,1- :1>  <1%",
"&#              ",
"&#              "
};
