/* XPM */
static char *menu_inactive[] = {
/* columns rows colors chars-per-pixel */
"26 26 49 1 ",
"  c #696069606960",
". c #730073007300",
"X c #75D075D075D0",
"o c #798079807980",
"O c #7BA57BA57BA5",
"+ c #7CC07CC07CC0",
"@ c #7D857D857D85",
"# c #7EE07EE07EE0",
"$ c #7F807F807F80",
"% c #80A080A080A0",
"& c #818A818A818A",
"* c #828F828F828F",
"= c #83B783B783B7",
"- c #842F842F842F",
"; c #85BF85BF85BF",
": c #869786978697",
"> c #876787678767",
", c #887F887F887F",
"< c #89AA89AA89AA",
"1 c #8A9F8A9F8A9F",
"2 c #8B7F8B7F8B7F",
"3 c #8CFF8CFF8CFF",
"4 c #8D1F8D1F8D1F",
"5 c #8ED48ED48ED4",
"6 c #8F7F8F7F8F7F",
"7 c #91FF91FF91FF",
"8 c #929F929F929F",
"9 c #93FE93FE93FE",
"0 c #9BBF9BBF9BBF",
"q c #AEEAAEEAAEEA",
"w c #AFBFAFBFAFBF",
"e c #B49FB49FB49F",
"r c #BF6FBF6FBF6F",
"t c #C09FC09FC09F",
"y c #C4DFC4DFC4DF",
"u c #C8DFC8DFC8DF",
"i c #CD0FCD0FCD0F",
"p c #CD9FCD9FCD9F",
"a c #D23FD23FD23F",
"s c #D4BFD4BFD4BF",
"d c #E29FE29FE29F",
"f c #E6EFE6EFE6EF",
"g c #E77FE77FE77F",
"h c #EA5FEA5FEA5F",
"j c #F00FF00FF00F",
"k c #F97FF97FF97F",
"l c #FF4AFF4AFF4A",
"z c #FFFEFFFEFFFE",
"x c None",
/* pixels */
"xxxxxxxxxxxxxxxxxxxxxxxxxx",
"xxxxxxxxxxxxxxxxxxxxxxxxxx",
"xxxxxxxxxxxxxxxxxxxxxxxxxx",
"99999999999999999999999999",
"99999999999999999999999999",
"99999999999999999999999999",
"99999999999999999999999999",
"99999999999999999999999999",
"9999991@O%O6&*>+5&*7999999",
"999995tzzdzzzjwzzzz=999999",
"999994tzzzzzzzzzzzzr499999",
"999993rzzz uzzz.0zzk:99999",
"999993rzzs%wzzj&Xzzl-99999",
"999993rzzi;qzzf:ozzl=99999",
"999993rzzi;qzzf>ozzl=99999",
"999994rzzp;qzzg>ozzz-99999",
"999995yzza<ezzh<*zzz>99999",
"9999991@@<82#+,93$O>899999",
"99999999999999999999999999",
"99999999999999999999999999",
"99999999999999999999999999",
"99999999999999999999999999",
"99999999999999999999999999",
"99999999999999999999999999",
"99999999999999999999999999",
"99999999999999999999999999"
};
