/* XPM */
static char *menu_pressed[] = {
/* columns rows colors chars-per-pixel */
"32 32 66 1 ",
"  c #92BF6F20A83F",
". c #93486FC9A8A4",
"X c #938F7038A8E7",
"o c #93FF70D0A93F",
"O c #949A719BA9BB",
"+ c #94F5723BAA15",
"@ c #951F726CAA1F",
"# c #955572A3AA6C",
"$ c #95BF7370AAAA",
"% c #961F73B3AB04",
"& c #967D744FAB5D",
"* c #973F759DABE5",
"= c #979F7610AC1F",
"- c #97FF76D0AC6F",
"; c #997F78F0AD9F",
": c #997F7900AD9F",
"> c #9A3F7A00AE3F",
", c #9B3F7AABAF7F",
"< c #9BFF7C50AFBF",
"1 c #9C1F7CB0AFBF",
"2 c #9E9F8040B1DF",
"3 c #9F3F80DFB25F",
"4 c #A02480A4B3E2",
"5 c #A2338370B5B0",
"6 c #A4BF889FB6DF",
"7 c #A5BF8A3FB79F",
"8 c #A65F8B1FB81F",
"9 c #A71F8BDFB8BF",
"0 c #A89F8DDFB9FF",
"q c #A9D08D4DBC22",
"w c #A9BF8F7FBAFF",
"e c #A9D08D62BC4B",
"r c #ACDF939FBD7F",
"t c #AF1F969FBF7F",
"y c #B0FF991FC11F",
"u c #B19F99FFC17F",
"i c #B21F9A7FC1DF",
"p c #B39F9C9FC33F",
"a c #B55F9EBFC47F",
"s c #B67FA01FC59F",
"d c #B9FFA4BFC87F",
"f c #BB9FA6BFC9DF",
"g c #BD5FA8FFCB5F",
"h c #C7FFB63FD47F",
"j c #D21FC25FDD5F",
"k c #D31FC37FDE1F",
"l c #DA0FCBDFE42F",
"z c #DABFCC9FE4DF",
"x c #DC9FCEDFE67F",
"c c #DF5FD23FE8FF",
"v c #E33FD69FEC3F",
"b c #E4FFD8BFEDDF",
"n c #E8DFDD3FF13F",
"m c #E95FDDFFF1BF",
"M c #EC1FE11FF43F",
"N c #EE3FE39FF5FF",
"B c #F2FFE8FFFA3F",
"V c #F83FEF1FFEFF",
"C c #FD5FF4FFFFFF",
"Z c #FFDFF7BFFFFF",
"A c #FFFFF9BFFFFF",
"S c #FFFFFAFFFFFF",
"D c #FFFFFC5FFFFF",
"F c #FFFFFEDFFFFF",
"G c white",
"H c None",
/* pixels */
"HHHHHHHHHHHHHHHHHHHHHHHHHHHHHHHH",
"HHHHHHHHHHHHHHHHHHHHHHHHHHHHHHHH",
"HHHHHHHHHHHHHHHHHHHHHHHHHHHHHHHH",
"eeq54444444444444444444444444444",
",,,O                            ",
",,,O                            ",
",,,O                            ",
",,,O                            ",
",,,O                            ",
",,,O                            ",
",,,O                            ",
",,,O    $***# X109>X   +2w6;.   ",
",,,O   #BGGGn3bGGGGz:.rVGGGGl-  ",
",,,O   &GGGGGZGGGGGGmsGGGGGGGvO ",
",,,O   &GGGGGGGGGGGGGGGGGGGGGGy ",
",,,O   &GGGGGGNjGGGGGGGMkGGGGGc ",
",,,O   &GGGGGxO uGGGGGlo tGGGGC.",
",,,O   &GGGGG8  <GGGGG7  *GGGGSO",
",,,O   &GGGGG=  =GGGGG-  +GGGGD@",
",,,O   &GGGGG@  %GGGGG#  #GGGGD@",
",,,O   &GGGGG+  %GGGGG@  #GGGGD@",
",,,O   &GGGGG+  %GGGGG@  #GGGGD@",
",,,O   &GGGGG+  %GGGGG@  #GGGGD@",
",,,O   &GGGGG+  %GGGGG@  #GGGGD@",
",,,O   &GGGGG+  %GGGGG@  #GGGGD@",
",,,O   &GGGGG+  %GGGGF+  #GGGGA@",
",,,O   Xdhhha.  Xfhhhp.  .ghhhi.",
",,,O                            ",
",,,O                            ",
",,,O                            ",
",,,O                            ",
",,,O                            "
};
