/* XPM */
static char *menu_pressed[] = {
/* columns rows colors chars-per-pixel */
"22 22 46 1 ",
"  c #92C06F21A840",
". c #931F6F90A87F",
"X c #93B77072A903",
"o c #947D718EA9BC",
"O c #94DF7220A9DF",
"+ c #955F72F0AA5F",
"@ c #95BF735AAAB9",
"# c #961F73F0AAFF",
"$ c #963F7430AAFF",
"% c #967F74A0AB3F",
"& c #997F7910AD9F",
"* c #9A1F7A00AE1F",
"= c #9B3F7AB0AF7F",
"- c #9D2F7CF6B140",
"; c #9E3F7FC0B17F",
": c #9F297F8BB2EC",
"> c #A27F85DFB4FF",
", c #A33F869FB57F",
"< c #A47F8879B699",
"1 c #A5DF8A5FB7AF",
"2 c #A65E8906B92C",
"3 c #A7FF8D34B96A",
"4 c #A9B28F6FBAD5",
"5 c #B07F985FC09F",
"6 c #B19F99FFC17F",
"7 c #B55F9EBFC49F",
"8 c #B61F9FDFC53F",
"9 c #B79FA19FC69F",
"0 c #BA7FA53FC8FF",
"q c #BAFFA5FFC97F",
"w c #BD9FA91FCB9F",
"e c #C91FB77FD55F",
"r c #CF7FBF3FDAFF",
"t c #D35FC3DFDE3F",
"y c #D5BFC6BFE05F",
"u c #D91FCADFE35F",
"i c #DA5FCC5FE47F",
"p c #DF9FD27FE8FF",
"a c #E0FFD40FEA4F",
"s c #FA5FF19FFFFF",
"d c #FD5FF4FFFFFF",
"f c #FD7FF53FFFFF",
"g c #FFFFF87FFFFF",
"h c #FFFFFAFFFFFF",
"j c white",
"k c None",
/* pixels */
"kkkkkkkkkkkkkkkkkkkkkk",
"kkkkkkkkkkkkkkkkkkkkkk",
"22:-------------------",
"==o                   ",
"==o                   ",
"==o                   ",
"==o                   ",
"==o       .+X   .+X   ",
"==o  qffa5hjjeX6gjju+ ",
"==o  ijjjjjjjjajjjjjp ",
"==o  ijjjjsjjjjjdjjjj&",
"==o  ijjj8 tjjjr 7jjj1",
"==o  ijjj$ wjjj; <jjj4",
"==o  ijjjX 0jjj# <jjj4",
"==o  ijjjX 0jjj@ <jjj4",
"==o  ijjjX 0jjj@ <jjj4",
"==o  ijjjX 0jjj@ <jjj4",
"==o  yjjjX 9jjj@ ,jjj3",
"==o  *44>  %441. o343O",
"==o                   ",
"==o                   ",
"==o                   "
};
