/* XPM */
static char *menu_prelight[] = {
/* columns rows colors chars-per-pixel */
"32 32 54 1 ",
"  c #92C06F21A840",
". c #939F7050A8DF",
"X c #941F7120A95F",
"o c #94FF7270A9FF",
"O c #957F7328AA5F",
"+ c #967F74A0AB1F",
"@ c #96BF74B0AB9F",
"# c #96BF7520AB5F",
"$ c #976B75B2AC0F",
"% c #975F7600ABDF",
"& c #9889776BACFF",
"* c #98BF77C0AD3F",
"= c #994F78A7AD89",
"- c #999F7930AD9F",
"; c #9A1F79B0AE3F",
": c #9A7F7A70AE5F",
"> c #9BFF7CB0AF7F",
", c #9C8F7D78AFEF",
"< c #9DDB7D6FB1FE",
"1 c #9CFF7E40B05F",
"2 c #A11F839FB3DF",
"3 c #A4FF891FB6FF",
"4 c #A83F8D7FB99F",
"5 c #A93F8ECFBA6F",
"6 c #AB3F918FBC3F",
"7 c #AD5F943FBDDF",
"8 c #AF1F967FBF5F",
"9 c #B01F981FC03F",
"0 c #B2FF9BBFC29F",
"q c #B7DFA1FFC6BF",
"w c #B85FA29FC71F",
"e c #B8BFA31FC77F",
"r c #BA0FA4BFC86F",
"t c #C51FB2DFD1FF",
"y c #CCBFBBBFD87F",
"u c #D7BFC93FE21F",
"i c #DB5FCD9FE55F",
"p c #DDBFD05FE75F",
"a c #DEFFD1DFE87F",
"s c #DFCFD2BFE93F",
"d c #E01FD31FE97F",
"f c #E13FD45FEA7F",
"g c #E25FD5BFEB7F",
"h c #E35FD6DFEC3F",
"j c #E53FD91FEDFF",
"k c #E8BFDD1FF11F",
"l c #E8DFDD5FF13F",
"z c #EABFDF7FF2DF",
"x c #ED5FE29FF53F",
"c c #EE84E3E4F63F",
"v c #F15FE73FF8DF",
"b c #FFFFFB5FFFFF",
"n c white",
"m c None",
/* pixels */
"mmmmmmmmmmmmmmmmmmmmmmmmmmmmmmmm",
"mmmmmmmmmmmmmmmmmmmmmmmmmmmmmmmm",
"mmmmmmmmmmmmmmmmmmmmmmmmmmmmmmmm",
"<<<<<<<<<<<<<<<<<<<<<<<<<<<<<<<<",
"                                ",
"                                ",
"                                ",
"                                ",
"     &===O o3w8:    %5e6-       ",
"    &nnnnf9nnnnndO.ynnnnnaX     ",
"    =nnnnbnnnnnnnsinnnnnnnu     ",
"    =nnnnnnnnnnnnnnnnnnnnnn&    ",
"    =nnnnnnr6nnnnnnnq7nnnnnt    ",
"    =nnnnn5  rnnnnn4  0nnnnp    ",
"    =nnnnn   2nnnnn   *nnnng    ",
"    =nnnnv   ;nnnnx   @nnnnh    ",
"    =nnnnc   &nnnnl   $nnnnh    ",
"    =nnnnc   &nnnnk   $nnnnh    ",
"    =nnnnc   &nnnnk   $nnnnh    ",
"    =nnnnc   &nnnnk   $nnnnh    ",
"    =nnnnc   &nnnnk   $nnnnh    ",
"    =nnnnc   &nnnnk   $nnnnh    ",
"    =nnnnz   &nnnnj   $nnnns    ",
"     >111$    ,111#    ,111+    ",
"                                ",
"                                ",
"                                ",
"                                ",
"                                ",
"                                ",
"                                ",
"                                "
};
