/* XPM */
static char *menu_inactive[] = {
/* columns rows colors chars-per-pixel */
"16 16 38 1 ",
"  c #835F7E30873F",
". c #845F7F40883F",
"X c #857F8060893F",
"o c #875F825F8B1F",
"O c #8F7F8AFF92DF",
"+ c #8F9F8B1F92DF",
"@ c #949F907F97BF",
"# c #961F921F993F",
"$ c #A63FA2FFA8BF",
"% c #A6FFA3CAA96A",
"& c #A73FA3FFA9BF",
"* c #A99FA65FABFF",
"= c #AA2FA625AD19",
"- c #AC7FA98FAEBF",
"; c #AEFFAC3FB13F",
": c #AF9FACBFB1BF",
"> c #B51FB27FB71F",
", c #B71FB49FB8FF",
"< c #B77FB4FFB97F",
"1 c #BC7FBA3FBE5F",
"2 c #BEBFBC7FC05F",
"3 c #C87FC6BFCA1F",
"4 c #CD3FCB9FCE7F",
"5 c #CDBFCBFFCEFF",
"6 c #CF5FCDDFD0BF",
"7 c #D1A3D013D2D7",
"8 c #D87FD71FD99F",
"9 c #D9BFD87FDADF",
"0 c #E0FFDFDFE1DF",
"q c #E3FFE31FE4DF",
"w c #E739E659E7F9",
"e c #EABFE9FFEB7F",
"r c #EF7FEEBFF01F",
"t c #F35FF2BFF3DF",
"y c #F51FF49FF59F",
"u c #FC9FFC3FFCFF",
"i c white",
"p c None",
/* pixels */
"pppppppppppppppp",
"================",
"                ",
"                ",
"  &3<$87@+59,   ",
"  4iuiiiytiii>  ",
"  4ii-*iiqOwi0  ",
"  4ir oii: 7iw  ",
"  4ie Xii% 7iw  ",
"  4ie Xii% 7iw  ",
"  4ie Xii% 7iw  ",
"  -72 .67# ;71  ",
"                ",
"                ",
"                ",
"                "
};
