/* XPM */
static char *menu_toggled_active[] = {
/* columns rows colors chars-per-pixel */
"16 16 46 1 ",
"  c #6DC622628BE5",
". c #7CB04CC095FF",
"X c #7CF04D40961F",
"o c #7DC04ED096BF",
"O c #7EE050E0979F",
"+ c #809F548098DF",
"@ c #88BF63209E9F",
"# c #8DBF6BA0A23F",
"$ c #8F3F6DF0A35F",
"% c #9EFF85BFAF5F",
"& c #9FBF86BFAFFF",
"* c #9FFF871FB01F",
"= c #A21F8A3FB1DF",
"- c #A51F8E5FB41F",
"; c #A77F91DFB5FF",
": c #A81F929FB67F",
"> c #AD7F99FFBADF",
", c #AF9F9CBFBC7F",
"< c #B4BFA39FC09F",
"1 c #B6DFA65FC25F",
"2 c #C05FB2DFCA1F",
"3 c #C4FFB87FCDFF",
"4 c #C57FB91FCE3F",
"5 c #C71FBB3FCF7F",
"6 c #C91FBDBFD13F",
"7 c #C91FBDBFD15F",
"8 c #C967BE1FD187",
"9 c #CFDFC63FD6DF",
"0 c #D13FC7BFD7FF",
"q c #D83FD05FDDDF",
"w c #DB3FD41FE07F",
"e c #DE3FD7BFE2FF",
"r c #DE5FD7DFE31F",
"t c #E1BFDBFFE5FF",
"y c #E65FE15FE9DF",
"u c #EA1FE5FFED1F",
"i c #EBDFE81FEE9F",
"p c #F2FFF09FF4BF",
"a c #F91FF7DFF9FF",
"s c #FB27FA2FFBC7",
"d c #FB5FFA7FFBFF",
"f c #FCDFFC5FFD5F",
"g c #FD5FFCFFFDBF",
"h c #FD9FFD2FFDEF",
"j c #FE9DFE3DFEBD",
"k c None",
/* pixels */
"kkkkkkkkkkkkkkkk",
"                ",
"................",
"................",
"..*2,%98#@40,X..",
"..3jpagjiufjh>..",
"..3jd-=gjw@rjq..",
"..3jy.+dj:.7je..",
"..3jt.Osj&.6jr..",
"..3jt.Osj&.6jr..",
"..3jt.Osj&.6jr..",
"..-81.o58$.;8<..",
"................",
"................",
"................",
"................"
};
