/* XPM */
static char *menu_prelight[] = {
/* columns rows colors chars-per-pixel */
"26 26 46 1 ",
"  c black",
". c #033303330333",
"X c #0BB80BB80BB8",
"o c #117411741174",
"O c #1A6E1A6E1A6E",
"+ c #1B3A1B3A1B3A",
"@ c #1CCC1CCC1CCC",
"# c #229822982298",
"$ c #241824182418",
"% c #28C028C028C0",
"& c #2A802A802A80",
"* c #303830383038",
"= c #408040804080",
"- c #5D605D605D60",
"; c #5E585E585E58",
": c #649064906490",
"> c #71BD71BD71BD",
", c #727872787278",
"< c #737073707370",
"1 c #77E077E077E0",
"2 c #7C707C707C70",
"3 c #80DF80DF80DF",
"4 c #817F817F817F",
"5 c #885F885F885F",
"6 c #893F893F893F",
"7 c #977F977F977F",
"8 c #9BCF9BCF9BCF",
"9 c #9C5F9C5F9C5F",
"0 c #9E9F9E9F9E9F",
"q c #A4DFA4DFA4DF",
"w c #ADFFADFFADFF",
"e c #B40FB40FB40F",
"r c #B61FB61FB61F",
"t c #B67FB67FB67F",
"y c #CCBFCCBFCCBF",
"u c #DE5FDE5FDE5F",
"i c #E93FE93FE93F",
"p c #EDFFEDFFEDFF",
"a c #F0BFF0BFF0BF",
"s c #F21FF21FF21F",
"d c #F57FF57FF57F",
"f c #FA1FFA1FFA1F",
"g c #FC3FFC3FFC3F",
"h c #FF1FFF1FFF1F",
"j c white",
"k c None",
/* pixels */
"kkkkkkkkkkkkkkkkkkkkkkkkkk",
"kkkkkkkkkkkkkkkkkkkkkkkkkk",
"kkkkkkkkkkkkkkkkkkkkkkkkkk",
"**************************",
"**************************",
"**************************",
"**************************",
"**************************",
"******X    $    #  *******",
"*****&<hg7pjjq;ajjt ******",
"*****@,jjjidjhfpsjj>+*****",
"*****O>jjy 2jju =jjw *****",
"*****O>jj6 ;jjq  jje *****",
"*****O>jj3 -jj8  jje *****",
"*****O>jj4 -jj8  jje *****",
"*****+,jj4 -jj9  jje *****",
"*****%1jj5 :jj0  jjr *****",
"******.   *o   *O   ******",
"**************************",
"**************************",
"**************************",
"**************************",
"**************************",
"**************************",
"**************************",
"**************************"
};
