/* XPM */
static char *menu_prelight[] = {
/* columns rows colors chars-per-pixel */
"22 22 36 1 ",
"  c #92BF6F20A83F",
". c #933F6FD0A89F",
"X c #93DF70A0A91F",
"o c #93FF70D0A93F",
"O c #947F71A5A9AA",
"+ c #94E47232A9ED",
"@ c #9B287A0DAF98",
"# c #9BBF7C38AF6F",
"$ c #9E1F7FB0B15F",
"% c #B79FA1BFC67F",
"& c #BF1FAB1FCCDF",
"* c #BF7FAB9FCD3F",
"= c #C93FB7BFD57F",
"- c #CE1FBDBFD99F",
"; c #D27FC2FFDD5F",
": c #D41FC4DFDEDF",
"> c #D53FC65FDFFF",
", c #D6FFC85FE15F",
"< c #DC3FCE9FE5FF",
"1 c #DC9FCF1FE65F",
"2 c #DFFFD2DFE95F",
"3 c #E0FFD41FEA3F",
"4 c #E17FD4DFEA9F",
"5 c #E27FD5FFEB7F",
"6 c #E3DFD77FECBF",
"7 c #E85FDCBFF0BF",
"8 c #EC9FE1DFF47F",
"9 c #EDFFE35FF5BF",
"0 c #F85FEF5FFF07",
"q c #FB7FF2DFFFFF",
"w c #FC9FF41FFFFF",
"e c #FD5FF4FFFFFF",
"r c #FE9FF65FFFFF",
"t c #FFFFFAFFFFFF",
"y c white",
"u c None",
/* pixels */
"uuuuuuuuuuuuuuuuuuuuuu",
"uuuuuuuuuuuuuuuuuuuuuu",
"@@@@@@@@@@@@@@@@@@@@@@",
"                      ",
"                      ",
"        +#o   O#O     ",
"   6yy2<yyy-.1yyy4    ",
"   eyyyyyyyyqyyyyy;   ",
"   eyyyt,yyyyy>yyyy   ",
"   eyyy+ 9yyy$ =yyyX  ",
"   eyyw  5yyy  &yyy+  ",
"   eyy0  3yyy  *yyy+  ",
"   eyy0  3yyy  *yyy+  ",
"   eyy0  3yyy  *yyy+  ",
"   eyy0  3yyy  *yyy+  ",
"   8yy7  :yyr  %yyyO  ",
"                      ",
"                      ",
"                      ",
"                      ",
"                      ",
"                      "
};
