/* XPM */
static char *top_left_inactive[] = {
/* columns rows colors chars-per-pixel */
"22 22 4 1 ",
"  c #54D054D054D0",
". c #6E256E256E25",
"X c #8C4E8C4E8C4E",
"o c None",
/* pixels */
"                      ",
"                      ",
"  .XXXXXXXXXXXXXXXXXXX",
"  Xooooooooooooooooooo",
"  Xooooooooooooooooooo",
"  Xooooooooooooooooooo",
"  Xooooooooooooooooooo",
"  Xooooooooooooooooooo",
"  Xooooooooooooooooooo",
"  Xooooooooooooooooooo",
"  Xooooooooooooooooooo",
"  Xooooooooooooooooooo",
"  Xooooooooooooooooooo",
"  Xooooooooooooooooooo",
"  Xooooooooooooooooooo",
"  Xooooooooooooooooooo",
"  Xooooooooooooooooooo",
"  Xooooooooooooooooooo",
"  Xooooooooooooooooooo",
"  Xooooooooooooooooooo",
"  Xooooooooooooooooooo",
"  Xooooooooooooooooooo"
};
