/* XPM */
static char *top_left_active[] = {
/* columns rows colors chars-per-pixel */
"26 26 7 1 ",
"  c #268026802680",
". c #2B402B402B40",
"X c #2E402E402E40",
"o c #315031503150",
"O c #322832283228",
"+ c #340034003400",
"@ c None",
/* pixels */
"++++++++++++++++++++++++++",
"++++++++++++++++++++++++++",
"OOoXXXXXXXXXXXXXXXXXXXXXXX",
".. @@@@@@@@@@@@@@@@@@@@@@@",
".. @@@@@@@@@@@@@@@@@@@@@@@",
".. @@@@@@@@@@@@@@@@@@@@@@@",
".. @@@@@@@@@@@@@@@@@@@@@@@",
".. @@@@@@@@@@@@@@@@@@@@@@@",
".. @@@@@@@@@@@@@@@@@@@@@@@",
".. @@@@@@@@@@@@@@@@@@@@@@@",
".. @@@@@@@@@@@@@@@@@@@@@@@",
".. @@@@@@@@@@@@@@@@@@@@@@@",
".. @@@@@@@@@@@@@@@@@@@@@@@",
".. @@@@@@@@@@@@@@@@@@@@@@@",
".. @@@@@@@@@@@@@@@@@@@@@@@",
".. @@@@@@@@@@@@@@@@@@@@@@@",
".. @@@@@@@@@@@@@@@@@@@@@@@",
".. @@@@@@@@@@@@@@@@@@@@@@@",
".. @@@@@@@@@@@@@@@@@@@@@@@",
".. @@@@@@@@@@@@@@@@@@@@@@@",
".. @@@@@@@@@@@@@@@@@@@@@@@",
".. @@@@@@@@@@@@@@@@@@@@@@@",
".. @@@@@@@@@@@@@@@@@@@@@@@",
".. @@@@@@@@@@@@@@@@@@@@@@@",
".. @@@@@@@@@@@@@@@@@@@@@@@",
".. @@@@@@@@@@@@@@@@@@@@@@@"
};
