/* XPM */
static char *top_right_inactive[] = {
/* columns rows colors chars-per-pixel */
"26 26 6 1 ",
"  c #5B505B505B50",
". c #5D205D205D20",
"X c #5E505E505E50",
"o c #5FB05FB05FB0",
"O c #60D860D860D8",
"+ c None",
/* pixels */
"OOOOOOOOOOOOOOOOOOOOOOOOOO",
"OOOOOOOOOOOOOOOOOOOOOOOOOO",
"XXXXXXXXXXXXXXXXXXXXXXXoOO",
"+++++++++++++++++++++++ ..",
"+++++++++++++++++++++++ ..",
"+++++++++++++++++++++++ ..",
"+++++++++++++++++++++++ ..",
"+++++++++++++++++++++++ ..",
"+++++++++++++++++++++++ ..",
"+++++++++++++++++++++++ ..",
"+++++++++++++++++++++++ ..",
"+++++++++++++++++++++++ ..",
"+++++++++++++++++++++++ ..",
"+++++++++++++++++++++++ ..",
"+++++++++++++++++++++++ ..",
"+++++++++++++++++++++++ ..",
"+++++++++++++++++++++++ ..",
"+++++++++++++++++++++++ ..",
"+++++++++++++++++++++++ ..",
"+++++++++++++++++++++++ ..",
"+++++++++++++++++++++++ ..",
"+++++++++++++++++++++++ ..",
"+++++++++++++++++++++++ ..",
"+++++++++++++++++++++++ ..",
"+++++++++++++++++++++++ ..",
"+++++++++++++++++++++++ .."
};
