/* XPM */
static char *top_left_inactive[] = {
/* columns rows colors chars-per-pixel */
"32 32 4 1 ",
"  c #54D054D054D0",
". c #675467546754",
"X c #80C380C380C3",
"o c None",
/* pixels */
"                                ",
"                                ",
"                                ",
"   .XXXXXXXXXXXXXXXXXXXXXXXXXXXX",
"   Xoooooooooooooooooooooooooooo",
"   Xoooooooooooooooooooooooooooo",
"   Xoooooooooooooooooooooooooooo",
"   Xoooooooooooooooooooooooooooo",
"   Xoooooooooooooooooooooooooooo",
"   Xoooooooooooooooooooooooooooo",
"   Xoooooooooooooooooooooooooooo",
"   Xoooooooooooooooooooooooooooo",
"   Xoooooooooooooooooooooooooooo",
"   Xoooooooooooooooooooooooooooo",
"   Xoooooooooooooooooooooooooooo",
"   Xoooooooooooooooooooooooooooo",
"   Xoooooooooooooooooooooooooooo",
"   Xoooooooooooooooooooooooooooo",
"   Xoooooooooooooooooooooooooooo",
"   Xoooooooooooooooooooooooooooo",
"   Xoooooooooooooooooooooooooooo",
"   Xoooooooooooooooooooooooooooo",
"   Xoooooooooooooooooooooooooooo",
"   Xoooooooooooooooooooooooooooo",
"   Xoooooooooooooooooooooooooooo",
"   Xoooooooooooooooooooooooooooo",
"   Xoooooooooooooooooooooooooooo",
"   Xoooooooooooooooooooooooooooo",
"   Xoooooooooooooooooooooooooooo",
"   Xoooooooooooooooooooooooooooo",
"   Xoooooooooooooooooooooooooooo",
"   Xoooooooooooooooooooooooooooo"
};
